<svg width="761" height="92" viewBox="0 0 761 92" fill="none" xmlns="http://www.w3.org/2000/svg">
<rect x="603" y="46" width="158" height="42" fill="#F6CE7C"/>
<path d="M369.82 21.66L356.56 44.76L371.62 69.12H360.76L348.58 48.9H344.38V69.12H334.54V21.66H344.38V40.68H348.58L359.08 21.66H369.82ZM384.868 21.66V69.12H375.028V21.66H384.868ZM420.223 69.12H412.063L401.503 41.46V69.12H391.903V21.66H401.923L416.143 58.86L430.363 21.66H440.383V69.12H430.783V41.46L420.223 69.12ZM482.307 41.94L492.027 21.66H502.287L487.227 50.4V69.12H477.387V50.4L462.387 21.66H472.647L482.307 41.94ZM506.63 69.12V21.66H536.09V29.88H516.47V40.68H533.63V48.9H516.47V60.9H536.39V69.12H506.63ZM579.396 45.36C579.396 52.44 578.436 58.86 574.896 63.54C571.836 67.62 567.216 69.96 560.316 69.96C553.356 69.96 548.796 67.62 545.736 63.54C542.196 58.86 541.176 52.44 541.176 45.36C541.176 38.34 542.196 31.92 545.736 27.24C548.796 23.16 553.356 20.82 560.316 20.82C567.216 20.82 571.836 23.16 574.896 27.24C578.436 31.92 579.396 38.34 579.396 45.36ZM551.076 45.36C551.076 52.38 551.796 55.92 553.476 58.38C554.916 60.54 557.196 61.68 560.316 61.68C563.436 61.68 565.716 60.54 567.156 58.38C568.836 55.92 569.496 52.38 569.496 45.36C569.496 38.4 568.836 34.86 567.156 32.4C565.716 30.24 563.436 29.1 560.316 29.1C557.196 29.1 554.916 30.24 553.476 32.4C551.796 34.86 551.076 38.4 551.076 45.36ZM610.338 69.12L595.278 38.7V69.12H585.438V21.66H595.398L610.458 52.14V21.66H620.358V69.12H610.338ZM660.69 55.5C660.69 63.9 654.51 69.96 643.59 69.96C632.79 69.96 626.49 64.02 626.49 55.68V54.78H636.33V55.8C636.33 59.46 639.03 61.98 643.59 61.98C648.09 61.98 650.79 59.46 650.79 55.8C650.79 52.56 648.75 50.34 644.31 49.44L639.21 48.42C631.23 46.86 626.37 42.54 626.37 34.56C626.37 27 632.07 20.82 642.63 20.82C653.19 20.82 658.89 27.06 658.89 34.32V35.04H649.05V34.32C649.05 31.08 646.77 28.86 642.63 28.86C638.43 28.86 636.21 31.08 636.21 34.32C636.21 37.62 638.25 39.3 642.81 40.26L647.91 41.28C656.19 42.96 660.69 47.64 660.69 55.5ZM666.122 69.12V21.66H695.582V29.88H675.962V40.68H693.122V48.9H675.962V60.9H695.882V69.12H666.122ZM738.888 45.36C738.888 52.44 737.928 58.86 734.388 63.54C731.328 67.62 726.708 69.96 719.808 69.96C712.848 69.96 708.288 67.62 705.228 63.54C701.688 58.86 700.668 52.44 700.668 45.36C700.668 38.34 701.688 31.92 705.228 27.24C708.288 23.16 712.848 20.82 719.808 20.82C726.708 20.82 731.328 23.16 734.388 27.24C737.928 31.92 738.888 38.34 738.888 45.36ZM710.568 45.36C710.568 52.38 711.288 55.92 712.968 58.38C714.408 60.54 716.688 61.68 719.808 61.68C722.928 61.68 725.208 60.54 726.648 58.38C728.328 55.92 728.988 52.38 728.988 45.36C728.988 38.4 728.328 34.86 726.648 32.4C725.208 30.24 722.928 29.1 719.808 29.1C716.688 29.1 714.408 30.24 712.968 32.4C711.288 34.86 710.568 38.4 710.568 45.36Z" fill="black"/>
<path d="M32.4601 21.66V69.12H22.6201V21.66H32.4601ZM69.0751 47.64V69.12H59.7151V47.82C59.7151 43.62 58.0351 41.64 54.9151 41.64C50.9551 41.64 48.3751 44.64 48.3751 49.98V69.12H38.9551V35.22H48.3751V40.86C49.5751 36.96 52.9951 34.38 57.8551 34.38C65.0551 34.38 69.0751 38.94 69.0751 47.64ZM87.0601 42.48V57.6C87.0601 61.5 88.2601 62.4 92.4001 62.4H95.8801V69.42C94.6201 69.54 91.8601 69.6 90.1801 69.6C81.1801 69.6 77.7001 66.84 77.7001 59.04V42.48H72.7801V35.22H77.7001V25.62H87.0601V35.22H95.8801V42.48H87.0601ZM131.079 54.72H108.939C109.179 60.18 111.339 63.12 115.359 63.12C118.419 63.12 120.399 61.56 120.939 58.8H130.419C129.339 65.7 123.939 69.96 115.359 69.96C104.619 69.96 99.5785 63.18 99.5785 52.14C99.5785 41.22 104.619 34.38 115.359 34.38C126.159 34.38 131.139 41.22 131.139 52.14C131.139 53.04 131.139 54 131.079 54.72ZM115.359 41.28C111.339 41.28 109.179 43.92 108.999 48.84H121.659C121.479 43.92 119.319 41.28 115.359 41.28ZM154.279 42.12C148.879 42.12 145.699 45.6 145.699 52.2V69.12H136.279V35.22H145.699V41.52C146.719 36.78 149.479 34.38 154.519 34.38C155.539 34.38 156.499 34.5 157.159 34.68L157.039 42.24C156.499 42.18 155.419 42.12 154.279 42.12ZM180.747 69.12H170.667L158.727 35.22H168.327L175.707 59.28L183.147 35.22H192.747L180.747 69.12ZM196.695 29.82V21.66H206.055V29.82H196.695ZM196.695 69.12V35.22H206.055V69.12H196.695ZM242.875 54.72H220.735C220.975 60.18 223.135 63.12 227.155 63.12C230.215 63.12 232.195 61.56 232.735 58.8H242.215C241.135 65.7 235.735 69.96 227.155 69.96C216.415 69.96 211.375 63.18 211.375 52.14C211.375 41.22 216.415 34.38 227.155 34.38C237.955 34.38 242.935 41.22 242.935 52.14C242.935 53.04 242.935 54 242.875 54.72ZM227.155 41.28C223.135 41.28 220.975 43.92 220.795 48.84H233.455C233.275 43.92 231.115 41.28 227.155 41.28ZM288.345 69.12H278.985L272.265 46.26L265.605 69.12H256.245L245.505 35.22H254.925L261.405 58.92L268.305 35.22H276.285L283.185 58.92L289.665 35.22H299.085L288.345 69.12Z" fill="black"/>
<rect x="7.75" y="5.75" width="300.5" height="79.5" stroke="black" stroke-width="1.5"/>
<rect x="0.75" y="-0.75" width="11.5" height="11.5" transform="matrix(1 0 0 -1 0 11.5)" stroke="black" stroke-width="1.5"/>
<rect x="0.75" y="-0.75" width="11.5" height="11.5" transform="matrix(1 0 0 -1 151 11.5)" stroke="black" stroke-width="1.5"/>
<rect x="0.75" y="-0.75" width="11.5" height="11.5" transform="matrix(1 0 0 -1 302 11.5)" stroke="black" stroke-width="1.5"/>
<rect x="0.75" y="-0.75" width="11.5" height="11.5" transform="matrix(1 0 0 -1 302 90.5)" stroke="black" stroke-width="1.5"/>
<rect x="0.75" y="-0.75" width="11.5" height="11.5" transform="matrix(1 0 0 -1 151 90.5)" stroke="black" stroke-width="1.5"/>
<rect x="0.75" y="-0.75" width="11.5" height="11.5" transform="matrix(1 0 0 -1 0 90.5)" stroke="black" stroke-width="1.5"/>
</svg>
