<svg width="469" height="140" viewBox="0 0 469 140" fill="none" xmlns="http://www.w3.org/2000/svg">
<g filter="url(#filter0_d_2634_159)">
<rect x="16" y="88" width="235" height="38" fill="#F6CE7C"/>
</g>
<path d="M173.552 9.65H173.762C174.696 9.65 175.419 10.3267 175.932 11.68C175.932 12.1933 174.999 13.4067 173.132 15.32C172.526 16.72 172.222 17.98 172.222 19.1V20.57C172.222 21.3167 172.666 22.6467 173.552 24.56C173.552 25.54 172.829 26.2633 171.382 26.73C169.609 26.73 168.489 24.49 168.022 20.01V19.73C168.022 15.2967 169.866 11.9367 173.552 9.65ZM179.222 13.43H179.432C180.412 13.43 180.996 14.1533 181.182 15.6C181.182 16.3 180.249 17.2333 178.382 18.4L177.962 20.15V20.57L178.522 23.23C178.522 24.07 177.799 24.7933 176.352 25.4C174.626 24.84 173.762 23.1833 173.762 20.43C173.762 17.1167 175.582 14.7833 179.222 13.43ZM187.509 13.22C188.629 13.22 189.352 13.8033 189.679 14.97L189.259 19.1V20.43C190.425 30.09 191.149 37.6033 191.429 42.97C191.942 47.9633 192.479 50.46 193.039 50.46C193.039 51.44 192.222 52.07 190.589 52.35C188.255 52.35 187.089 47.6367 187.089 38.21L185.129 20.01V19.38C185.129 15.2733 185.922 13.22 187.509 13.22ZM199.742 10.56C201.188 10.56 202.122 12.31 202.542 15.81V16.23C202.542 17.8167 201.795 18.61 200.302 18.61C198.855 18.61 198.132 17.0933 198.132 14.06C197.805 14.06 197.595 13.5233 197.502 12.45C197.968 11.19 198.715 10.56 199.742 10.56ZM207.761 27.5C208.087 26.3333 208.834 25.75 210.001 25.75C211.167 25.75 211.937 26.9167 212.311 29.25H212.591L215.811 28.55C217.304 28.55 218.751 29.95 220.151 32.75H220.431C222.484 29.53 224.584 27.92 226.731 27.92C231.304 28.76 233.591 31.7467 233.591 36.88L233.731 39.33L233.101 53.47V54.8C233.101 55.9667 232.377 56.6433 230.931 56.83C229.484 56.83 228.761 55.1267 228.761 51.72L229.601 39.05C229.601 34.3833 228.504 32.05 226.311 32.05C225.051 32.05 223.534 35.1067 221.761 41.22C220.874 48.22 220.151 51.72 219.591 51.72C218.797 51.72 218.401 51.8833 218.401 52.21C216.954 52.0233 216.231 51.2767 216.231 49.97L217.141 41.5C217.001 35.6667 216.417 32.75 215.391 32.75H215.181C214.014 33.6367 213.431 35.3867 213.431 38V41.71L213.151 52.42C212.824 53.5867 212.101 54.17 210.981 54.17C210.001 54.17 209.371 53.3533 209.091 51.72L208.811 43.46L209.231 36.67C208.951 33.17 208.461 30.1133 207.761 27.5ZM277.084 24.98C279.137 24.98 280.164 25.7967 280.164 27.43L279.534 28.76L279.114 41.57C279.114 47.3567 280.281 50.95 282.614 52.35L282.754 53.4C282.614 54.7533 281.984 55.43 280.864 55.43H280.444C276.944 53.05 275.194 49.41 275.194 44.51H274.704C272.837 49.7367 270.574 52.35 267.914 52.35C265.441 51.65 264.204 49.8067 264.204 46.82C264.204 40.24 266.841 33.6833 272.114 27.15C273.887 25.7033 275.544 24.98 277.084 24.98ZM268.614 44.02L268.334 45.98V47.31H269.034C272.534 38.5833 274.284 33.2633 274.284 31.35H274.004C271.297 34.3833 269.501 38.6067 268.614 44.02ZM293.534 28.41C297.5 28.7367 299.484 30.6733 299.484 34.22L299.624 35.13L299.484 46.05C299.484 47.31 300.207 49.0133 301.654 51.16V51.3C301.28 52.6533 300.604 53.33 299.624 53.33C296.73 52.1167 295.284 49.55 295.284 45.63V44.72L295.074 44.58L295.284 44.3V44.16L295.494 34.5C295.494 33.1467 294.91 32.47 293.744 32.47H292.904C290.57 33.4033 289.404 38.5133 289.404 47.8C289.404 51.02 288.587 52.63 286.954 52.63C285.694 52.63 285.04 51.8367 284.994 50.25V43.25C284.994 34.1967 285.787 29.67 287.374 29.67L288.074 29.46L289.544 29.67C290.804 28.83 292.134 28.41 293.534 28.41ZM36.6054 73.22C37.7254 73.22 38.4487 73.8033 38.7754 74.97L38.3554 79.1V80.43C39.522 90.09 40.2454 97.6033 40.5254 102.97C41.0387 107.963 41.5754 110.46 42.1354 110.46C42.1354 111.44 41.3187 112.07 39.6854 112.35C37.352 112.35 36.1854 107.637 36.1854 98.21L34.2254 80.01V79.38C34.2254 75.2733 35.0187 73.22 36.6054 73.22ZM46.8084 87.5C47.1351 86.3333 47.8817 85.75 49.0484 85.75C50.2151 85.75 50.9851 86.9167 51.3584 89.25H51.6384L54.8584 88.55C56.3517 88.55 57.7984 89.95 59.1984 92.75H59.4784C61.5317 89.53 63.6317 87.92 65.7784 87.92C70.3517 88.76 72.6384 91.7467 72.6384 96.88L72.7784 99.33L72.1484 113.47V114.8C72.1484 115.967 71.4251 116.643 69.9784 116.83C68.5317 116.83 67.8084 115.127 67.8084 111.72L68.6484 99.05C68.6484 94.3833 67.5517 92.05 65.3584 92.05C64.0984 92.05 62.5817 95.1067 60.8084 101.22C59.9217 108.22 59.1984 111.72 58.6384 111.72C57.8451 111.72 57.4484 111.883 57.4484 112.21C56.0017 112.023 55.2784 111.277 55.2784 109.97L56.1884 101.5C56.0484 95.6667 55.4651 92.75 54.4384 92.75H54.2284C53.0617 93.6367 52.4784 95.3867 52.4784 98V101.71L52.1984 112.42C51.8717 113.587 51.1484 114.17 50.0284 114.17C49.0484 114.17 48.4184 113.353 48.1384 111.72L47.8584 103.46L48.2784 96.67C47.9984 93.17 47.5084 90.1133 46.8084 87.5ZM89.7452 84.98C91.7985 84.98 92.8252 85.7967 92.8252 87.43L92.1952 88.76L91.7752 101.57C91.7752 107.357 92.9419 110.95 95.2752 112.35L95.4152 113.4C95.2752 114.753 94.6452 115.43 93.5252 115.43H93.1052C89.6052 113.05 87.8552 109.41 87.8552 104.51H87.3652C85.4985 109.737 83.2352 112.35 80.5752 112.35C78.1019 111.65 76.8652 109.807 76.8652 106.82C76.8652 100.24 79.5019 93.6833 84.7752 87.15C86.5485 85.7033 88.2052 84.98 89.7452 84.98ZM81.2752 104.02L80.9952 105.98V107.31H81.6952C85.1952 98.5833 86.9452 93.2633 86.9452 91.35H86.6652C83.9585 94.3833 82.1619 98.6067 81.2752 104.02ZM108.365 85.12C110.511 85.12 111.585 86.1467 111.585 88.2C111.865 88.2 112.005 88.55 112.005 89.25H112.285L112.005 91.28L112.285 105.42L111.865 116.62C116.065 116.62 118.888 119.7 120.335 125.86C120.335 127.12 119.471 127.843 117.745 128.03C116.951 128.03 116.065 126.28 115.085 122.78C114.151 121.427 113.078 120.75 111.865 120.75H111.585C110.091 130.69 108.785 135.66 107.665 135.66C106.311 138.133 104.351 139.37 101.785 139.37C98.0046 138.483 96.1146 136.593 96.1146 133.7V133.28C96.1146 128.893 99.2413 124.133 105.495 119L107.665 117.67L107.945 110.11V108.36H107.665C106.078 110.367 104.561 111.37 103.115 111.37H102.695C99.4746 111.37 97.6313 108.897 97.1646 103.95V102.41C97.1646 96.4367 99.358 91.2567 103.745 86.87C105.098 85.7033 106.638 85.12 108.365 85.12ZM101.365 101.5V104.86C101.551 106.4 101.901 107.17 102.415 107.17H103.115C104.421 107.17 106.031 102.363 107.945 92.75V89.25C105.145 89.25 102.951 93.3333 101.365 101.5ZM100.245 133.42C100.431 134.587 101.085 135.17 102.205 135.17C104.445 135.17 106.055 131.18 107.035 123.2H106.615C102.368 126.887 100.245 130.293 100.245 133.42ZM116.802 75.53C118.575 75.9033 119.462 76.6967 119.462 77.91C118.995 79.2167 118.249 79.87 117.222 79.87C115.495 79.5433 114.632 78.68 114.632 77.28C115.099 76.1133 115.822 75.53 116.802 75.53ZM119.462 85.33C120.209 85.33 120.839 86.0067 121.352 87.36L120.722 92.33V95.62C120.722 99.4467 121.375 104.463 122.682 110.67C122.215 111.557 121.422 112 120.302 112C118.389 112 117.129 106.4 116.522 95.2V92.75C116.522 87.8033 117.502 85.33 119.462 85.33ZM135.384 88.41C139.351 88.7367 141.334 90.6733 141.334 94.22L141.474 95.13L141.334 106.05C141.334 107.31 142.057 109.013 143.504 111.16V111.3C143.131 112.653 142.454 113.33 141.474 113.33C138.581 112.117 137.134 109.55 137.134 105.63V104.72L136.924 104.58L137.134 104.3V104.16L137.344 94.5C137.344 93.1467 136.761 92.47 135.594 92.47H134.754C132.421 93.4033 131.254 98.5133 131.254 107.8C131.254 111.02 130.437 112.63 128.804 112.63C127.544 112.63 126.891 111.837 126.844 110.25V103.25C126.844 94.1967 127.637 89.67 129.224 89.67L129.924 89.46L131.394 89.67C132.654 88.83 133.984 88.41 135.384 88.41ZM158.788 84.98C160.841 84.98 161.868 85.7967 161.868 87.43L161.238 88.76L160.818 101.57C160.818 107.357 161.985 110.95 164.318 112.35L164.458 113.4C164.318 114.753 163.688 115.43 162.568 115.43H162.148C158.648 113.05 156.898 109.41 156.898 104.51H156.408C154.541 109.737 152.278 112.35 149.618 112.35C147.145 111.65 145.908 109.807 145.908 106.82C145.908 100.24 148.545 93.6833 153.818 87.15C155.591 85.7033 157.248 84.98 158.788 84.98ZM150.318 104.02L150.038 105.98V107.31H150.738C154.238 98.5833 155.988 93.2633 155.988 91.35H155.708C153.001 94.3833 151.205 98.6067 150.318 104.02ZM174.398 69.51C175.704 69.79 176.358 70.4433 176.358 71.47L175.938 74.55V75.46C175.938 77.5133 176.171 79.6833 176.638 81.97H176.778C182.191 80.3367 185.551 79.52 186.858 79.52C188.211 79.8933 188.888 80.57 188.888 81.55C188.888 83.1367 187.278 83.93 184.058 83.93L176.778 86.52C176.778 92.82 177.454 101.383 178.808 112.21C178.528 113.47 177.851 114.1 176.778 114.1H176.638C175.004 114.1 174.188 112 174.188 107.8C173.581 104.673 173.068 97.8833 172.648 87.43H171.388C167.001 87.15 164.808 86.1233 164.808 84.35C164.808 83.8367 165.298 83.2067 166.278 82.46H166.978L170.198 83.3H172.438L171.808 74.55C171.808 71.19 172.671 69.51 174.398 69.51ZM191.86 75.53C193.634 75.9033 194.52 76.6967 194.52 77.91C194.054 79.2167 193.307 79.87 192.28 79.87C190.554 79.5433 189.69 78.68 189.69 77.28C190.157 76.1133 190.88 75.53 191.86 75.53ZM194.52 85.33C195.267 85.33 195.897 86.0067 196.41 87.36L195.78 92.33V95.62C195.78 99.4467 196.434 104.463 197.74 110.67C197.274 111.557 196.48 112 195.36 112C193.447 112 192.187 106.4 191.58 95.2V92.75C191.58 87.8033 192.56 85.33 194.52 85.33ZM202.393 88.41C203.466 88.41 204.633 90.9767 205.893 96.11C207.666 100.217 208.669 102.387 208.903 102.62C209.136 102.62 209.999 100.287 211.493 95.62C212.986 90.9533 214.409 88.62 215.763 88.62C217.023 89.0867 217.653 89.8333 217.653 90.86C213.779 100.847 211.843 107.45 211.843 110.67L210.513 112H209.183C207.503 110.787 204.656 104.37 200.643 92.75L200.013 90.16C200.339 88.9933 201.133 88.41 202.393 88.41ZM226.92 86.87C228.787 86.9167 231.937 90.1833 236.37 96.67L236.51 97.86C236.51 99.1667 233.313 100.17 226.92 100.87L226.71 101.08V101.36C227.69 105.56 228.717 107.66 229.79 107.66H230.63C232.123 107.66 234.387 106.05 237.42 102.83H237.84C238.773 102.83 239.497 103.507 240.01 104.86C240.01 105.98 238.05 107.917 234.13 110.67C233.103 111.277 231.867 111.72 230.42 112C226.64 112 224.003 108.453 222.51 101.36C220.363 101.033 219.29 100.147 219.29 98.7C219.29 97.6733 220.083 96.9967 221.67 96.67V96.95L222.37 96.67V94.92C222.37 89.5533 223.887 86.87 226.92 86.87ZM227.34 91.91H226.71L226.43 94.5V96.67H226.71C229.323 96.5767 230.63 96.2967 230.63 95.83C229.417 94.01 228.32 92.7033 227.34 91.91ZM283.647 70.42L285.397 69.86C286.984 69.86 287.777 71.96 287.777 76.16L289.947 92.33L290.227 92.61L298.277 89.67C299.35 89.67 299.934 90.4867 300.027 92.12C300.027 93.3333 297.064 94.8033 291.137 96.53L290.857 96.67V96.95C290.857 97.93 292.397 103.04 295.477 112.28V112.42C295.477 113.307 294.754 114.053 293.307 114.66C291.954 114.66 291.067 113.05 290.647 109.83C289.574 107.497 288.267 103.647 286.727 98.28H286.447C280.334 99.54 277.277 100.613 277.277 101.5C273.917 108.78 271.374 112.42 269.647 112.42C268.667 112.42 268.084 111.79 267.897 110.53C267.897 109.41 269.134 107.217 271.607 103.95L272.727 101.5H270.977L269.647 101.78C267.92 101.36 267.057 100.473 267.057 99.12C267.757 97.4867 268.784 96.67 270.137 96.67L271.887 97.37C274.5 97.37 275.807 96.4133 275.807 94.5C278.187 88.9 280.8 80.8733 283.647 70.42ZM284.277 83.16L280.147 95.62C283.974 94.8733 285.887 94.15 285.887 93.45C285.187 86.59 284.65 83.16 284.277 83.16ZM311.344 84.42C314.284 84.42 316.034 86.4733 316.594 90.58V91.21C316.594 95.7367 314.261 99.89 309.594 103.67C312.301 106.33 317.038 107.66 323.804 107.66C324.831 107.987 325.344 108.71 325.344 109.83C325.344 111.09 324.528 111.72 322.894 111.72C318.321 111.72 313.514 110.553 308.474 108.22V110.25C308.474 115.057 307.448 117.46 305.394 117.46C303.948 117.46 303.224 114.683 303.224 109.13V103.67L303.014 101.71L303.504 99.47L303.014 92.75V92.47C303.014 91.21 303.668 90.3467 304.974 89.88C306.794 86.24 308.918 84.42 311.344 84.42ZM307.844 99.75C309.198 99.75 310.714 97.3233 312.394 92.47V89.46L311.554 88.55H310.924C308.871 89.95 307.844 93.6833 307.844 99.75ZM335.931 69.51C337.237 69.79 337.891 70.4433 337.891 71.47L337.471 74.55V75.46C337.471 77.5133 337.704 79.6833 338.171 81.97H338.311C343.724 80.3367 347.084 79.52 348.391 79.52C349.744 79.8933 350.421 80.57 350.421 81.55C350.421 83.1367 348.811 83.93 345.591 83.93L338.311 86.52C338.311 92.82 338.987 101.383 340.341 112.21C340.061 113.47 339.384 114.1 338.311 114.1H338.171C336.537 114.1 335.721 112 335.721 107.8C335.114 104.673 334.601 97.8833 334.181 87.43H332.921C328.534 87.15 326.341 86.1233 326.341 84.35C326.341 83.8367 326.831 83.2067 327.811 82.46H328.511L331.731 83.3H333.971L333.341 74.55C333.341 71.19 334.204 69.51 335.931 69.51ZM353.394 75.53C355.167 75.9033 356.054 76.6967 356.054 77.91C355.587 79.2167 354.84 79.87 353.814 79.87C352.087 79.5433 351.224 78.68 351.224 77.28C351.69 76.1133 352.414 75.53 353.394 75.53ZM356.054 85.33C356.8 85.33 357.43 86.0067 357.944 87.36L357.314 92.33V95.62C357.314 99.4467 357.967 104.463 359.274 110.67C358.807 111.557 358.014 112 356.894 112C354.98 112 353.72 106.4 353.114 95.2V92.75C353.114 87.8033 354.094 85.33 356.054 85.33ZM376.946 83.65C378.206 83.65 379.069 85.7733 379.536 90.02C379.069 91.1867 378.299 91.77 377.226 91.77C376.479 91.63 375.733 90.7667 374.986 89.18L373.726 88.76C371.533 88.76 369.549 90.2067 367.776 93.1V93.73C367.776 94.43 371.066 95.5967 377.646 97.23C380.399 98.8633 381.776 100.847 381.776 103.18C381.776 107.007 378.696 110.273 372.536 112.98L369.946 113.4C366.026 112.98 364.066 111.02 364.066 107.52V107.31C364.066 106.19 364.789 105.537 366.236 105.35C367.356 105.35 368.103 106.517 368.476 108.85L369.036 109.27H370.226C372.886 109.27 375.359 107.45 377.646 103.81V102.9C377.646 101.5 374.589 100.193 368.476 98.98C365.256 97.6733 363.646 95.8533 363.646 93.52C363.646 90.4867 366.189 87.64 371.276 84.98C373.516 84.7 375.406 84.2567 376.946 83.65ZM392.601 69.51C393.907 69.79 394.561 70.4433 394.561 71.47L394.141 74.55V75.46C394.141 77.5133 394.374 79.6833 394.841 81.97H394.981C400.394 80.3367 403.754 79.52 405.061 79.52C406.414 79.8933 407.091 80.57 407.091 81.55C407.091 83.1367 405.481 83.93 402.261 83.93L394.981 86.52C394.981 92.82 395.657 101.383 397.011 112.21C396.731 113.47 396.054 114.1 394.981 114.1H394.841C393.207 114.1 392.391 112 392.391 107.8C391.784 104.673 391.271 97.8833 390.851 87.43H389.591C385.204 87.15 383.011 86.1233 383.011 84.35C383.011 83.8367 383.501 83.2067 384.481 82.46H385.181L388.401 83.3H390.641L390.011 74.55C390.011 71.19 390.874 69.51 392.601 69.51ZM414.894 107.87C415.874 107.87 416.457 108.663 416.644 110.25C416.364 111.883 415.547 112.7 414.194 112.7C413.26 112.7 412.607 111.883 412.234 110.25C412.794 108.663 413.68 107.87 414.894 107.87ZM427.678 69.65H427.888C428.822 69.65 429.545 70.3267 430.058 71.68C430.058 72.1933 429.125 73.4067 427.258 75.32C426.652 76.72 426.348 77.98 426.348 79.1V80.57C426.348 81.3167 426.792 82.6467 427.678 84.56C427.678 85.54 426.955 86.2633 425.508 86.73C423.735 86.73 422.615 84.49 422.148 80.01V79.73C422.148 75.2967 423.992 71.9367 427.678 69.65ZM433.348 73.43H433.558C434.538 73.43 435.122 74.1533 435.308 75.6C435.308 76.3 434.375 77.2333 432.508 78.4L432.088 80.15V80.57L432.648 83.23C432.648 84.07 431.925 84.7933 430.478 85.4C428.752 84.84 427.888 83.1833 427.888 80.43C427.888 77.1167 429.708 74.7833 433.348 73.43Z" fill="black"/>
<defs>
<filter id="filter0_d_2634_159" x="15" y="87" width="243" height="46" filterUnits="userSpaceOnUse" color-interpolation-filters="sRGB">
<feFlood flood-opacity="0" result="BackgroundImageFix"/>
<feColorMatrix in="SourceAlpha" type="matrix" values="0 0 0 0 0 0 0 0 0 0 0 0 0 0 0 0 0 0 127 0" result="hardAlpha"/>
<feOffset dx="3" dy="3"/>
<feGaussianBlur stdDeviation="2"/>
<feComposite in2="hardAlpha" operator="out"/>
<feColorMatrix type="matrix" values="0 0 0 0 0 0 0 0 0 0 0 0 0 0 0 0 0 0 0.25 0"/>
<feBlend mode="normal" in2="BackgroundImageFix" result="effect1_dropShadow_2634_159"/>
<feBlend mode="normal" in="SourceGraphic" in2="effect1_dropShadow_2634_159" result="shape"/>
</filter>
</defs>
</svg>
