<svg width="174" height="181" viewBox="0 0 174 181" fill="none" xmlns="http://www.w3.org/2000/svg">
<g filter="url(#filter0_d_2775_183)">
<rect y="7" width="166" height="166" fill="#F8F7F4"/>
</g>
<path d="M20.625 28.745C20.625 31.31 20.37 33.17 19.485 34.235C18.915 34.955 18.015 35.3 16.95 35.3C15.9 35.3 15.015 34.955 14.415 34.235C13.53 33.17 13.275 31.31 13.275 28.745C13.275 26.195 13.53 24.335 14.415 23.27C15.015 22.535 15.9 22.175 16.95 22.175C18.015 22.175 18.915 22.535 19.485 23.27C20.37 24.335 20.625 26.195 20.625 28.745ZM15.54 28.745C15.54 30.92 15.66 32.345 16.08 32.96C16.275 33.245 16.605 33.395 16.95 33.395C17.31 33.395 17.625 33.245 17.835 32.96C18.255 32.345 18.375 30.92 18.375 28.745C18.375 26.585 18.255 25.16 17.835 24.545C17.625 24.26 17.31 24.095 16.95 24.095C16.605 24.095 16.275 24.26 16.08 24.545C15.66 25.16 15.54 26.585 15.54 28.745ZM22.38 22.16H24.66V36.005H22.38V22.16ZM35.1444 23.135V24.935H27.3294V23.135H30.1944V21.755H32.4744V23.135H35.1444ZM29.8794 28.385C29.8794 28.685 29.9994 28.955 30.2244 29.165C30.4794 29.39 30.8544 29.54 31.3044 29.54C31.7544 29.54 32.1294 29.39 32.3844 29.165C32.6094 28.955 32.7294 28.685 32.7294 28.385C32.7294 28.085 32.6094 27.8 32.3844 27.59C32.1294 27.365 31.7544 27.23 31.3044 27.23C30.8544 27.23 30.4794 27.365 30.2244 27.59C29.9994 27.8 29.8794 28.085 29.8794 28.385ZM27.6894 28.385C27.6894 27.5 28.0494 26.765 28.6794 26.27C29.2944 25.745 30.2094 25.475 31.3044 25.475C32.3994 25.475 33.3144 25.745 33.9294 26.27C34.5594 26.765 34.9194 27.5 34.9194 28.385C34.9194 29.27 34.5594 30.005 33.9294 30.5C33.3144 31.01 32.3994 31.295 31.3044 31.295C30.2094 31.295 29.2944 31.01 28.6794 30.5C28.0494 30.005 27.6894 29.27 27.6894 28.385ZM36.7944 27.275H35.1144V25.43H36.7944V22.16H39.0744V32.3H36.7944V30.305H35.1144V28.46H36.7944V27.275ZM39.2994 34.175V36.08H28.5594V31.79H30.8394V34.175H39.2994ZM42.1038 24.32V22.4H49.6938V24.32H47.0388V27.41C47.0388 31.265 48.2538 32.435 49.8138 33.125V35.135C48.1788 34.745 46.6638 33.65 45.8988 32.39C45.1188 33.665 43.5738 34.76 41.9688 35.135V33.125C43.5138 32.45 44.7438 31.265 44.7438 27.41V24.32H42.1038ZM51.1788 22.16H53.4588V36.005H51.1788V22.16ZM12.885 53.03V41.165H15.345V50.975H20.325V53.03H12.885ZM21.425 53.03V41.165H28.79V43.22H23.885V45.92H28.175V47.975H23.885V50.975H28.865V53.03H21.425ZM30.3166 53.03V41.165H37.6816V43.22H32.7766V45.92H37.0666V47.975H32.7766V50.975H37.7566V53.03H30.3166ZM49.7074 53.03V47.975H46.0774V53.03H43.6174V41.165H46.0774V45.92H49.7074V41.165H52.1824V53.03H49.7074ZM53.9446 53.03V41.165H61.3096V43.22H56.4046V45.92H60.6946V47.975H56.4046V50.975H61.3846V53.03H53.9446ZM72.1362 47.09C72.1362 48.86 71.8962 50.465 71.0112 51.635C70.2462 52.655 69.0912 53.24 67.3662 53.24C65.6262 53.24 64.4862 52.655 63.7212 51.635C62.8362 50.465 62.5812 48.86 62.5812 47.09C62.5812 45.335 62.8362 43.73 63.7212 42.56C64.4862 41.54 65.6262 40.955 67.3662 40.955C69.0912 40.955 70.2462 41.54 71.0112 42.56C71.8962 43.73 72.1362 45.335 72.1362 47.09ZM65.0562 47.09C65.0562 48.845 65.2362 49.73 65.6562 50.345C66.0162 50.885 66.5862 51.17 67.3662 51.17C68.1462 51.17 68.7162 50.885 69.0762 50.345C69.4962 49.73 69.6612 48.845 69.6612 47.09C69.6612 45.35 69.4962 44.465 69.0762 43.85C68.7162 43.31 68.1462 43.025 67.3662 43.025C66.5862 43.025 66.0162 43.31 65.6562 43.85C65.2362 44.465 65.0562 45.35 65.0562 47.09ZM79.8717 53.03L76.1067 45.425V53.03H73.6467V41.165H76.1367L79.9017 48.785V41.165H82.3767V53.03H79.8717ZM87.4496 53.24C84.8846 53.24 83.5046 51.83 83.5046 49.34V49.175H85.9796C86.0096 50.6 86.4896 51.17 87.4496 51.17C88.4396 51.17 88.9196 50.585 88.9196 49.025V41.165H91.3946V49.34C91.3946 51.83 90.0296 53.24 87.4496 53.24ZM95.5891 41.165V53.03H93.1291V41.165H95.5891Z" fill="black"/>
<path d="M17.694 124.372C17.395 124.983 16.706 125.399 15.744 125.399C13.924 125.399 12.663 124.125 12.663 122.019C12.663 119.913 14.067 118.626 15.926 118.626C17.083 118.626 17.98 119.107 18.526 120.017C19.059 120.693 19.202 121.902 19.202 123.332C19.202 127.622 18.214 129.156 15.9 129.156C14.262 129.156 13.118 128.298 12.897 126.621H14.405C14.535 127.44 15.055 127.882 15.913 127.882C17.174 127.882 17.655 126.79 17.694 124.372ZM17.733 122.019C17.733 120.693 17.018 119.9 15.926 119.9C14.834 119.9 14.132 120.693 14.132 122.019C14.132 123.345 14.834 124.138 15.926 124.138C17.018 124.138 17.733 123.345 17.733 122.019ZM26.3809 130.157L26.7969 129.013L24.0019 121.707H25.4969L27.5249 127.219L29.5009 121.707H30.9959L27.6809 130.599C27.1999 131.886 26.5499 132.159 25.4709 132.159C25.2759 132.159 25.0419 132.159 24.8729 132.146V130.976H25.3539C25.8219 130.976 26.1469 130.82 26.3809 130.157ZM38.0237 125.789H33.0447C33.0967 127.154 33.6297 127.96 34.8517 127.96C35.7617 127.96 36.3077 127.518 36.4117 126.803H37.8807C37.6467 128.272 36.5937 129.156 34.8517 129.156C32.6677 129.156 31.6017 127.778 31.6017 125.347C31.6017 122.929 32.6677 121.538 34.8257 121.538C36.9707 121.538 38.0367 122.929 38.0367 125.347C38.0367 125.503 38.0367 125.646 38.0237 125.789ZM34.8257 122.734C33.6557 122.734 33.1617 123.475 33.0577 124.697H36.5807C36.4767 123.475 35.9697 122.734 34.8257 122.734ZM43.888 128.207C43.654 128.779 42.913 129.156 41.834 129.156C40.144 129.156 39.078 128.324 39.078 126.842C39.078 125.373 40.144 124.528 41.834 124.528C42.835 124.528 43.628 124.866 43.888 125.464V124.281C43.888 123.293 43.368 122.721 42.315 122.721C41.379 122.721 40.898 123.124 40.794 123.865H39.351C39.455 122.422 40.456 121.538 42.315 121.538C44.343 121.538 45.331 122.617 45.331 124.281V127.986C45.331 128.35 45.396 128.74 45.5 128.987H44.031C43.94 128.792 43.888 128.519 43.888 128.207ZM42.198 127.999C43.316 127.999 43.901 127.609 43.901 126.842C43.901 126.088 43.316 125.685 42.198 125.685C41.093 125.685 40.508 126.088 40.508 126.842C40.508 127.609 41.093 127.999 42.198 127.999ZM50.2856 122.734C49.0636 122.734 48.3096 123.592 48.3096 125.256V128.987H46.8926V121.707H48.3096V122.929C48.6216 122.006 49.2066 121.538 50.3246 121.538C50.5456 121.538 50.7926 121.551 50.9226 121.59L50.8966 122.76C50.7796 122.747 50.5456 122.734 50.2856 122.734ZM54.4423 121.538C56.1453 121.538 57.1593 122.396 57.1593 123.67V123.839H55.7293V123.657C55.7293 123.124 55.2873 122.682 54.4423 122.682C53.5843 122.682 53.1423 123.124 53.1423 123.644C53.1423 124.437 53.7923 124.45 55.1443 124.736C56.7173 125.022 57.4323 125.698 57.4323 126.959C57.4323 128.207 56.3143 129.156 54.5593 129.156C52.8173 129.156 51.6733 128.233 51.6733 126.959V126.751H53.1033V126.959C53.1033 127.622 53.6883 128.012 54.5593 128.012C55.4173 128.012 56.0023 127.609 56.0023 126.998C56.0023 126.153 55.3263 126.062 54.0133 125.789C52.4403 125.516 51.7253 124.879 51.7253 123.67C51.7253 122.422 52.7263 121.538 54.4423 121.538ZM65.4975 127.973C66.8365 127.973 67.2785 126.959 67.2785 125.347C67.2785 123.735 66.8365 122.721 65.4975 122.721C64.1585 122.721 63.7165 123.735 63.7165 125.347C63.7165 126.959 64.1585 127.973 65.4975 127.973ZM65.4975 121.538C67.6425 121.538 68.7085 122.916 68.7085 125.347C68.7085 127.778 67.6425 129.156 65.4975 129.156C63.3395 129.156 62.2735 127.778 62.2735 125.347C62.2735 122.916 63.3395 121.538 65.4975 121.538ZM71.5309 128.987H70.1009V118.795H71.5309V128.987ZM77.9169 122.838V118.795H79.3599V128.987H77.9169V127.856C77.6439 128.649 76.8769 129.156 75.8369 129.156C74.0429 129.156 72.9249 127.96 72.9249 125.347C72.9249 122.734 74.0429 121.538 75.8369 121.538C76.8769 121.538 77.6439 122.045 77.9169 122.838ZM77.9169 125.347C77.9169 123.748 77.4749 122.734 76.1489 122.734C74.7969 122.734 74.3549 123.748 74.3549 125.347C74.3549 126.959 74.7969 127.96 76.1489 127.96C77.4749 127.96 77.9169 126.959 77.9169 125.347Z" fill="black"/>
<defs>
<filter id="filter0_d_2775_183" x="0" y="7" width="174" height="174" filterUnits="userSpaceOnUse" color-interpolation-filters="sRGB">
<feFlood flood-opacity="0" result="BackgroundImageFix"/>
<feColorMatrix in="SourceAlpha" type="matrix" values="0 0 0 0 0 0 0 0 0 0 0 0 0 0 0 0 0 0 127 0" result="hardAlpha"/>
<feOffset dx="4" dy="4"/>
<feGaussianBlur stdDeviation="2"/>
<feComposite in2="hardAlpha" operator="out"/>
<feColorMatrix type="matrix" values="0 0 0 0 0 0 0 0 0 0 0 0 0 0 0 0 0 0 0.25 0"/>
<feBlend mode="normal" in2="BackgroundImageFix" result="effect1_dropShadow_2775_183"/>
<feBlend mode="normal" in="SourceGraphic" in2="effect1_dropShadow_2775_183" result="shape"/>
</filter>
</defs>
</svg>
