<svg width="174" height="181" viewBox="0 0 174 181" fill="none" xmlns="http://www.w3.org/2000/svg">
<g filter="url(#filter0_d_2775_188)">
<rect y="7" width="166" height="166" fill="#F8F7F4"/>
</g>
<path d="M17.925 24.23H13.38V22.31H20.19V23.555C20.19 27.8 17.76 29.705 13.05 30.08V28.16C16.275 27.83 17.91 26.585 17.925 24.23ZM24.675 22.16V29.915H22.395V22.16H24.675ZM24.675 36.155H14.16V30.53H24.675V36.155ZM22.41 34.295V32.45H16.44V34.295H22.41ZM27.5844 26.165C27.5844 24.665 28.0344 23.555 28.8294 22.865C29.4444 22.355 30.2544 22.07 31.2744 22.07C32.2644 22.07 33.1044 22.355 33.7044 22.865C33.8994 23.03 34.0644 23.225 34.2144 23.435H36.7944V22.16H39.0744V31.88H36.7944V28.745H34.3344C34.1544 29.03 33.9444 29.27 33.7044 29.48C33.1044 30.005 32.2644 30.275 31.2744 30.275C30.2544 30.275 29.4444 30.005 28.8294 29.48C28.0344 28.805 27.5844 27.68 27.5844 26.165ZM34.9044 25.34C34.9344 25.595 34.9494 25.88 34.9494 26.165C34.9494 26.405 34.9344 26.63 34.9194 26.855H36.7944V25.34H34.9044ZM29.7744 26.165C29.7744 27.035 29.9544 27.635 30.2994 27.995C30.5394 28.235 30.8544 28.37 31.2744 28.37C31.6944 28.37 32.0094 28.235 32.2344 27.995C32.5944 27.635 32.7444 27.035 32.7444 26.165C32.7444 25.325 32.5944 24.71 32.2344 24.35C32.0094 24.095 31.6944 23.975 31.2744 23.975C30.8544 23.975 30.5394 24.095 30.2994 24.35C29.9544 24.71 29.7744 25.325 29.7744 26.165ZM39.2994 34.175V36.08H28.5594V31.145H30.8394V34.175H39.2994ZM45.7188 32.36C45.0138 33.665 43.3938 34.745 41.7138 35.135V33.125C43.3188 32.405 44.5788 31.205 44.5788 27.32V22.31H46.8588V27.32C46.8588 31.205 48.1038 32.39 49.7388 33.125V35.135C48.0438 34.745 46.4538 33.65 45.7188 32.36ZM51.1788 22.16H53.4588V36.005H51.1788V28.85H48.2838V26.9H51.1788V22.16ZM21.705 41.165L18.39 46.94L22.155 53.03H19.44L16.395 47.975H15.345V53.03H12.885V41.165H15.345V45.92H16.395L19.02 41.165H21.705ZM25.4671 41.165V53.03H23.0071V41.165H25.4671ZM34.3058 53.03H32.2658L29.6258 46.115V53.03H27.2258V41.165H29.7308L33.2858 50.465L36.8408 41.165H39.3458V53.03H36.9458V46.115L34.3058 53.03ZM49.8267 46.235L52.2567 41.165H54.8217L51.0567 48.35V53.03H48.5967V48.35L44.8467 41.165H47.4117L49.8267 46.235ZM55.9075 53.03V41.165H63.2725V43.22H58.3675V45.92H62.6575V47.975H58.3675V50.975H63.3475V53.03H55.9075ZM74.0991 47.09C74.0991 48.86 73.8591 50.465 72.9741 51.635C72.2091 52.655 71.0541 53.24 69.3291 53.24C67.5891 53.24 66.4491 52.655 65.6841 51.635C64.7991 50.465 64.5441 48.86 64.5441 47.09C64.5441 45.335 64.7991 43.73 65.6841 42.56C66.4491 41.54 67.5891 40.955 69.3291 40.955C71.0541 40.955 72.2091 41.54 72.9741 42.56C73.8591 43.73 74.0991 45.335 74.0991 47.09ZM67.0191 47.09C67.0191 48.845 67.1991 49.73 67.6191 50.345C67.9791 50.885 68.5491 51.17 69.3291 51.17C70.1091 51.17 70.6791 50.885 71.0391 50.345C71.4591 49.73 71.6241 48.845 71.6241 47.09C71.6241 45.35 71.4591 44.465 71.0391 43.85C70.6791 43.31 70.1091 43.025 69.3291 43.025C68.5491 43.025 67.9791 43.31 67.6191 43.85C67.1991 44.465 67.0191 45.35 67.0191 47.09ZM81.8346 53.03L78.0696 45.425V53.03H75.6096V41.165H78.0996L81.8646 48.785V41.165H84.3396V53.03H81.8346ZM94.4225 49.625C94.4225 51.725 92.8775 53.24 90.1475 53.24C87.4475 53.24 85.8725 51.755 85.8725 49.67V49.445H88.3325V49.7C88.3325 50.615 89.0075 51.245 90.1475 51.245C91.2725 51.245 91.9475 50.615 91.9475 49.7C91.9475 48.89 91.4375 48.335 90.3275 48.11L89.0525 47.855C87.0575 47.465 85.8425 46.385 85.8425 44.39C85.8425 42.5 87.2675 40.955 89.9075 40.955C92.5475 40.955 93.9725 42.515 93.9725 44.33V44.51H91.5125V44.33C91.5125 43.52 90.9425 42.965 89.9075 42.965C88.8575 42.965 88.3025 43.52 88.3025 44.33C88.3025 45.155 88.8125 45.575 89.9525 45.815L91.2275 46.07C93.2975 46.49 94.4225 47.66 94.4225 49.625ZM95.7805 53.03V41.165H103.146V43.22H98.2405V45.92H102.531V47.975H98.2405V50.975H103.221V53.03H95.7805ZM113.972 47.09C113.972 48.86 113.732 50.465 112.847 51.635C112.082 52.655 110.927 53.24 109.202 53.24C107.462 53.24 106.322 52.655 105.557 51.635C104.672 50.465 104.417 48.86 104.417 47.09C104.417 45.335 104.672 43.73 105.557 42.56C106.322 41.54 107.462 40.955 109.202 40.955C110.927 40.955 112.082 41.54 112.847 42.56C113.732 43.73 113.972 45.335 113.972 47.09ZM106.892 47.09C106.892 48.845 107.072 49.73 107.492 50.345C107.852 50.885 108.422 51.17 109.202 51.17C109.982 51.17 110.552 50.885 110.912 50.345C111.332 49.73 111.497 48.845 111.497 47.09C111.497 45.35 111.332 44.465 110.912 43.85C110.552 43.31 109.982 43.025 109.202 43.025C108.422 43.025 107.852 43.31 107.492 43.85C107.072 44.465 106.892 45.35 106.892 47.09Z" fill="black"/>
<path d="M17.538 128.987H16.069V120.342L13.677 121.408V119.978L16.29 118.795H17.538V128.987ZM27.3817 123.891C27.3817 126.218 27.0697 127.44 26.3417 128.246C25.7827 128.844 24.9897 129.156 24.0147 129.156C23.0397 129.156 22.2207 128.844 21.6747 128.246C20.9467 127.44 20.6347 126.218 20.6347 123.891C20.6347 121.564 20.9467 120.342 21.6747 119.536C22.2207 118.938 23.0397 118.626 24.0147 118.626C24.9897 118.626 25.7827 118.938 26.3417 119.536C27.0697 120.342 27.3817 121.564 27.3817 123.891ZM25.9127 123.891C25.9127 121.954 25.7567 121.018 25.3277 120.485C25.0027 120.095 24.5867 119.887 24.0147 119.887C23.4427 119.887 23.0137 120.095 22.6887 120.485C22.2597 121.018 22.0907 121.954 22.0907 123.891C22.0907 125.828 22.2597 126.764 22.6887 127.297C23.0137 127.687 23.4427 127.895 24.0147 127.895C24.5867 127.895 25.0027 127.687 25.3277 127.297C25.7567 126.764 25.9127 125.828 25.9127 123.891ZM34.3917 130.157L34.8077 129.013L32.0127 121.707H33.5077L35.5357 127.219L37.5117 121.707H39.0067L35.6917 130.599C35.2107 131.886 34.5607 132.159 33.4817 132.159C33.2867 132.159 33.0527 132.159 32.8837 132.146V130.976H33.3647C33.8327 130.976 34.1577 130.82 34.3917 130.157ZM46.0344 125.789H41.0554C41.1074 127.154 41.6404 127.96 42.8624 127.96C43.7724 127.96 44.3184 127.518 44.4224 126.803H45.8914C45.6574 128.272 44.6044 129.156 42.8624 129.156C40.6784 129.156 39.6124 127.778 39.6124 125.347C39.6124 122.929 40.6784 121.538 42.8364 121.538C44.9814 121.538 46.0474 122.929 46.0474 125.347C46.0474 125.503 46.0474 125.646 46.0344 125.789ZM42.8364 122.734C41.6664 122.734 41.1724 123.475 41.0684 124.697H44.5914C44.4874 123.475 43.9804 122.734 42.8364 122.734ZM51.8987 128.207C51.6647 128.779 50.9237 129.156 49.8447 129.156C48.1547 129.156 47.0887 128.324 47.0887 126.842C47.0887 125.373 48.1547 124.528 49.8447 124.528C50.8457 124.528 51.6387 124.866 51.8987 125.464V124.281C51.8987 123.293 51.3787 122.721 50.3257 122.721C49.3897 122.721 48.9087 123.124 48.8047 123.865H47.3617C47.4657 122.422 48.4667 121.538 50.3257 121.538C52.3537 121.538 53.3417 122.617 53.3417 124.281V127.986C53.3417 128.35 53.4067 128.74 53.5107 128.987H52.0417C51.9507 128.792 51.8987 128.519 51.8987 128.207ZM50.2087 127.999C51.3267 127.999 51.9117 127.609 51.9117 126.842C51.9117 126.088 51.3267 125.685 50.2087 125.685C49.1037 125.685 48.5187 126.088 48.5187 126.842C48.5187 127.609 49.1037 127.999 50.2087 127.999ZM58.2964 122.734C57.0744 122.734 56.3204 123.592 56.3204 125.256V128.987H54.9034V121.707H56.3204V122.929C56.6324 122.006 57.2174 121.538 58.3354 121.538C58.5564 121.538 58.8034 121.551 58.9334 121.59L58.9074 122.76C58.7904 122.747 58.5564 122.734 58.2964 122.734ZM62.453 121.538C64.156 121.538 65.17 122.396 65.17 123.67V123.839H63.74V123.657C63.74 123.124 63.298 122.682 62.453 122.682C61.595 122.682 61.153 123.124 61.153 123.644C61.153 124.437 61.803 124.45 63.155 124.736C64.728 125.022 65.443 125.698 65.443 126.959C65.443 128.207 64.325 129.156 62.57 129.156C60.828 129.156 59.684 128.233 59.684 126.959V126.751H61.114V126.959C61.114 127.622 61.699 128.012 62.57 128.012C63.428 128.012 64.013 127.609 64.013 126.998C64.013 126.153 63.337 126.062 62.024 125.789C60.451 125.516 59.736 124.879 59.736 123.67C59.736 122.422 60.737 121.538 62.453 121.538ZM73.5083 127.973C74.8473 127.973 75.2893 126.959 75.2893 125.347C75.2893 123.735 74.8473 122.721 73.5083 122.721C72.1693 122.721 71.7273 123.735 71.7273 125.347C71.7273 126.959 72.1693 127.973 73.5083 127.973ZM73.5083 121.538C75.6533 121.538 76.7193 122.916 76.7193 125.347C76.7193 127.778 75.6533 129.156 73.5083 129.156C71.3503 129.156 70.2843 127.778 70.2843 125.347C70.2843 122.916 71.3503 121.538 73.5083 121.538ZM79.5416 128.987H78.1116V118.795H79.5416V128.987ZM85.9276 122.838V118.795H87.3706V128.987H85.9276V127.856C85.6546 128.649 84.8876 129.156 83.8476 129.156C82.0536 129.156 80.9356 127.96 80.9356 125.347C80.9356 122.734 82.0536 121.538 83.8476 121.538C84.8876 121.538 85.6546 122.045 85.9276 122.838ZM85.9276 125.347C85.9276 123.748 85.4856 122.734 84.1596 122.734C82.8076 122.734 82.3656 123.748 82.3656 125.347C82.3656 126.959 82.8076 127.96 84.1596 127.96C85.4856 127.96 85.9276 126.959 85.9276 125.347Z" fill="black"/>
<defs>
<filter id="filter0_d_2775_188" x="0" y="7" width="174" height="174" filterUnits="userSpaceOnUse" color-interpolation-filters="sRGB">
<feFlood flood-opacity="0" result="BackgroundImageFix"/>
<feColorMatrix in="SourceAlpha" type="matrix" values="0 0 0 0 0 0 0 0 0 0 0 0 0 0 0 0 0 0 127 0" result="hardAlpha"/>
<feOffset dx="4" dy="4"/>
<feGaussianBlur stdDeviation="2"/>
<feComposite in2="hardAlpha" operator="out"/>
<feColorMatrix type="matrix" values="0 0 0 0 0 0 0 0 0 0 0 0 0 0 0 0 0 0 0.25 0"/>
<feBlend mode="normal" in2="BackgroundImageFix" result="effect1_dropShadow_2775_188"/>
<feBlend mode="normal" in="SourceGraphic" in2="effect1_dropShadow_2775_188" result="shape"/>
</filter>
</defs>
</svg>
