<svg width="526" height="400" viewBox="0 0 526 400" fill="none" xmlns="http://www.w3.org/2000/svg">
<path d="M297.927 153.292V142.582L303.329 145.159V155.869L297.927 153.292ZM325.041 187.915L324.798 183.299C324.594 179.602 323.295 177.632 319.883 176.005L315.09 173.719V186.364L308.429 183.187V147.592L321.589 153.869C328.412 157.123 331.987 162.923 331.987 169.718C331.987 174.443 330.037 176.618 326.26 175.941C329.753 178.148 331.174 181.166 331.418 185.962L331.702 191.047C331.784 192.436 331.987 193.613 332.312 194.578L325.569 191.362C325.285 190.461 325.122 189.169 325.041 187.915ZM315.09 167.554L320.411 170.092C323.457 171.545 325.244 171.002 325.244 167.087C325.244 163.217 323.457 160.925 320.411 159.472L315.09 156.934V167.554ZM356.583 195.355L341.595 188.206C341.758 192.379 343.22 195.281 345.941 196.579C348.013 197.567 349.353 197.036 349.718 195.141L356.136 198.202C355.405 203.028 351.749 204.479 345.941 201.709C338.671 198.241 335.259 191.529 335.259 183.249C335.259 175.059 338.671 171.556 345.941 175.024C353.252 178.511 356.623 185.249 356.623 193.439C356.623 194.114 356.623 194.834 356.583 195.355ZM345.941 180.199C343.22 178.901 341.758 180.184 341.636 183.815L350.206 187.903C350.084 184.155 348.622 181.478 345.941 180.199ZM366.602 210.934L360.266 207.911V172.316L366.602 175.339V210.934ZM384.419 216.507C383.729 218.248 381.454 218.648 378.164 217.079C373.331 214.773 370.122 210.228 370.122 205.188C370.122 200.148 373.25 198.579 378.164 200.924C381.089 202.318 383.566 204.715 384.419 207.417V202.782C384.419 200.172 383.282 198.19 380.886 197.047C378.773 196.039 377.636 196.577 377.433 198.46L371.097 195.438C371.463 190.527 374.712 188.747 380.886 191.692C387.465 194.83 390.715 200.25 390.715 205.92V218.79C390.715 220.14 390.958 221.696 391.324 222.725L384.866 219.645C384.622 218.899 384.46 217.651 384.419 216.507ZM380.439 213.393C383.079 214.653 384.46 214.186 384.46 212.026C384.46 209.821 383.119 208.057 380.439 206.778C377.758 205.5 376.458 206.005 376.458 208.21C376.458 210.37 377.839 212.154 380.439 213.393ZM408.179 230.765L403.833 219.782L399.447 226.6L392.867 223.461L399.812 213.724L393.313 198.249L399.934 201.407L403.833 211.502L407.732 205.127L414.312 208.265L407.814 217.541L414.759 233.903L408.179 230.765ZM430.549 238.51C429.858 240.25 427.584 240.651 424.294 239.081C419.461 236.776 416.252 232.23 416.252 227.19C416.252 222.15 419.379 220.582 424.294 222.926C427.218 224.321 429.696 226.718 430.549 229.42V224.785C430.549 222.175 429.412 220.192 427.015 219.049C424.903 218.042 423.766 218.579 423.563 220.463L417.227 217.44C417.592 212.53 420.842 210.75 427.015 213.694C433.595 216.833 436.844 222.253 436.844 227.923V240.793C436.844 242.143 437.088 243.699 437.454 244.728L430.996 241.648C430.752 240.902 430.589 239.654 430.549 238.51ZM426.568 235.396C429.208 236.655 430.589 236.189 430.589 234.029C430.589 231.824 429.249 230.06 426.568 228.781C423.888 227.503 422.588 228.008 422.588 230.213C422.588 232.373 423.969 234.156 426.568 235.396ZM449.11 230.308V241.648C449.11 244.573 449.922 245.635 452.725 246.972L455.08 248.096V253.361C454.228 253.044 452.359 252.198 451.222 251.655C445.129 248.749 442.774 245.556 442.774 239.706V227.286L439.443 225.697V220.252L442.774 221.841V214.641L449.11 217.663V224.863L455.08 227.711V233.156L449.11 230.308ZM458.435 225.261V219.141L464.771 222.163V228.283L458.435 225.261ZM458.435 254.736V229.311L464.771 232.333V257.758L458.435 254.736ZM489.778 256.95C489.778 265.185 486.366 268.688 479.095 265.22C471.785 261.733 468.373 254.976 468.373 246.741C468.373 238.551 471.785 235.048 479.095 238.535C486.366 242.003 489.778 248.76 489.778 256.95ZM483.441 253.928C483.441 248.618 482.264 245.491 479.095 243.98C475.927 242.469 474.709 244.453 474.709 249.763C474.709 255.118 475.927 258.264 479.095 259.775C482.264 261.286 483.441 259.283 483.441 253.928ZM513.606 264.941V281.051L507.27 278.029V262.054C507.27 258.904 506.133 256.877 504.021 255.869C501.34 254.591 499.594 256.008 499.594 260.013V274.368L493.217 271.326V245.901L499.594 248.943V253.173C500.406 250.635 502.721 249.804 506.011 251.373C510.885 253.698 513.606 258.416 513.606 264.941ZM518.342 258.425V247.715L523.744 250.291V261.001L518.342 258.425ZM103.881 128.504L101.075 127.166V111.486L103.881 112.824V128.504ZM103.881 109.856L101.075 108.518V105.214L103.881 106.552V109.856ZM111.999 116.332C115.31 117.911 117.281 120.7 117.281 123.444V123.808L114.501 122.482V122.09C114.501 120.942 113.642 119.58 111.999 118.796C110.331 118.001 109.472 118.543 109.472 119.663C109.472 121.371 110.735 122.002 113.364 123.871C116.422 125.946 117.812 128.065 117.812 130.781C117.812 133.469 115.638 134.476 112.226 132.849C108.84 131.234 106.616 128.185 106.616 125.441V124.993L109.396 126.319V126.767C109.396 128.195 110.533 129.577 112.226 130.385C113.894 131.18 115.032 130.855 115.032 129.539C115.032 127.719 113.718 126.896 111.165 125.091C108.107 123.044 106.717 121.009 106.717 118.405C106.717 115.717 108.663 114.741 111.999 116.332ZM136.473 142.37C136.018 143.385 134.577 143.51 132.48 142.509C129.194 140.942 127.122 138.162 127.122 134.97C127.122 131.806 129.194 130.974 132.48 132.541C134.426 133.469 135.967 134.933 136.473 136.462V133.914C136.473 131.786 135.462 130.072 133.415 129.095C131.595 128.227 130.66 128.649 130.458 130.149L127.653 128.811C127.855 125.799 129.801 124.823 133.415 126.547C137.357 128.428 139.278 131.668 139.278 135.252V143.232C139.278 144.016 139.405 144.916 139.607 145.545L136.751 144.182C136.574 143.678 136.473 143.042 136.473 142.37ZM133.188 140.355C135.361 141.391 136.498 141.094 136.498 139.442C136.498 137.818 135.361 136.407 133.188 135.371C131.039 134.346 129.902 134.672 129.902 136.296C129.902 137.948 131.039 139.33 133.188 140.355ZM159.171 139.196L162.103 140.595L156.922 153.803L153.687 152.26L148.506 134.109L151.438 135.508L155.304 149.644L159.171 139.196ZM175.815 155.927L166.135 151.31C166.236 154.298 167.273 156.528 169.648 157.662C171.417 158.505 172.479 158.06 172.681 156.616L175.537 157.978C175.082 160.925 173.035 161.853 169.648 160.238C165.403 158.212 163.33 154.256 163.33 149.02C163.33 143.812 165.403 141.804 169.598 143.805C173.768 145.794 175.84 149.779 175.84 154.987C175.84 155.323 175.84 155.631 175.815 155.927ZM169.598 146.381C167.323 145.297 166.363 146.435 166.161 148.97L173.009 152.237C172.807 149.508 171.822 147.442 169.598 146.381ZM185.042 153.748C182.666 152.615 181.2 153.764 181.2 157.348V165.384L178.446 164.07V148.39L181.2 149.704V152.336C181.807 150.637 182.944 150.171 185.118 151.208C185.547 151.413 186.027 151.67 186.28 151.875L186.23 154.37C186.002 154.234 185.547 153.989 185.042 153.748ZM191.682 172.903L192.491 170.825L187.057 152.497L189.963 153.883L193.906 167.636L197.747 157.596L200.654 158.982L194.209 175.061C193.274 177.386 192.01 177.372 189.913 176.371C189.534 176.19 189.079 175.973 188.75 175.789V173.269L189.685 173.715C190.595 174.149 191.227 174.114 191.682 172.903ZM212.843 180.476L210.038 179.138V163.458L212.843 164.796V180.476ZM212.843 161.828L210.038 160.49V157.186L212.843 158.524V161.828ZM227.532 178.999V187.483L224.727 186.145V176.009C224.727 173.741 223.868 172.239 222.175 171.431C220.203 170.491 218.788 171.496 218.788 174.8V183.312L216.033 181.998V166.318L218.788 167.632V170.208C219.42 168.717 220.734 168.196 222.832 169.197C224.929 170.197 226.471 172.081 227.077 174.358C227.861 172.604 229.377 172.319 231.525 173.343C234.558 174.79 236.251 177.81 236.251 181.618V191.642L233.446 190.304V180.168C233.446 177.9 232.562 176.386 230.894 175.59C228.922 174.65 227.532 175.723 227.532 178.999ZM241.987 178.698V181.134C242.543 179.691 244.034 179.31 246.056 180.274C249.544 181.938 251.717 185.55 251.717 191.178C251.717 196.806 249.544 198.346 246.056 196.682C244.034 195.718 242.543 193.915 241.987 191.942V201.21L239.233 199.896V177.384L241.987 178.698ZM245.475 193.857C248.053 195.087 248.912 193.312 248.912 189.84C248.912 186.368 248.053 183.775 245.475 182.545C242.847 181.291 241.987 183.066 241.987 186.538C241.987 190.01 242.847 192.603 245.475 193.857ZM260.1 200.833C262.703 202.074 263.562 200.3 263.562 196.828C263.562 193.356 262.703 190.762 260.1 189.521C257.496 188.279 256.637 190.053 256.637 193.525C256.637 196.997 257.496 199.591 260.1 200.833ZM260.1 186.973C264.269 188.962 266.342 192.918 266.342 198.154C266.342 203.39 264.269 205.37 260.1 203.381C255.904 201.38 253.832 197.423 253.832 192.187C253.832 186.951 255.904 184.972 260.1 186.973ZM275.544 196.915C273.168 195.782 271.702 196.931 271.702 200.515V208.551L268.947 207.237V191.557L271.702 192.871V195.503C272.309 193.804 273.446 193.339 275.619 194.375C276.049 194.58 276.529 194.837 276.782 195.042L276.731 197.538C276.504 197.401 276.049 197.156 275.544 196.915ZM282.613 200.623V208.995C282.613 210.955 283.27 211.745 285.039 212.588L286.455 213.263V215.727C286 215.594 285.166 215.197 284.559 214.907C281.249 213.328 279.833 211.589 279.833 208.229V199.297L277.786 198.321V195.773L279.833 196.749V192.297L282.613 193.623V198.075L286.455 199.907V202.455L282.613 200.623ZM297.634 219.24C297.179 220.255 295.738 220.379 293.641 219.379C290.355 217.812 288.283 215.031 288.283 211.839C288.283 208.675 290.355 207.844 293.641 209.411C295.587 210.339 297.128 211.802 297.634 213.332V210.784C297.634 208.656 296.623 206.941 294.576 205.965C292.756 205.097 291.821 205.519 291.619 207.019L288.814 205.681C289.016 202.669 290.962 201.693 294.576 203.417C298.518 205.297 300.439 208.538 300.439 212.122V220.102C300.439 220.886 300.565 221.786 300.768 222.414L297.912 221.052C297.735 220.548 297.634 219.912 297.634 219.24ZM294.348 217.224C296.522 218.261 297.659 217.964 297.659 216.312C297.659 214.688 296.522 213.277 294.348 212.24C292.2 211.216 291.063 211.541 291.063 213.165C291.063 214.817 292.2 216.2 294.348 217.224ZM315.403 219.595V229.395L312.598 228.057V218.481C312.598 215.765 311.613 214.091 309.793 213.223C307.771 212.259 306.23 213.288 306.23 216.536V225.02L303.475 223.706V208.026L306.23 209.34V211.972C306.887 210.465 308.327 209.976 310.475 211.001C313.634 212.507 315.403 215.591 315.403 219.595ZM322.151 219.482V227.854C322.151 229.814 322.808 230.603 324.577 231.447L325.992 232.122V234.586C325.537 234.453 324.703 234.055 324.097 233.766C320.786 232.187 319.371 230.448 319.371 227.088V218.156L317.324 217.179V214.631L319.371 215.608V211.156L322.151 212.482V216.934L325.992 218.766V221.314L322.151 219.482ZM347.761 237.941L338.081 233.324C338.183 236.312 339.219 238.543 341.594 239.676C343.363 240.519 344.425 240.074 344.627 238.63L347.483 239.992C347.028 242.939 344.981 243.867 341.594 242.252C337.349 240.227 335.276 236.27 335.276 231.034C335.276 225.826 337.349 223.819 341.544 225.82C345.714 227.809 347.786 231.793 347.786 237.001C347.786 237.337 347.786 237.645 347.761 237.941ZM341.544 228.396C339.269 227.311 338.309 228.449 338.107 230.984L344.956 234.251C344.753 231.522 343.768 229.456 341.544 228.396ZM353.273 247.458L350.493 246.132V224.18L353.273 225.506V247.458ZM368.467 247.817L358.788 243.201C358.889 246.189 359.925 248.419 362.301 249.552C364.07 250.396 365.131 249.95 365.334 248.507L368.189 249.869C367.734 252.816 365.687 253.743 362.301 252.128C358.055 250.103 355.983 246.147 355.983 240.911C355.983 235.703 358.055 233.695 362.25 235.696C366.42 237.685 368.493 241.669 368.493 246.877C368.493 247.213 368.493 247.521 368.467 247.817ZM362.25 238.272C359.976 237.187 359.015 238.325 358.813 240.861L365.662 244.127C365.46 241.399 364.474 239.333 362.25 238.272ZM382.597 252.961V261.445L379.792 260.107V249.971C379.792 247.703 378.933 246.201 377.239 245.394C375.268 244.453 373.853 245.458 373.853 248.762V257.274L371.098 255.96V240.28L373.853 241.594V244.17C374.485 242.68 375.799 242.158 377.897 243.159C379.994 244.159 381.536 246.043 382.142 248.32C382.926 246.566 384.442 246.281 386.59 247.306C389.623 248.752 391.316 251.772 391.316 255.58V265.604L388.511 264.266V254.13C388.511 251.862 387.626 250.348 385.958 249.552C383.987 248.612 382.597 249.685 382.597 252.961ZM406.302 265.864L396.623 261.247C396.724 264.235 397.76 266.465 400.135 267.598C401.904 268.442 402.966 267.996 403.168 266.553L406.024 267.915C405.569 270.862 403.522 271.79 400.135 270.174C395.89 268.149 393.817 264.193 393.817 258.957C393.817 253.749 395.89 251.741 400.085 253.742C404.255 255.731 406.327 259.716 406.327 264.924C406.327 265.26 406.327 265.568 406.302 265.864ZM400.085 256.318C397.81 255.233 396.85 256.371 396.648 258.907L403.497 262.174C403.294 259.445 402.309 257.379 400.085 256.318ZM420.861 269.896V279.696L418.056 278.358V268.782C418.056 266.066 417.07 264.392 415.251 263.524C413.229 262.56 411.687 263.588 411.687 266.836V275.32L408.933 274.006V258.326L411.687 259.64V262.272C412.345 260.766 413.785 260.277 415.933 261.301C419.092 262.808 420.861 265.892 420.861 269.896ZM427.609 269.782V278.154C427.609 280.114 428.266 280.904 430.035 281.748L431.45 282.423V284.887C430.995 284.754 430.161 284.356 429.555 284.067C426.244 282.487 424.829 280.748 424.829 277.388V268.456L422.782 267.48V264.932L424.829 265.908V261.456L427.609 262.782V267.234L431.45 269.067V271.615L427.609 269.782ZM448.847 273.416L447.507 272.777C445.763 271.946 445.258 272.293 445.258 273.945V275.653L448.847 277.364V279.912L445.258 278.201V291.333L442.478 290.007V276.875L440.456 275.91V273.362L442.478 274.327V272.479C442.478 269.063 443.817 268.47 447.128 270.049C447.709 270.326 448.265 270.619 448.847 271.008V273.416ZM456.429 294.477C459.033 295.719 459.892 293.945 459.892 290.473C459.892 287.001 459.033 284.407 456.429 283.165C453.826 281.924 452.967 283.698 452.967 287.17C452.967 290.642 453.826 293.236 456.429 294.477ZM456.429 280.617C460.599 282.606 462.672 286.563 462.672 291.799C462.672 297.035 460.599 299.014 456.429 297.025C452.234 295.024 450.162 291.068 450.162 285.832C450.162 280.596 452.234 278.616 456.429 280.617ZM471.873 290.56C469.498 289.427 468.032 290.575 468.032 294.159V302.195L465.277 300.881V285.201L468.032 286.515V289.147C468.639 287.449 469.776 286.983 471.949 288.02C472.379 288.225 472.859 288.482 473.112 288.686L473.061 291.182C472.834 291.046 472.379 290.801 471.873 290.56ZM493.88 306.04V314.524L491.074 313.186V303.05C491.074 300.782 490.215 299.28 488.522 298.472C486.551 297.532 485.135 298.537 485.135 301.841V310.353L482.381 309.039V293.359L485.135 294.673V297.249C485.767 295.759 487.081 295.237 489.179 296.238C491.277 297.238 492.818 299.122 493.425 301.399C494.208 299.645 495.724 299.36 497.873 300.385C500.905 301.831 502.599 304.851 502.599 308.659V318.683L499.793 317.345V307.209C499.793 304.941 498.909 303.427 497.241 302.631C495.27 301.691 493.88 302.764 493.88 306.04ZM517.584 318.943L507.905 314.326C508.006 317.314 509.042 319.544 511.418 320.677C513.187 321.521 514.248 321.075 514.451 319.632L517.306 320.994C516.851 323.941 514.804 324.869 511.418 323.253C507.172 321.228 505.1 317.272 505.1 312.036C505.1 306.828 507.172 304.82 511.367 306.821C515.537 308.81 517.61 312.795 517.61 318.003C517.61 318.339 517.61 318.647 517.584 318.943ZM511.367 309.397C509.093 308.312 508.132 309.45 507.93 311.986L514.779 315.253C514.577 312.524 513.591 310.458 511.367 309.397ZM524.132 325.23V328.954L520.999 327.459V323.735L524.132 325.23ZM32.8116 109.568V108.671L43.6688 113.849V114.746L38.6866 112.37V129.344L37.7939 128.918V111.944L32.8116 109.568ZM46.4619 133.053L45.6108 132.647V114.776L46.4619 115.182V123.232C47.064 121.564 48.5171 120.969 50.6554 121.989C53.2711 123.237 54.7035 125.852 54.7035 129.141V136.984L53.8731 136.588V128.998C53.8731 125.893 52.7105 123.82 50.5308 122.78C48.2057 121.671 46.5242 122.985 46.4619 126.636V133.053ZM58.7705 138.924L57.9194 138.518V125.753L58.7705 126.159V138.924ZM58.7705 123.238L57.9194 122.832V120.647L58.7705 121.053V123.238ZM69.6303 134.443V134.903L68.7792 134.498V134.038C68.7792 132.566 67.6374 130.94 65.6237 129.979C63.6101 129.019 62.4891 129.565 62.4891 131.037C62.4891 132.463 63.2779 133.53 65.1878 134.878C68.6546 137.175 70.0455 138.667 70.0455 141.013C70.0455 143.152 68.3432 143.789 65.7898 142.571C63.2779 141.373 61.5341 139.115 61.5341 136.953V136.493L62.3853 136.899V137.359C62.3853 139.038 63.8177 140.779 65.7898 141.72C67.762 142.66 69.1944 142.286 69.1944 140.607C69.1944 139.158 68.447 137.996 66.4541 136.632C62.9665 134.163 61.6379 133.023 61.6379 130.631C61.6379 128.722 63.0911 127.92 65.6237 129.128C68.1356 130.327 69.6303 132.511 69.6303 134.443ZM88.1649 146.573C88.1649 150.828 86.5872 152.491 83.4318 150.985C81.3143 149.975 79.9857 148.238 79.446 146.301V154.351L78.5948 153.945V135.614L79.446 136.02V138.527C79.9857 137.083 81.3143 136.612 83.4318 137.622C86.5872 139.128 88.1649 142.318 88.1649 146.573ZM87.3138 146.167C87.3138 142.395 86.0682 139.731 83.3903 138.454C80.6708 137.157 79.446 138.642 79.446 142.414C79.446 146.186 80.6708 148.818 83.3903 150.115C86.0682 151.392 87.3138 149.939 87.3138 146.167ZM91.7951 154.676L90.944 154.27V141.505L91.7951 141.911V154.676ZM91.7951 138.99L90.944 138.584V136.399L91.7951 136.805V138.99ZM103.008 156.367L103.88 156.783C103.444 159.059 101.928 159.808 99.3541 158.58C96.0949 157.025 94.5587 153.763 94.5587 149.623C94.5587 145.483 96.0949 143.662 99.3541 145.217C102.613 146.772 104.129 150.047 104.129 154.187V154.44L95.4098 150.282C95.4514 153.912 96.6969 156.462 99.3541 157.729C101.451 158.729 102.634 158.143 103.008 156.367ZM99.3541 146.068C96.8007 144.85 95.5552 146.142 95.4306 149.441L103.257 153.174C103.132 149.756 101.887 147.276 99.3541 146.068ZM106.358 155.251C106.358 151.065 107.873 149.281 111.133 150.835C113.831 152.122 115.409 154.485 115.7 157.314L114.849 156.909C114.579 154.595 113.333 152.736 111.133 151.686C108.434 150.399 107.209 151.816 107.209 155.657C107.209 159.475 108.434 162.06 111.133 163.347C113.333 164.397 114.579 163.726 114.849 161.67L115.7 162.075C115.409 164.628 113.831 165.485 111.133 164.198C107.873 162.644 106.358 159.414 106.358 155.251ZM126.241 167.448L127.112 167.864C126.677 170.14 125.161 170.889 122.587 169.661C119.328 168.107 117.791 164.844 117.791 160.704C117.791 156.564 119.328 154.744 122.587 156.298C125.846 157.853 127.362 161.129 127.362 165.269V165.522L118.643 161.363C118.684 164.994 119.93 167.543 122.587 168.81C124.684 169.811 125.867 169.225 126.241 167.448ZM122.587 157.149C120.033 155.932 118.788 157.223 118.663 160.522L126.49 164.255C126.365 160.838 125.12 158.357 122.587 157.149ZM135.592 169.194C135.592 165.008 137.107 163.224 140.366 164.779C143.065 166.066 144.643 168.429 144.933 171.258L144.082 170.852C143.812 168.538 142.567 166.679 140.366 165.63C137.668 164.343 136.443 165.759 136.443 169.6C136.443 173.418 137.668 176.004 140.366 177.291C142.567 178.34 143.812 177.669 144.082 175.613L144.933 176.019C144.643 178.572 143.065 179.429 140.366 178.142C137.107 176.587 135.592 173.357 135.592 169.194ZM155.492 181.309C155.492 179.354 154.247 177.518 151.693 176.3C149.119 175.072 147.894 175.73 147.894 177.685C147.894 179.64 149.119 181.466 151.693 182.694C154.247 183.912 155.492 183.264 155.492 181.309ZM156.344 176.931V183.693C156.344 184.337 156.447 185.03 156.634 185.602L155.762 185.186C155.555 184.627 155.492 184.023 155.492 183.448C154.953 184.363 153.624 184.465 151.548 183.475C148.642 182.089 147.043 179.763 147.043 177.279C147.043 174.818 148.642 173.97 151.548 175.356C153.624 176.346 154.953 177.762 155.492 179.17V176.479C155.492 174.294 154.268 172.26 151.922 171.142C149.638 170.052 148.58 170.789 148.393 172.517L147.542 172.111C147.749 169.91 149.14 168.964 151.922 170.291C154.787 171.657 156.344 174.148 156.344 176.931ZM168.892 185.078C168.892 189.333 167.314 190.995 164.159 189.49C162.041 188.48 160.712 186.742 160.173 184.806V192.856L159.322 192.45V174.119L160.173 174.525V177.032C160.712 175.587 162.041 175.117 164.159 176.127C167.314 177.632 168.892 180.823 168.892 185.078ZM168.041 184.672C168.041 180.9 166.795 178.236 164.117 176.958C161.398 175.661 160.173 177.147 160.173 180.919C160.173 184.691 161.398 187.322 164.117 188.619C166.795 189.897 168.041 188.444 168.041 184.672ZM173.004 181.496V190.006C173.004 192.191 173.897 193.169 175.558 193.961L176.679 194.496V195.324C176.243 195.139 175.848 194.951 175.495 194.782C173.233 193.703 172.153 192.36 172.153 189.715V181.09L170.368 180.239V179.388L172.153 180.239V176.605L173.004 177.011V180.645L176.679 182.398V183.249L173.004 181.496ZM179.816 183.894V191.507C179.816 194.612 180.958 196.652 183.138 197.692C185.463 198.801 187.165 197.52 187.207 193.859V187.419L188.058 187.825V200.59L187.207 200.184V197.263C186.605 198.908 185.151 199.503 183.034 198.493C180.397 197.236 178.965 194.62 178.965 191.354V183.488L179.816 183.894ZM195.633 191.991C193.411 190.931 192.062 192.173 192.062 196.129V202.5L191.232 202.104V189.339L192.062 189.735V192.541C192.56 190.709 193.764 190.248 195.633 191.14C195.944 191.288 196.255 191.46 196.442 191.618L196.421 192.436C196.235 192.301 195.923 192.129 195.633 191.991ZM206.156 205.566L207.028 205.982C206.592 208.258 205.077 209.007 202.503 207.779C199.243 206.225 197.707 202.962 197.707 198.822C197.707 194.682 199.243 192.862 202.503 194.416C205.762 195.971 207.277 199.247 207.277 203.387V203.64L198.558 199.481C198.6 203.112 199.846 205.661 202.503 206.928C204.599 207.928 205.783 207.343 206.156 205.566ZM202.503 195.267C199.949 194.049 198.704 195.341 198.579 198.64L206.405 202.373C206.281 198.955 205.035 196.475 202.503 195.267ZM217.582 205.013V205.473L216.731 205.067V204.607C216.731 203.135 215.589 201.509 213.575 200.549C211.562 199.588 210.441 200.135 210.441 201.607C210.441 203.033 211.23 204.099 213.14 205.447C216.606 207.744 217.997 209.236 217.997 211.582C217.997 213.721 216.295 214.358 213.742 213.14C211.23 211.942 209.486 209.684 209.486 207.522V207.062L210.337 207.468V207.928C210.337 209.607 211.769 211.348 213.742 212.289C215.714 213.23 217.146 212.855 217.146 211.176C217.146 209.727 216.399 208.565 214.406 207.201C210.918 204.732 209.59 203.593 209.59 201.201C209.59 199.292 211.043 198.49 213.575 199.698C216.087 200.896 217.582 203.081 217.582 205.013ZM241.576 226.118V217.654C241.576 215.147 240.476 213.38 238.566 212.469C236.49 211.479 234.913 212.819 234.913 216.706V222.939L234.061 222.533V214.069C234.061 211.562 232.961 209.795 231.051 208.884C228.996 207.904 227.398 209.235 227.398 213.122V219.355L226.567 218.959V206.194L227.398 206.59V209.511C227.937 207.744 229.245 207.172 231.155 208.083C233.107 209.014 234.456 210.83 234.767 213.164C235.349 211.44 236.615 210.687 238.67 211.667C241.037 212.796 242.428 215.047 242.428 217.968V226.524L241.576 226.118ZM247.771 232.154L248.871 229.62L244.159 214.584L245.072 215.02L249.328 228.665L253.563 219.07L254.497 219.515L248.56 232.783C247.854 234.31 247.148 234.341 245.757 233.678C245.57 233.589 245.487 233.549 245.342 233.457V232.629L245.716 232.807C246.774 233.312 247.273 233.297 247.771 232.154ZM271.603 234.069C271.603 238.186 270.109 240.026 266.829 238.461C263.569 236.907 262.054 233.631 262.054 229.514C262.054 225.374 263.569 223.544 266.829 225.098C270.109 226.663 271.603 229.929 271.603 234.069ZM270.752 233.663C270.752 229.891 269.548 227.246 266.829 225.949C264.13 224.662 262.905 226.148 262.905 229.92C262.905 233.669 264.13 236.323 266.829 237.61C269.548 238.907 270.752 237.412 270.752 233.663ZM281.122 232.215L282.056 232.66L285.668 245.929L289.281 236.106L290.173 236.532L286.125 247.366L285.212 246.931L281.6 233.685L277.967 243.475L277.053 243.039L273.005 228.343L273.919 228.779L277.531 242.048L281.122 232.215ZM292.981 250.636L292.129 250.23V237.465L292.981 237.871V240.815C293.583 239.147 295.036 238.552 297.174 239.572C299.79 240.82 301.222 243.435 301.222 246.724V254.567L300.392 254.171V246.581C300.392 243.476 299.229 241.404 297.049 240.364C294.724 239.255 293.043 240.569 292.981 244.219V250.636ZM315.628 244.257L314.611 243.772C312.68 242.851 312.161 243.179 312.161 245.295V247.02L315.628 248.673V249.524L312.161 247.871V259.785L311.31 259.379V247.465L309.566 246.633V245.782L311.31 246.614V244.797C311.31 242.175 312.161 241.73 314.569 242.878C314.943 243.057 315.275 243.238 315.628 243.429V244.257ZM325.523 262.501L326.395 262.917C325.959 265.193 324.444 265.942 321.87 264.714C318.61 263.16 317.074 259.897 317.074 255.757C317.074 251.617 318.61 249.797 321.87 251.351C325.129 252.906 326.644 256.182 326.644 260.322V260.575L317.925 256.416C317.967 260.047 319.212 262.596 321.87 263.863C323.966 264.864 325.15 264.278 325.523 262.501ZM321.87 252.202C319.316 250.985 318.071 252.276 317.946 255.575L325.772 259.308C325.648 255.891 324.402 253.41 321.87 252.202ZM337.302 268.119L338.174 268.535C337.738 270.811 336.222 271.56 333.648 270.333C330.389 268.778 328.853 265.515 328.853 261.375C328.853 257.235 330.389 255.415 333.648 256.97C336.907 258.524 338.423 261.8 338.423 265.94V266.193L329.704 262.034C329.745 265.665 330.991 268.214 333.648 269.482C335.745 270.482 336.928 269.896 337.302 268.119ZM333.648 257.821C331.095 256.603 329.849 257.895 329.725 261.193L337.551 264.926C337.426 261.509 336.181 259.029 333.648 257.821ZM342.084 274.057L341.233 273.651V255.78L342.084 256.186V274.057ZM346.301 276.069L345.45 275.663V262.898L346.301 263.304V276.069ZM346.301 260.383L345.45 259.977V257.792L346.301 258.198V260.383ZM350.393 278.021L349.542 277.615V264.85L350.393 265.256V268.2C350.995 266.532 352.449 265.937 354.587 266.957C357.203 268.204 358.635 270.82 358.635 274.109V281.952L357.805 281.556V273.966C357.805 270.861 356.642 268.788 354.462 267.748C352.137 266.639 350.456 267.953 350.393 271.604V278.021ZM369.988 280.996C369.988 277.224 368.763 274.57 366.065 273.282C363.366 271.995 362.12 273.471 362.12 277.243C362.12 281.015 363.366 283.656 366.065 284.943C368.763 286.231 369.988 284.768 369.988 280.996ZM361.996 285.74L362.826 286.136C363.096 288.035 364.404 289.763 366.355 290.694C368.597 291.763 369.988 290.886 369.988 288.218V284.883C369.469 286.314 368.141 286.785 366.023 285.775C362.847 284.26 361.269 281.092 361.269 276.837C361.269 272.582 362.847 270.897 366.023 272.412C368.141 273.422 369.469 275.159 369.988 277.109V274.602L370.839 275.008V288.578C370.839 291.683 369.262 292.954 366.355 291.568C363.76 290.33 362.266 288.076 361.996 285.74ZM381.59 283.241V283.701L380.739 283.295V282.835C380.739 281.363 379.597 279.737 377.583 278.777C375.57 277.816 374.449 278.362 374.449 279.834C374.449 281.26 375.238 282.327 377.147 283.675C380.614 285.972 382.005 287.464 382.005 289.81C382.005 291.949 380.303 292.586 377.749 291.368C375.238 290.17 373.494 287.912 373.494 285.75V285.29L374.345 285.696V286.156C374.345 287.835 375.777 289.576 377.749 290.517C379.722 291.457 381.154 291.083 381.154 289.404C381.154 287.955 380.407 286.793 378.414 285.429C374.926 282.96 373.598 281.82 373.598 279.428C373.598 277.519 375.051 276.718 377.583 277.926C380.095 279.124 381.59 281.309 381.59 283.241ZM398.443 297.19C398.443 295.235 397.197 293.399 394.644 292.181C392.07 290.953 390.845 291.611 390.845 293.566C390.845 295.521 392.07 297.347 394.644 298.575C397.197 299.793 398.443 299.145 398.443 297.19ZM399.294 292.812V299.574C399.294 300.218 399.398 300.912 399.585 301.484L398.713 301.068C398.505 300.509 398.443 299.904 398.443 299.329C397.903 300.245 396.575 300.347 394.499 299.357C391.592 297.971 389.994 295.644 389.994 293.16C389.994 290.699 391.592 289.852 394.499 291.238C396.575 292.228 397.903 293.644 398.443 295.051V292.36C398.443 290.175 397.218 288.142 394.872 287.023C392.589 285.934 391.53 286.671 391.343 288.399L390.492 287.993C390.7 285.792 392.091 284.845 394.872 286.172C397.737 287.538 399.294 290.029 399.294 292.812ZM411.842 300.959C411.842 305.214 410.265 306.877 407.109 305.372C404.992 304.362 403.663 302.624 403.123 300.687V303.171L402.272 302.766V284.895L403.123 285.3V292.913C403.663 291.469 404.992 290.999 407.109 292.009C410.265 293.514 411.842 296.704 411.842 300.959ZM410.991 300.553C410.991 296.781 409.746 294.117 407.068 292.84C404.348 291.543 403.123 293.028 403.123 296.8C403.123 300.572 404.348 303.204 407.068 304.501C409.746 305.778 410.991 304.325 410.991 300.553ZM423.589 306.562C423.589 310.679 422.095 312.519 418.815 310.955C415.555 309.4 414.04 306.124 414.04 302.007C414.04 297.867 415.555 296.037 418.815 297.592C422.095 299.156 423.589 302.422 423.589 306.562ZM422.738 306.156C422.738 302.384 421.534 299.74 418.815 298.443C416.116 297.156 414.891 298.641 414.891 302.413C414.891 306.162 416.116 308.817 418.815 310.104C421.534 311.401 422.738 309.905 422.738 306.156ZM427.085 301.836V309.449C427.085 312.554 428.227 314.593 430.406 315.633C432.731 316.742 434.434 315.461 434.475 311.801V305.361L435.326 305.767V318.532L434.475 318.126V315.205C433.873 316.849 432.42 317.444 430.303 316.434C427.666 315.177 426.234 312.562 426.234 309.296V301.43L427.085 301.836ZM440.14 308.914V317.424C440.14 319.609 441.033 320.586 442.694 321.379L443.815 321.913V322.741C443.379 322.556 442.984 322.368 442.631 322.2C440.369 321.121 439.289 319.778 439.289 317.133V308.508L437.504 307.656V306.805L439.289 307.657V304.023L440.14 304.429V308.063L443.815 309.815V310.666L440.14 308.914ZM453.804 315.431V323.941C453.804 326.126 454.697 327.104 456.358 327.896L457.479 328.431V329.259C457.043 329.074 456.648 328.886 456.295 328.717C454.033 327.638 452.953 326.295 452.953 323.65V315.025L451.168 314.174V313.323L452.953 314.174V310.54L453.804 310.946V314.58L457.479 316.333V317.184L453.804 315.431ZM467.695 330.222C467.695 328.267 466.45 326.431 463.896 325.213C461.322 323.985 460.097 324.643 460.097 326.598C460.097 328.553 461.322 330.379 463.896 331.607C466.45 332.825 467.695 332.177 467.695 330.222ZM468.546 325.844V332.606C468.546 333.25 468.65 333.943 468.837 334.515L467.965 334.099C467.758 333.54 467.695 332.936 467.695 332.361C467.156 333.276 465.827 333.379 463.751 332.388C460.845 331.002 459.246 328.676 459.246 326.192C459.246 323.731 460.845 322.883 463.751 324.269C465.827 325.26 467.156 326.675 467.695 328.083V325.392C467.695 323.207 466.47 321.174 464.125 320.055C461.841 318.965 460.782 319.702 460.596 321.43L459.744 321.024C459.952 318.823 461.343 317.877 464.125 319.204C466.989 320.57 468.546 323.061 468.546 325.844ZM472.376 336.203L471.545 335.807V317.936L472.376 318.332V329.119L474.036 329.911L478.375 326.3L479.413 326.795L474.763 330.672L479.953 339.817L478.873 339.302L474.016 330.775L472.376 329.993V336.203ZM482.616 341.088L481.765 340.682V327.917L482.616 328.323V341.088ZM482.616 325.402L481.765 324.996V322.811L482.616 323.217V325.402ZM486.709 343.04L485.857 342.634V329.869L486.709 330.275V333.219C487.311 331.551 488.764 330.956 490.902 331.976C493.518 333.223 494.95 335.839 494.95 339.128V346.971L494.12 346.575V338.985C494.12 335.88 492.957 333.807 490.777 332.767C488.452 331.658 486.771 332.972 486.709 336.623V343.04ZM506.303 346.015C506.303 342.243 505.078 339.589 502.38 338.301C499.681 337.014 498.435 338.49 498.435 342.262C498.435 346.034 499.681 348.675 502.38 349.962C505.078 351.25 506.303 349.787 506.303 346.015ZM498.311 350.759L499.141 351.155C499.411 353.054 500.719 354.782 502.67 355.713C504.912 356.782 506.303 355.905 506.303 353.237V349.902C505.784 351.333 504.456 351.803 502.338 350.794C499.162 349.279 497.584 346.111 497.584 341.856C497.584 337.601 499.162 335.916 502.338 337.431C504.456 338.44 505.784 340.178 506.303 342.128V339.621L507.154 340.027V353.597C507.154 356.702 505.577 357.973 502.67 356.587C500.075 355.349 498.581 353.095 498.311 350.759ZM524.176 357.161C524.176 355.206 522.93 353.37 520.377 352.152C517.802 350.925 516.578 351.582 516.578 353.537C516.578 355.492 517.802 357.319 520.377 358.546C522.93 359.764 524.176 359.116 524.176 357.161ZM525.027 352.783V359.545C525.027 360.189 525.131 360.883 525.317 361.455L524.445 361.039C524.238 360.48 524.176 359.875 524.176 359.3C523.636 360.216 522.307 360.318 520.231 359.328C517.325 357.942 515.727 355.615 515.727 353.131C515.727 350.67 517.325 349.823 520.231 351.209C522.307 352.199 523.636 353.615 524.176 355.022V352.331C524.176 350.146 522.951 348.113 520.605 346.994C518.321 345.905 517.263 346.642 517.076 348.37L516.225 347.964C516.432 345.763 517.823 344.817 520.605 346.143C523.47 347.51 525.027 350 525.027 352.783ZM9.60741 141.103C9.60741 145.358 8.02969 147.02 4.87426 145.515C2.75679 144.505 1.42818 142.768 0.888439 140.831V143.315L0.0373007 142.909V125.038L0.888439 125.444V133.057C1.42818 131.613 2.75679 131.142 4.87426 132.152C8.02969 133.657 9.60741 136.848 9.60741 141.103ZM8.75628 140.697C8.75628 136.925 7.51071 134.261 4.83274 132.984C2.11325 131.686 0.888439 133.172 0.888439 136.944C0.888439 140.716 2.11325 143.347 4.83274 144.645C7.51071 145.922 8.75628 144.469 8.75628 140.697ZM16.6836 138.636C14.4624 137.577 13.113 138.819 13.113 142.775V149.146L12.2826 148.75V135.985L13.113 136.381V139.187C13.6112 137.355 14.8153 136.894 16.6836 137.785C16.995 137.934 17.3064 138.105 17.4933 138.263L17.4725 139.081C17.2857 138.946 16.9743 138.775 16.6836 138.636ZM27.2074 152.212L28.0793 152.628C27.6433 154.904 26.1279 155.653 23.5537 154.425C20.2945 152.87 18.7583 149.608 18.7583 145.468C18.7583 141.328 20.2945 139.507 23.5537 141.062C26.813 142.617 28.3284 145.892 28.3284 150.032V150.285L19.6094 146.127C19.6509 149.758 20.8965 152.307 23.5537 153.574C25.6504 154.574 26.8337 153.989 27.2074 152.212ZM23.5537 141.913C21.0003 140.695 19.7547 141.987 19.6302 145.286L27.4565 149.019C27.3319 145.601 26.0864 143.121 23.5537 141.913ZM38.9029 157.698C38.9029 155.743 37.6573 153.907 35.1039 152.689C32.5298 151.461 31.3049 152.119 31.3049 154.074C31.3049 156.029 32.5298 157.855 35.1039 159.083C37.6573 160.301 38.9029 159.653 38.9029 157.698ZM39.754 153.32V160.082C39.754 160.726 39.8578 161.42 40.0447 161.992L39.1728 161.576C38.9652 161.017 38.9029 160.412 38.9029 159.837C38.3632 160.753 37.0346 160.855 34.9586 159.865C32.0523 158.479 30.4538 156.152 30.4538 153.668C30.4538 151.207 32.0523 150.36 34.9586 151.746C37.0346 152.736 38.3632 154.152 38.9029 155.559V152.868C38.9029 150.683 37.6781 148.65 35.3323 147.531C33.0487 146.442 31.99 147.179 31.8032 148.907L30.952 148.501C31.1596 146.3 32.5505 145.353 35.3323 146.68C38.1971 148.047 39.754 150.537 39.754 153.32ZM43.5832 163.68L42.7528 163.284V145.413L43.5832 145.809V156.596L45.2439 157.388L49.5827 153.776L50.6207 154.271L45.9705 158.148L51.1604 167.294L50.0809 166.779L45.2232 158.252L43.5832 157.47V163.68ZM64.1427 156.305L63.1255 155.82C61.1948 154.899 60.6759 155.226 60.6759 157.342V159.067L64.1427 160.721V161.572L60.6759 159.918V171.832L59.8247 171.426V159.512L58.0809 158.681V157.83L59.8247 158.661V156.844C59.8247 154.222 60.6759 153.777 63.084 154.926C63.4576 155.104 63.7898 155.286 64.1427 155.477V156.305ZM70.6907 164.396C68.4694 163.337 67.12 164.579 67.12 168.535V174.906L66.2897 174.51V161.745L67.12 162.141V164.947C67.6183 163.115 68.8223 162.654 70.6907 163.545C71.0021 163.694 71.3135 163.865 71.5003 164.023L71.4795 164.842C71.2927 164.706 70.9813 164.535 70.6907 164.396ZM82.3354 175.793C82.3354 179.91 80.8408 181.75 77.5608 180.185C74.3015 178.631 72.7861 175.355 72.7861 171.238C72.7861 167.098 74.3015 165.268 77.5608 166.822C80.8408 168.387 82.3354 171.653 82.3354 175.793ZM81.4843 175.387C81.4843 171.615 80.2802 168.97 77.5608 167.673C74.862 166.386 73.6372 167.872 73.6372 171.644C73.6372 175.393 74.862 178.047 77.5608 179.334C80.2802 180.631 81.4843 179.136 81.4843 175.387ZM100.051 190.614V182.15C100.051 179.643 98.951 177.876 97.0411 176.965C94.9651 175.975 93.3874 177.315 93.3874 181.202V187.435L92.5363 187.029V178.565C92.5363 176.058 91.436 174.291 89.5262 173.38C87.471 172.4 85.8725 173.731 85.8725 177.618V183.851L85.0421 183.455V170.69L85.8725 171.086V174.007C86.4122 172.24 87.7201 171.668 89.63 172.579C91.5813 173.51 92.9307 175.326 93.2421 177.66C93.8234 175.936 95.0897 175.183 97.1449 176.163C99.5115 177.292 100.902 179.542 100.902 182.463V191.019L100.051 190.614ZM111.638 184.226V192.736C111.638 194.921 112.531 195.899 114.191 196.691L115.312 197.226V198.054C114.877 197.869 114.482 197.681 114.129 197.512C111.866 196.433 110.787 195.09 110.787 192.445V183.82L109.002 182.969V182.118L110.787 182.969V179.335L111.638 179.741V183.375L115.312 185.128V185.979L111.638 184.226ZM118.492 199.409L117.64 199.003V181.132L118.492 181.538V189.588C119.094 187.92 120.547 187.325 122.685 188.345C125.301 189.593 126.733 192.208 126.733 195.497V203.34L125.903 202.944V195.354C125.903 192.249 124.74 190.177 122.56 189.137C120.235 188.028 118.554 189.342 118.492 192.992V199.409ZM137.796 204.96L138.668 205.376C138.232 207.652 136.717 208.401 134.142 207.173C130.883 205.619 129.347 202.356 129.347 198.216C129.347 194.076 130.883 192.256 134.142 193.81C137.402 195.365 138.917 198.641 138.917 202.781V203.034L130.198 198.875C130.24 202.506 131.485 205.055 134.142 206.322C136.239 207.322 137.422 206.737 137.796 204.96ZM134.142 194.661C131.589 193.443 130.343 194.735 130.219 198.034L138.045 201.767C137.921 198.349 136.675 195.869 134.142 194.661ZM157.174 211.489C157.174 215.744 155.596 217.406 152.441 215.901C150.323 214.891 148.995 213.153 148.455 211.217V213.701L147.604 213.295V195.424L148.455 195.83V203.443C148.995 201.998 150.323 201.528 152.441 202.538C155.596 204.043 157.174 207.234 157.174 211.489ZM156.323 211.083C156.323 207.311 155.077 204.647 152.399 203.369C149.68 202.072 148.455 203.558 148.455 207.33C148.455 211.102 149.68 213.733 152.399 215.03C155.077 216.308 156.323 214.855 156.323 211.083ZM160.638 206.747V214.36C160.638 217.465 161.78 219.505 163.96 220.544C166.285 221.653 167.987 220.372 168.028 216.712V210.272L168.88 210.678V223.443L168.028 223.037V220.116C167.426 221.761 165.973 222.356 163.856 221.346C161.219 220.088 159.787 217.473 159.787 214.207V206.341L160.638 206.747ZM179.651 218.921V219.381L178.8 218.975V218.515C178.8 217.043 177.659 215.417 175.645 214.457C173.631 213.496 172.51 214.043 172.51 215.515C172.51 216.941 173.299 218.007 175.209 219.355C178.676 221.652 180.067 223.144 180.067 225.49C180.067 227.629 178.364 228.266 175.811 227.048C173.299 225.85 171.555 223.592 171.555 221.43V220.97L172.406 221.376V221.836C172.406 223.515 173.839 225.256 175.811 226.197C177.783 227.138 179.215 226.763 179.215 225.084C179.215 223.635 178.468 222.473 176.475 221.109C172.988 218.64 171.659 217.501 171.659 215.109C171.659 213.2 173.112 212.398 175.645 213.606C178.157 214.804 179.651 216.989 179.651 218.921ZM184.742 234.091L185.843 231.557L181.13 216.521L182.044 216.957L186.299 230.602L190.534 221.007L191.468 221.452L185.531 234.72C184.825 236.247 184.12 236.278 182.729 235.615C182.542 235.526 182.459 235.486 182.313 235.394V234.566L182.687 234.744C183.746 235.249 184.244 235.233 184.742 234.091ZM194.333 235.583L193.481 235.177V222.412L194.333 222.818V225.762C194.935 224.095 196.388 223.5 198.526 224.52C201.142 225.767 202.574 228.382 202.574 231.671V239.514L201.744 239.118V231.528C201.744 228.423 200.581 226.351 198.401 225.311C196.076 224.202 194.395 225.516 194.333 229.166V235.583ZM213.657 241.144L214.529 241.56C214.093 243.836 212.578 244.585 210.004 243.357C206.744 241.803 205.208 238.54 205.208 234.4C205.208 230.26 206.744 228.44 210.004 229.994C213.263 231.549 214.778 234.825 214.778 238.965V239.218L206.059 235.059C206.101 238.69 207.346 241.239 210.004 242.506C212.1 243.506 213.284 242.921 213.657 241.144ZM210.004 230.845C207.45 229.627 206.205 230.919 206.08 234.218L213.906 237.951C213.782 234.533 212.536 232.053 210.004 230.845ZM225.083 240.591V241.051L224.232 240.645V240.185C224.232 238.713 223.09 237.087 221.076 236.127C219.063 235.166 217.942 235.712 217.942 237.184C217.942 238.61 218.731 239.677 220.64 241.025C224.107 243.322 225.498 244.814 225.498 247.16C225.498 249.299 223.796 249.936 221.243 248.718C218.731 247.52 216.987 245.262 216.987 243.1V242.64L217.838 243.046V243.506C217.838 245.185 219.27 246.926 221.243 247.867C223.215 248.807 224.647 248.433 224.647 246.754C224.647 245.305 223.9 244.143 221.907 242.779C218.419 240.31 217.091 239.17 217.091 236.778C217.091 234.869 218.544 234.068 221.076 235.276C223.588 236.474 225.083 238.659 225.083 240.591ZM235.665 245.638V246.098L234.814 245.692V245.232C234.814 243.76 233.673 242.135 231.659 241.174C229.645 240.214 228.524 240.76 228.524 242.232C228.524 243.658 229.313 244.724 231.223 246.072C234.69 248.37 236.081 249.861 236.081 252.207C236.081 254.346 234.378 254.983 231.825 253.765C229.313 252.567 227.569 250.31 227.569 248.148V247.688L228.42 248.093V248.553C228.42 250.232 229.853 251.974 231.825 252.914C233.797 253.855 235.23 253.48 235.23 251.801C235.23 250.352 234.482 249.191 232.489 247.826C229.002 245.358 227.673 244.218 227.673 241.826C227.673 239.917 229.126 239.115 231.659 240.323C234.171 241.521 235.665 243.706 235.665 245.638ZM253.723 257.54C253.723 261.657 252.228 263.497 248.948 261.933C245.689 260.378 244.173 257.102 244.173 252.985C244.173 248.845 245.689 247.015 248.948 248.57C252.228 250.134 253.723 253.4 253.723 257.54ZM252.871 257.134C252.871 253.362 251.667 250.718 248.948 249.421C246.249 248.133 245.024 249.619 245.024 253.391C245.024 257.14 246.249 259.794 248.948 261.082C251.667 262.379 252.871 260.883 252.871 257.134ZM261.398 250.391L260.381 249.906C258.45 248.985 257.931 249.312 257.931 251.428V253.153L261.398 254.807V255.658L257.931 254.004V265.918L257.08 265.512V253.598L255.336 252.767V251.916L257.08 252.747V250.93C257.08 248.308 257.931 247.863 260.339 249.012C260.713 249.19 261.045 249.372 261.398 249.563V250.391ZM277.497 271.594L278.369 272.01C277.933 274.286 276.417 275.035 273.843 273.807C270.584 272.252 269.048 268.99 269.048 264.85C269.048 260.71 270.584 258.889 273.843 260.444C277.102 261.999 278.618 265.274 278.618 269.414V269.667L269.899 265.509C269.94 269.139 271.186 271.689 273.843 272.956C275.94 273.956 277.123 273.37 277.497 271.594ZM273.843 261.295C271.29 260.077 270.044 261.369 269.92 264.668L277.746 268.401C277.621 264.983 276.376 262.503 273.843 261.295ZM285.647 279.138L284.713 278.693L280.001 263.68L280.914 264.116L285.17 277.738L289.426 268.175L290.339 268.611L285.647 279.138ZM300.142 282.395L301.014 282.811C300.578 285.087 299.062 285.836 296.488 284.608C293.229 283.053 291.693 279.791 291.693 275.651C291.693 271.511 293.229 269.69 296.488 271.245C299.747 272.8 301.263 276.075 301.263 280.215V280.468L292.544 276.31C292.585 279.94 293.831 282.49 296.488 283.757C298.585 284.757 299.768 284.171 300.142 282.395ZM296.488 272.096C293.935 270.878 292.689 272.17 292.564 275.469L300.391 279.202C300.266 275.784 299.021 273.304 296.488 272.096ZM308.37 277.764C306.149 276.704 304.8 277.947 304.8 281.903V288.274L303.969 287.877V275.112L304.8 275.509V278.315C305.298 276.482 306.502 276.021 308.37 276.913C308.682 277.061 308.993 277.233 309.18 277.391L309.159 278.209C308.972 278.074 308.661 277.902 308.37 277.764ZM313.658 295.581L314.758 293.046L310.046 278.011L310.959 278.446L315.215 292.091L319.45 282.496L320.384 282.942L314.447 296.21C313.741 297.736 313.035 297.768 311.644 297.104C311.457 297.015 311.374 296.975 311.229 296.883V296.055L311.603 296.233C312.661 296.738 313.16 296.723 313.658 295.581ZM321.676 289.952C321.676 285.697 323.254 284.012 326.43 285.527C328.548 286.537 329.876 288.274 330.395 290.224V282.611L331.246 283.017V300.888L330.395 300.482V297.998C329.876 299.429 328.548 299.9 326.43 298.89C323.254 297.375 321.676 294.207 321.676 289.952ZM330.395 294.111C330.395 290.339 329.17 287.685 326.472 286.397C323.773 285.11 322.527 286.586 322.527 290.358C322.527 294.13 323.773 296.771 326.472 298.058C329.17 299.346 330.395 297.883 330.395 294.111ZM342.267 302.395C342.267 300.44 341.021 298.604 338.468 297.386C335.894 296.159 334.669 296.816 334.669 298.771C334.669 300.726 335.894 302.553 338.468 303.78C341.021 304.998 342.267 304.35 342.267 302.395ZM343.118 298.017V304.779C343.118 305.423 343.222 306.117 343.409 306.689L342.537 306.273C342.329 305.714 342.267 305.109 342.267 304.534C341.727 305.45 340.398 305.552 338.322 304.562C335.416 303.176 333.818 300.849 333.818 298.365C333.818 295.904 335.416 295.057 338.322 296.443C340.398 297.433 341.727 298.849 342.267 300.256V297.565C342.267 295.38 341.042 293.347 338.696 292.228C336.413 291.139 335.354 291.876 335.167 293.604L334.316 293.198C334.523 290.997 335.914 290.05 338.696 291.377C341.561 292.744 343.118 295.234 343.118 298.017ZM348.264 312.087L349.364 309.553L344.652 294.517L345.565 294.953L349.821 308.597L354.056 299.002L354.99 299.448L349.053 312.716C348.347 314.242 347.641 314.274 346.25 313.61C346.063 313.521 345.98 313.482 345.835 313.389V312.561L346.208 312.739C347.267 313.244 347.765 313.229 348.264 312.087ZM363.979 316.501L363.128 316.095V298.224L363.979 298.63V316.501ZM368.196 318.512L367.345 318.106V305.341L368.196 305.747V318.512ZM368.196 302.826L367.345 302.42V300.235L368.196 300.641V302.826ZM376.731 305.402L375.714 304.917C373.783 303.996 373.264 304.323 373.264 306.439V308.164L376.731 309.818V310.669L373.264 309.015V320.929L372.413 320.523V308.609L370.669 307.778V306.927L372.413 307.758V305.941C372.413 303.319 373.264 302.874 375.672 304.023C376.046 304.201 376.378 304.383 376.731 304.574V305.402ZM386.626 323.646L387.498 324.061C387.062 326.338 385.546 327.087 382.972 325.859C379.713 324.304 378.177 321.042 378.177 316.902C378.177 312.762 379.713 310.941 382.972 312.496C386.231 314.05 387.747 317.326 387.747 321.466V321.719L379.028 317.561C379.069 321.191 380.315 323.74 382.972 325.008C385.069 326.008 386.252 325.422 386.626 323.646ZM382.972 313.347C380.419 312.129 379.173 313.421 379.049 316.719L386.875 320.452C386.75 317.035 385.505 314.555 382.972 313.347ZM396.953 323.396C396.953 313.575 398.281 312.461 401.478 313.986V314.791C398.821 313.523 397.804 314.717 397.804 323.802C397.804 332.887 398.821 335.051 401.478 336.319V337.124C398.281 335.599 396.953 333.217 396.953 323.396ZM413.14 333.578C413.14 337.833 411.562 339.496 408.407 337.99C406.289 336.98 404.961 335.243 404.421 333.306V335.79L403.57 335.384V317.513L404.421 317.919V325.532C404.961 324.088 406.289 323.617 408.407 324.627C411.562 326.133 413.14 329.323 413.14 333.578ZM412.289 333.172C412.289 329.4 411.043 326.736 408.365 325.459C405.646 324.162 404.421 325.647 404.421 329.419C404.421 333.191 405.646 335.823 408.365 337.12C411.043 338.397 412.289 336.944 412.289 333.172ZM416.604 328.836V336.449C416.604 339.554 417.746 341.594 419.925 342.634C422.25 343.743 423.953 342.462 423.994 338.801V332.361L424.845 332.767V345.532L423.994 345.126V342.205C423.392 343.85 421.939 344.445 419.822 343.435C417.185 342.178 415.753 339.562 415.753 336.296V328.43L416.604 328.836ZM443.028 354.205V345.741C443.028 343.234 441.928 341.467 440.018 340.556C437.942 339.566 436.365 340.907 436.365 344.794V351.027L435.513 350.621V342.157C435.513 339.65 434.413 337.883 432.503 336.972C430.448 335.992 428.85 337.322 428.85 341.209V347.442L428.019 347.046V334.281L428.85 334.677V337.598C429.389 335.832 430.697 335.26 432.607 336.171C434.558 337.101 435.908 338.918 436.219 341.251C436.8 339.528 438.067 338.775 440.122 339.755C442.489 340.884 443.879 343.134 443.879 346.055V354.611L443.028 354.205ZM456.524 354.271C456.524 358.526 454.946 360.189 451.791 358.684C449.673 357.674 448.345 355.936 447.805 353.999V362.049L446.954 361.643V343.312L447.805 343.718V346.225C448.345 344.781 449.673 344.311 451.791 345.321C454.946 346.826 456.524 350.016 456.524 354.271ZM455.673 353.865C455.673 350.093 454.427 347.429 451.749 346.152C449.03 344.855 447.805 346.34 447.805 350.112C447.805 353.884 449.03 356.516 451.749 357.813C454.427 359.09 455.673 357.637 455.673 353.865ZM461.407 366.053L462.507 363.519L457.795 348.483L458.708 348.919L462.964 362.564L467.199 352.969L468.133 353.414L462.196 366.683C461.49 368.209 460.784 368.24 459.393 367.577C459.206 367.488 459.123 367.448 458.978 367.356V366.528L459.352 366.706C460.41 367.211 460.909 367.196 461.407 366.053ZM477.807 358.88V367.39C477.807 369.575 478.7 370.553 480.361 371.345L481.482 371.88V372.708C481.046 372.523 480.651 372.335 480.299 372.166C478.036 371.087 476.956 369.744 476.956 367.099V358.474L475.171 357.622V356.771L476.956 357.623V353.989L477.807 354.395V358.029L481.482 359.782V360.633L477.807 358.88ZM484.786 374.122L483.934 373.716V360.951L484.786 361.357V374.122ZM484.786 358.436L483.934 358.03V355.845L484.786 356.251V358.436ZM489.002 376.134L488.151 375.728V357.857L489.002 358.263V376.134ZM500.215 377.825L501.087 378.241C500.651 380.517 499.135 381.266 496.561 380.038C493.302 378.484 491.766 375.221 491.766 371.081C491.766 366.941 493.302 365.121 496.561 366.675C499.821 368.23 501.336 371.506 501.336 375.646V375.899L492.617 371.74C492.659 375.371 493.904 377.92 496.561 379.187C498.658 380.187 499.841 379.602 500.215 377.825ZM496.561 367.526C494.008 366.308 492.762 367.6 492.638 370.899L500.464 374.632C500.34 371.214 499.094 368.734 496.561 367.526ZM511.641 377.272V377.732L510.789 377.326V376.866C510.789 375.394 509.648 373.768 507.634 372.808C505.62 371.847 504.499 372.393 504.499 373.865C504.499 375.291 505.288 376.358 507.198 377.706C510.665 380.003 512.056 381.495 512.056 383.841C512.056 385.98 510.354 386.617 507.8 385.399C505.288 384.201 503.544 381.943 503.544 379.781V379.321L504.396 379.727V380.187C504.396 381.866 505.828 383.607 507.8 384.548C509.772 385.488 511.205 385.114 511.205 383.435C511.205 381.986 510.457 380.824 508.464 379.46C504.977 376.991 503.648 375.851 503.648 373.459C503.648 371.55 505.101 370.749 507.634 371.957C510.146 373.155 511.641 375.34 511.641 377.272ZM518.092 381.177C518.092 390.998 516.784 392.122 513.587 390.597V389.792C516.244 391.059 517.262 389.866 517.262 380.781C517.262 371.696 516.244 369.531 513.587 368.264V367.459C516.784 368.984 518.092 371.356 518.092 381.177ZM523.858 390.528V392.759L522.778 392.244V390.013L523.858 390.528Z" fill="black"/>
</svg>
