<svg width="458" height="385" viewBox="0 0 458 385" fill="none" xmlns="http://www.w3.org/2000/svg">
<path d="M18.902 49.8078L2.7367 42.0973V3.71232L8.82915 6.61827V39.2883L19.8768 44.5577C22.8824 45.9913 24.9132 46.42 26.1723 45.8955V14.4405L32.346 17.3852V33.6302L37.8292 36.2456V42.1406L32.346 39.5252V58.9202L26.1723 55.9755V51.3855C24.8726 52.0706 22.3138 51.4351 18.902 49.8078ZM46.8851 44.075C46.8851 52.535 47.0475 56.1675 47.8193 57.8856C48.1036 58.4712 48.5097 58.8899 48.9159 59.0837C49.4033 59.3161 49.7688 59.2655 50.0532 58.9511C50.7842 57.9498 50.9873 54.4917 50.9873 46.0317C50.9873 37.5717 50.7842 33.9198 50.0532 32.2661C49.7688 31.6355 49.4033 31.2811 48.9159 31.0487C48.5097 30.8549 48.1036 30.8412 47.8193 31.2006C47.0475 32.1375 46.8851 35.615 46.8851 44.075ZM41.2394 41.3822C41.2394 31.2572 41.9705 26.5209 44.245 25.0408C45.301 24.2845 46.8851 24.365 48.9159 25.3337C50.9873 26.3217 52.5307 27.7329 53.668 29.5353C55.577 32.6508 56.3893 37.1783 56.5924 44.8802L59.3543 46.1975V30.4925L65.0406 33.2047V74.1547L59.3543 71.4425V52.0475L56.633 50.7495C56.5112 59.5114 55.6988 63.714 53.668 65.0853C52.5307 65.8479 50.9873 65.6967 48.9159 64.7087C46.8851 63.74 45.301 62.3995 44.245 60.5908C41.9705 56.9859 41.2394 51.5522 41.2394 41.3822ZM72.8389 36.6994V78.2344L67.0308 75.464V33.929L72.8389 36.6994ZM89.2057 58.8609V50.9409L80.7169 46.892V41.177L95.0951 48.035V61.265C95.0951 61.895 95.0951 62.525 95.0545 63.0906L98.1819 64.5824V49.0124L103.909 51.7439V92.6939L98.1819 89.9624V70.4324L94.5671 68.7082C93.1455 77.2101 88.7996 81.1222 80.2701 79.6189V73.3189C86.0783 73.8842 89.2057 69.4809 89.2057 58.8609ZM111.829 55.2967V96.8317L106.021 94.0613V52.5263L111.829 55.2967ZM130.671 78.0089V67.2989L136.073 69.8755V80.5855L130.671 78.0089ZM161.36 81.7568L173.992 87.7818V93.4068L142.555 78.4121V72.7871L155.105 78.7733V74.4983L161.36 77.4818V81.7568ZM149.541 91.4642C149.541 92.0942 149.866 92.7442 150.475 93.3948C151.937 94.9922 154.78 96.6633 158.273 98.3294C161.766 99.9955 164.609 101.037 166.072 100.834C166.681 100.765 167.006 100.425 167.006 99.7946C167.006 99.1646 166.681 98.5596 166.072 97.864C164.609 96.3116 161.766 94.5955 158.273 92.9294C154.78 91.2633 151.937 90.2672 150.475 90.4248C149.866 90.5392 149.541 90.8342 149.541 91.4642ZM143.367 88.5195C143.367 86.1345 144.423 84.7932 146.251 84.36C148.931 83.7036 153.318 84.9859 158.273 87.3494C163.228 89.7129 167.615 92.6152 170.296 95.8288C172.123 98.0056 173.179 100.354 173.179 102.739C173.179 105.169 172.123 106.466 170.296 106.899C167.615 107.555 163.228 106.273 158.273 103.909C153.318 101.546 148.931 98.6436 146.251 95.43C144.423 93.2532 143.367 90.9495 143.367 88.5195ZM148.322 106.633L141.539 103.398V97.5927L175.007 113.556V119.361L168.305 116.165V124.22L162.213 121.314V113.259L154.415 109.539V117.594L148.322 114.688V106.633ZM187.881 91.7966L194.055 94.7413V100.141C194.055 107.296 197.02 111.905 201.69 115.618V121.513C197.304 118.701 193.161 114.34 191.008 110.298C188.937 112.46 184.794 113.049 180.245 111.734V105.884C185.038 106.595 187.881 104.217 187.881 97.2416V91.7966ZM212.088 103.118V127.148L205.915 124.203V100.173L212.088 103.118ZM183.169 121.139V115.379L212.088 129.173V145.328L205.915 142.383V131.988L183.169 121.139ZM219.519 120.387V109.677L224.921 112.254V122.964L219.519 120.387ZM231.85 121.364C231.85 118.754 232.784 117.309 234.327 116.695C237.089 115.718 241.76 117.271 247.162 119.847C252.564 122.424 257.194 125.307 259.956 128.92C261.54 131.025 262.474 133.361 262.474 135.971C262.474 138.491 261.54 139.935 259.956 140.53C257.194 141.507 252.564 140.019 247.162 137.442C241.76 134.866 237.089 131.918 234.327 128.305C232.784 126.219 231.85 123.884 231.85 121.364ZM237.983 124.289C237.983 125.054 238.308 125.839 238.958 126.599C240.298 128.318 243.06 129.951 247.162 131.907C251.224 133.845 254.026 134.866 255.367 134.426C255.976 134.266 256.301 133.791 256.301 133.026C256.301 132.171 255.976 131.386 255.367 130.646C254.026 128.926 251.224 127.275 247.162 125.337C243.06 123.381 240.298 122.378 238.958 122.819C238.308 122.959 237.983 123.434 237.983 124.289ZM264.058 154.186L230.184 138.029V132.314L264.058 148.471V154.186ZM232.459 141.949L238.673 144.913V151.843L262.393 163.157V168.872L232.459 154.594V141.949ZM11.9431 75.4335V72.8535L2.08684 68.1523V65.3623L14.8945 71.4713V76.6913C14.8945 78.2513 14.7591 79.8367 14.5154 80.9205L11.564 79.5127C11.8348 78.4719 11.9431 76.8435 11.9431 75.4335ZM5.11953 73.2289L8.09806 74.6496V80.0796L13.9468 82.8693C16.113 83.9025 17.7647 84.2103 18.6312 83.9336V72.9236L21.5827 74.3314V90.6814L18.6312 89.2736V86.5736C17.6294 86.9957 15.9506 86.615 13.1886 85.2976L0.868352 79.4212V76.6312L5.11953 78.6589V73.2289ZM2.89917 88.0998C2.89917 86.5398 3.57611 85.7227 4.76752 85.481C6.50048 85.1075 9.34363 85.9837 12.5117 87.4948C15.7069 89.0188 18.55 90.8549 20.283 92.8815C21.4473 94.2468 22.1513 95.7226 22.1513 97.2826C22.1513 98.8426 21.4473 99.6768 20.283 99.9015C18.55 100.275 15.7069 99.3688 12.5117 97.8448C9.34363 96.3337 6.50048 94.5275 4.76752 92.501C3.57611 91.1527 2.89917 89.6598 2.89917 88.0998ZM5.82355 89.4947C5.82355 90.0647 6.14848 90.6996 6.71711 91.3609C7.85436 92.5933 9.99349 93.8836 12.5117 95.0848C15.0299 96.2859 17.1961 97.0491 18.3063 96.8886C18.902 96.7828 19.1999 96.4448 19.1999 95.8748C19.1999 95.3348 18.902 94.6828 18.3063 94.0386C17.1961 92.7891 15.0299 91.5159 12.5117 90.3148C9.99349 89.1136 7.85436 88.3333 6.71711 88.5109C6.14848 88.5996 5.82355 88.9547 5.82355 89.4947ZM27.4033 80.2577V77.4377L40.1027 83.495V86.315L35.2287 83.9902V85.0102C35.2287 89.6302 37.4762 92.8922 40.5359 95.1016V97.9816C37.6115 96.0168 35.0933 93.1056 33.8207 90.1886C32.521 91.9087 29.9757 92.7646 26.9701 91.871V88.961C30.1111 89.7092 32.2773 88.3124 32.2773 83.6024V82.5824L27.4033 80.2577ZM46.9262 86.4196V92.5396L50.5005 94.2445V97.0945L46.9262 95.3896V101.93L43.9748 100.522V85.0119L46.9262 86.4196ZM28.4864 99.6743C28.4864 98.0243 29.1904 97.1001 30.3006 96.6996C32.0606 96.1591 34.8226 96.9065 38.0177 98.4305C41.1858 99.9416 43.9748 101.842 45.7077 104.048C46.8179 105.508 47.5219 107.104 47.5219 108.754C47.5219 110.434 46.8179 111.358 45.7077 111.758C43.9748 112.312 41.1858 111.522 38.0177 110.01C34.8226 108.486 32.0606 106.629 30.3006 104.41C29.1904 102.95 28.4864 101.354 28.4864 99.6743ZM31.4379 101.082C31.4379 101.832 31.7899 102.63 32.4397 103.42C33.5228 104.747 35.4995 106.019 38.0177 107.22C40.5088 108.409 42.4855 109.022 43.6228 108.754C44.2455 108.571 44.5705 108.096 44.5705 107.346C44.5705 106.596 44.2455 105.811 43.6228 105.034C42.4855 103.712 40.5088 102.409 38.0177 101.22C35.4995 100.019 33.5228 99.4365 32.4397 99.6999C31.7899 99.87 31.4379 100.332 31.4379 101.082ZM58.6227 95.1186V91.2186L61.5741 92.6263V96.5263L67.3146 99.2644V102.084L52.8822 95.2005V92.3805L58.6227 95.1186ZM56.8356 108.126C56.8356 110.856 57.3771 112.944 58.3519 114.309C58.8664 114.975 59.4079 115.473 60.1119 115.809C60.8972 116.183 61.52 116.18 62.0344 115.856C62.8738 115.296 63.3883 113.772 63.3883 111.252C63.3883 108.702 62.8738 106.656 61.9803 105.27C61.4929 104.528 60.843 103.918 60.1119 103.569C59.3538 103.207 58.6768 103.124 58.1894 103.462C57.2959 103.996 56.8356 105.576 56.8356 108.126ZM53.9112 106.731C53.9112 103.101 54.8589 100.883 56.5919 100.24C57.5396 99.9419 58.7039 100.077 60.1119 100.749C61.4658 101.395 62.6302 102.37 63.5508 103.559C65.2838 105.796 66.2856 108.974 66.2856 112.634C66.2856 116.324 65.3108 118.499 63.5779 119.082C62.6572 119.423 61.4658 119.245 60.1119 118.599C58.731 117.94 57.5937 117.008 56.6189 115.763C54.8589 113.513 53.9112 110.421 53.9112 106.731ZM73.5153 99.102V126.312L70.5639 124.904V97.6942L73.5153 99.102ZM107.307 118.31L99.2925 114.487C99.6445 117.355 103.76 120.818 107.551 122.956V125.716C103.625 123.544 99.7799 120.3 97.8303 117.03C95.8537 118.427 91.9816 118.02 88.0553 116.417V113.657C91.8462 115.195 95.962 115.598 96.314 113.066L88.4074 109.295V106.535L107.307 115.55V118.31ZM86.7827 120.58V117.79L108.905 128.342V131.132L99.2655 126.534V129.054C102.109 130.5 104.356 132.052 105.818 133.68C107.091 135.127 107.795 136.602 107.795 138.282C107.795 139.962 107.091 140.767 105.818 141C104.112 141.266 101.405 140.394 97.8845 138.715C94.3915 137.049 91.6296 135.312 89.9237 133.418C88.6511 131.971 87.947 130.496 87.947 128.816C87.947 127.136 88.6511 126.331 89.9237 126.098C91.3859 125.866 93.5792 126.462 96.3682 127.672V125.152L86.7827 120.58ZM90.8985 130.223C90.8985 130.823 91.1963 131.475 91.7379 132.094C92.8481 133.313 94.906 134.565 97.8845 135.985C100.863 137.406 102.921 138.118 104.004 137.944C104.573 137.856 104.871 137.488 104.871 136.888C104.871 136.288 104.573 135.666 104.004 135.004C102.921 133.798 100.863 132.546 97.8845 131.125C94.906 129.705 92.8481 128.993 91.7379 129.154C91.1963 129.285 90.8985 129.623 90.8985 130.223ZM113.67 126.565C113.67 124.075 114.563 122.581 116.08 121.954C117.894 121.199 120.602 121.741 123.851 123.291C127.127 124.854 129.835 126.895 131.649 129.38C133.138 131.441 134.059 133.8 134.059 136.29C134.059 138.84 133.138 140.291 131.649 140.93C131.135 141.135 130.539 141.241 129.889 141.261V149.181L134.736 151.493V154.313L112.939 143.916V141.096L117.948 143.485V135.625C117.244 134.959 116.621 134.242 116.08 133.504C114.563 131.431 113.67 129.115 113.67 126.565ZM126.938 140.783C125.99 140.511 124.961 140.11 123.851 139.581C122.795 139.077 121.793 138.509 120.872 137.92V144.88L126.938 147.773V140.783ZM116.621 127.972C116.621 129.562 117.163 130.991 118.137 132.326C119.41 134.103 121.414 135.568 123.851 136.731C126.288 137.893 128.319 138.352 129.591 137.789C130.566 137.384 131.108 136.472 131.108 134.882C131.108 133.352 130.566 131.894 129.591 130.529C128.319 128.782 126.288 127.303 123.851 126.141C121.414 124.978 119.41 124.533 118.137 125.066C117.163 125.501 116.621 126.442 116.621 127.972ZM152.39 141.583L138.417 134.919V132.219L144.023 134.892V131.952L146.947 133.347V136.287L152.39 138.883V141.583ZM141.992 143.914C141.992 144.664 142.29 145.466 142.777 146.178C143.4 147.105 144.375 147.93 145.431 148.434C146.405 148.899 147.299 149.025 147.922 148.782C148.517 148.586 148.869 148.094 148.869 147.194C148.869 146.324 148.544 145.479 147.949 144.685C147.326 143.848 146.432 143.092 145.431 142.614C144.402 142.123 143.508 142.027 142.858 142.287C142.317 142.539 141.992 143.074 141.992 143.914ZM139.149 142.557C139.149 140.817 139.853 139.743 140.99 139.326C142.1 138.925 143.643 139.151 145.431 140.004C147.191 140.843 148.68 142.034 149.79 143.463C150.981 144.991 151.685 146.767 151.685 148.537C151.685 150.367 150.927 151.476 149.601 151.803C148.544 152.109 147.082 151.862 145.431 151.074C143.671 150.234 142.154 149.001 141.071 147.614C139.88 146.086 139.149 144.327 139.149 142.557ZM158.78 139.771V147.511L162.354 149.216V152.066L158.78 150.361V159.631L155.828 158.223V138.363L158.78 139.771ZM143.589 151.786V157.036L159.24 164.501V167.321L140.665 158.461V150.391L143.589 151.786ZM173.536 155.12C173.536 152.63 174.43 151.136 175.946 150.509C177.761 149.754 180.468 150.296 183.718 151.846C186.994 153.409 189.702 155.45 191.516 157.935C193.005 159.996 193.926 162.355 193.926 164.845C193.926 167.395 193.005 168.846 191.516 169.485C191.001 169.69 190.406 169.796 189.756 169.816V177.736L194.603 180.048V182.868L172.805 172.471V169.651L177.815 172.04V164.18C177.111 163.514 176.488 162.797 175.946 162.059C174.43 159.986 173.536 157.67 173.536 155.12ZM186.804 169.338C185.857 169.066 184.828 168.665 183.718 168.136C182.662 167.632 181.66 167.064 180.739 166.475V173.435L186.804 176.328V169.338ZM176.488 156.527C176.488 158.117 177.029 159.546 178.004 160.881C179.277 162.658 181.281 164.123 183.718 165.286C186.155 166.448 188.185 166.907 189.458 166.344C190.433 165.939 190.974 165.027 190.974 163.437C190.974 161.907 190.433 160.449 189.458 159.084C188.185 157.337 186.155 155.858 183.718 154.696C181.281 153.533 179.277 153.088 178.004 153.621C177.029 154.056 176.488 154.997 176.488 156.527ZM209.684 173.081C208.032 175.473 204.566 176.82 199.205 175.403V172.523C204.81 173.786 208.195 171.501 208.195 165.561V163.671L211.119 165.066V166.956C211.119 172.896 214.585 178.449 220.163 182.519V185.399C214.829 181.715 211.336 177.049 209.684 173.081ZM198.799 184.869V182.049L208.195 186.531V178.341L211.119 179.736V187.926L220.596 192.446V195.266L198.799 184.869ZM235.109 189.048C235.109 184.728 234.838 181.449 233.809 179.518C233.322 178.536 232.563 177.784 231.67 177.358C230.803 176.945 230.045 176.973 229.531 177.478C228.556 178.453 228.258 181.46 228.258 185.78C228.258 190.1 228.556 193.393 229.531 195.328C230.045 196.263 230.803 197.015 231.67 197.428C232.563 197.854 233.322 197.826 233.809 197.368C234.838 196.389 235.109 193.368 235.109 189.048ZM225.334 184.386C225.334 179.466 225.767 175.982 227.337 174.601C228.339 173.699 229.856 173.672 231.67 174.538C233.511 175.416 235 176.876 236.029 178.747C237.6 181.626 238.033 185.523 238.033 190.443C238.033 195.363 237.6 198.846 236.029 200.227C235 201.116 233.511 201.096 231.67 200.218C229.856 199.353 228.339 197.939 227.337 196.081C225.767 193.202 225.334 189.306 225.334 184.386ZM245.236 181.008V208.218L242.284 206.811V179.601L245.236 181.008ZM262.077 214.421L251.435 209.346V184.446L263.268 190.09V192.97L254.36 188.72V207.89L262.618 211.83C264.866 212.902 266.653 213.214 267.682 212.685V191.715L270.633 193.122V204.222L274.478 206.056V208.906L270.633 207.072V220.332L267.682 218.925V215.385C266.68 215.987 264.568 215.609 262.077 214.421ZM280.543 219.269V223.259L277.185 221.657V217.667L280.543 219.269ZM2.90278 112.67L15.0055 118.442V115.705L15.8774 116.121V123.849L9.35897 120.74V123.983L17.1853 127.716V128.59L0.723035 120.738V119.864L8.50783 123.577V120.334L2.03088 117.245V109.517L2.90278 109.933V112.67ZM15.0055 122.582V119.293L2.90278 113.521V116.81L15.0055 122.582ZM15.0055 136.014V131.69L1.90632 125.442V124.614L15.8774 131.278V136.43L15.0055 136.014ZM21.025 118.576L30.0969 122.903V123.754L26.0073 121.804V123.713C26.0073 127.094 28.3116 130.217 30.4083 131.815V132.689C28.187 131.031 26.3186 128.415 25.5921 125.953C24.9485 127.808 23.0802 128.872 20.7551 128.384V127.487C22.9348 127.951 25.1354 126.747 25.1354 123.297V121.388L21.025 119.427V118.576ZM35.4113 125.162V129.9L38.3799 131.316V132.167L35.4113 130.751V135.558L34.5394 135.142V124.746L35.4113 125.162ZM34.5394 139.972V137.005L35.4113 137.421V145.609L22.1667 139.292V131.104L23.0594 131.53V134.497L34.5394 139.972ZM34.5394 140.846L23.0594 135.371V138.867L34.5394 144.342V140.846ZM50.6272 135.226L40.2682 130.285V129.457L45.0221 131.724V129.079L45.894 129.495V132.14L50.6272 134.398V135.226ZM41.7629 137.162C41.7629 137.944 42.0535 138.749 42.5725 139.48C43.2783 140.484 44.337 141.357 45.4373 141.881C46.5583 142.416 47.617 142.553 48.3021 142.213C48.8418 141.987 49.1325 141.459 49.1325 140.677C49.1325 139.849 48.8418 139.043 48.3021 138.303C47.617 137.309 46.5583 136.436 45.4373 135.901C44.337 135.377 43.2783 135.24 42.5725 135.57C42.0535 135.805 41.7629 136.334 41.7629 137.162ZM40.891 136.746C40.891 135.665 41.2854 134.956 42.012 134.659C42.8216 134.263 44.0672 134.443 45.4373 135.096C46.8282 135.76 48.0737 136.768 48.8834 137.936C49.5892 138.917 50.0044 140.012 50.0044 141.093C50.0044 142.151 49.5892 142.85 48.8834 143.157C48.0737 143.53 46.8282 143.373 45.4373 142.709C44.0672 142.056 42.8216 141.025 42.012 139.88C41.2854 138.889 40.891 137.804 40.891 136.746ZM55.3396 134.668V140.97L58.3082 142.386V143.237L55.3396 141.821V149.319L54.4677 148.903V134.252L55.3396 134.668ZM42.9877 143.588V148.234L55.6925 154.294V155.168L42.095 148.682V143.162L42.9877 143.588ZM66.8823 144.658C66.8823 143.14 67.4221 142.225 68.294 141.859C69.1036 141.486 70.2661 141.649 71.5532 142.263C72.861 142.887 74.0236 143.832 74.8332 144.978C75.6843 146.166 76.2448 147.606 76.2448 149.124C76.2448 150.619 75.6843 151.502 74.8332 151.901C74.0236 152.273 72.861 152.11 71.5532 151.486C70.2661 150.872 69.1036 149.927 68.294 148.782C67.4221 147.561 66.8823 146.153 66.8823 144.658ZM67.7542 145.074C67.7542 146.27 68.1486 147.401 68.8129 148.339C69.498 149.333 70.4529 150.133 71.5532 150.658C72.6327 151.173 73.6084 151.293 74.2934 150.953C74.9577 150.649 75.3522 149.894 75.3522 148.698C75.3522 147.479 74.9577 146.371 74.2934 145.41C73.6084 144.416 72.6327 143.606 71.5532 143.091C70.4529 142.566 69.498 142.456 68.8129 142.796C68.1486 143.123 67.7542 143.855 67.7542 145.074ZM81.7876 156.759L80.9157 156.343V146.867L81.7876 147.283V156.759ZM69.2489 157.77V160.921L82.0367 167.02V167.848L68.3562 161.323V156.516L80.9157 162.507V159.333L68.3562 153.342V152.514L81.7876 158.921V163.751L69.2489 157.77ZM91.7098 152.176V155.005C91.7098 158.432 94.0764 161.792 96.4015 163.752V164.672C93.9103 162.587 91.9382 159.691 91.2323 157.239C90.6926 159.12 88.7412 160.328 86.1048 159.991V159.094C88.5336 159.355 90.8172 157.984 90.8172 154.58V151.751L91.7098 152.176ZM101.197 156.54V161.531L104.165 162.947V163.821L101.197 162.405V168.04L100.325 167.625V156.125L101.197 156.54ZM87.7032 166.825C87.7032 165.744 88.2015 165.085 89.0526 164.824C90.2774 164.465 92.2288 164.913 94.6992 166.091C97.1696 167.269 99.1209 168.683 100.325 170.201C101.197 171.283 101.695 172.418 101.695 173.499C101.695 174.58 101.197 175.216 100.325 175.491C99.1209 175.836 97.1696 175.365 94.6992 174.187C92.2288 173.009 90.2774 171.618 89.0526 170.114C88.2015 169.018 87.7032 167.906 87.7032 166.825ZM88.5959 167.251C88.5959 168.033 88.9488 168.868 89.6339 169.724C90.6511 170.968 92.4156 172.27 94.6992 173.359C96.9827 174.448 98.7473 174.83 99.7645 174.556C100.45 174.354 100.802 173.855 100.802 173.073C100.802 172.268 100.45 171.456 99.7645 170.6C98.7473 169.333 96.9827 168.054 94.6992 166.965C92.4156 165.876 90.6511 165.471 89.6339 165.768C88.9488 165.97 88.5959 166.446 88.5959 167.251ZM106.718 169.455C106.718 159.634 108.047 158.52 111.244 160.044V160.849C108.586 159.582 107.569 160.776 107.569 169.861C107.569 178.946 108.586 181.11 111.244 182.377V183.182C108.047 181.658 106.718 179.276 106.718 169.455ZM114.435 165.868C114.435 165.086 114.726 164.626 115.37 164.45C116.449 164.16 118.504 164.773 121.764 166.327C125.023 167.882 127.078 169.23 128.157 170.55C128.78 171.33 129.092 172.077 129.092 172.859C129.092 173.618 128.78 174.09 128.157 174.253C127.078 174.543 125.023 173.954 121.764 172.399C118.504 170.845 116.449 169.473 115.37 168.153C114.726 167.386 114.435 166.627 114.435 165.868ZM115.328 166.294C115.328 166.8 115.515 167.28 115.972 167.843C116.844 168.902 118.67 170.096 121.764 171.571C124.857 173.047 126.704 173.606 127.555 173.368C128.012 173.241 128.199 172.939 128.199 172.433C128.199 171.927 128.012 171.424 127.555 170.884C126.704 169.811 124.857 168.631 121.764 167.155C118.67 165.68 116.844 165.107 115.972 165.359C115.515 165.463 115.328 165.788 115.328 166.294ZM113.501 171.77V170.919L129.964 178.771V179.622L122.137 175.889V178.925L128.656 182.035V186.497L115.681 180.308V183.068L129.133 189.484V190.312L114.809 183.48V179.087L127.784 185.276V182.447L114.809 176.258V175.43L121.307 178.529V175.493L113.501 171.77ZM135.609 177.738V180.659L148.708 186.907V187.712L134.737 181.048V172.814L148.584 179.419V180.247L135.609 174.058V176.91L148.335 182.98V183.808L135.609 177.738ZM133.43 183.783V182.978L149.892 190.83V191.635L142.065 187.902V190.639C144.681 191.909 146.695 193.261 147.816 194.532C148.605 195.391 149.02 196.233 149.02 197.107C149.02 197.935 148.605 198.381 147.816 198.488C146.633 198.705 144.494 198.053 141.692 196.716C138.889 195.38 136.772 194.002 135.568 192.645C134.779 191.786 134.364 190.944 134.364 190.116C134.364 189.242 134.779 188.796 135.568 188.689C136.71 188.498 138.64 189.051 141.214 190.233V187.496L133.43 183.783ZM135.256 190.542C135.256 191.025 135.526 191.591 136.004 192.14C137.021 193.339 139.014 194.634 141.692 195.911C144.391 197.199 146.342 197.784 147.359 197.557C147.878 197.482 148.127 197.164 148.127 196.681C148.127 196.152 147.878 195.619 147.359 195.027C146.342 193.851 144.391 192.576 141.692 191.288C139.014 190.011 137.021 189.406 136.004 189.61C135.526 189.728 135.256 190.013 135.256 190.542ZM154.666 182.32L155.538 182.736V184.921L167.64 190.693V188.508L168.512 188.924V195.387L154.666 188.783V182.32ZM167.64 194.166V191.498L155.538 185.726V188.394L167.64 194.166ZM153.358 191.471V190.62L169.82 198.472V199.323L161.994 195.59V198.373L168.512 201.482V205.737L155.538 199.549V202.102L168.99 208.518V209.323L154.666 202.491V198.305L167.64 204.493V201.871L154.666 195.683V194.878L161.163 197.977V195.194L153.358 191.471ZM175.466 196.749V199.67L188.565 205.918V206.723L174.594 200.059V191.825L188.44 198.429V199.257L175.466 193.069V195.921L188.191 201.991V202.819L175.466 196.749ZM173.286 202.793V201.988L189.748 209.84V210.645L181.922 206.912V209.649C184.538 210.92 186.551 212.271 187.672 213.542C188.461 214.401 188.876 215.243 188.876 216.117C188.876 216.945 188.461 217.391 187.672 217.498C186.489 217.716 184.351 217.064 181.548 215.727C178.746 214.39 176.628 213.012 175.424 211.656C174.635 210.797 174.22 209.955 174.22 209.127C174.22 208.253 174.635 207.807 175.424 207.7C176.566 207.509 178.497 208.062 181.071 209.243V206.506L173.286 202.793ZM175.113 209.553C175.113 210.036 175.383 210.601 175.86 211.151C176.877 212.349 178.87 213.645 181.548 214.922C184.247 216.209 186.198 216.795 187.216 216.567C187.735 216.493 187.984 216.175 187.984 215.692C187.984 215.163 187.735 214.63 187.216 214.037C186.198 212.862 184.247 211.586 181.548 210.299C178.87 209.022 176.877 208.416 175.86 208.621C175.383 208.738 175.113 209.024 175.113 209.553ZM203.262 208.029L192.903 203.088V202.26L197.657 204.527V201.882L198.529 202.298V204.943L203.262 207.201V208.029ZM194.398 209.965C194.398 210.747 194.688 211.553 195.207 212.283C195.913 213.287 196.972 214.16 198.072 214.684C199.193 215.219 200.252 215.356 200.937 215.016C201.477 214.79 201.767 214.262 201.767 213.48C201.767 212.652 201.477 211.846 200.937 211.106C200.252 210.112 199.193 209.239 198.072 208.704C196.972 208.18 195.913 208.043 195.207 208.373C194.688 208.609 194.398 209.137 194.398 209.965ZM193.526 209.549C193.526 208.468 193.92 207.759 194.647 207.462C195.456 207.066 196.702 207.246 198.072 207.899C199.463 208.563 200.709 209.571 201.518 210.739C202.224 211.72 202.639 212.815 202.639 213.896C202.639 214.954 202.224 215.653 201.518 215.96C200.709 216.333 199.463 216.176 198.072 215.512C196.702 214.859 195.456 213.828 194.647 212.683C193.92 211.692 193.526 210.607 193.526 209.549ZM207.974 207.471V213.773L210.943 215.189V216.04L207.974 214.624V222.122L207.102 221.706V207.055L207.974 207.471ZM195.622 216.391V221.037L208.327 227.097V227.971L194.73 221.485V215.965L195.622 216.391ZM227.613 235.652L219.787 231.919V213.496L228.361 217.585V218.459L220.68 214.796V222.616L227.945 226.081V226.932L220.68 223.467V231.471L227.364 234.659C229.668 235.758 231.807 236.088 233.031 235.361V219.422L233.903 219.838V228.693L237.017 230.178V231.029L233.903 229.544V240.101L233.031 239.685V236.235C231.973 236.972 229.855 236.721 227.613 235.652ZM239.445 226.967C239.445 225.449 239.985 224.533 240.857 224.167C241.667 223.794 242.829 223.958 244.116 224.571C245.424 225.195 246.587 226.141 247.396 227.286C248.247 228.474 248.808 229.914 248.808 231.432C248.808 232.927 248.247 233.81 247.396 234.209C246.587 234.582 245.424 234.418 244.116 233.794C242.829 233.181 241.667 232.235 240.857 231.09C239.985 229.869 239.445 228.462 239.445 226.967ZM240.317 227.382C240.317 228.578 240.712 229.71 241.376 230.647C242.061 231.641 243.016 232.442 244.116 232.966C245.196 233.481 246.171 233.602 246.856 233.261C247.521 232.957 247.915 232.202 247.915 231.006C247.915 229.787 247.521 228.679 246.856 227.718C246.171 226.725 245.196 225.914 244.116 225.399C243.016 224.875 242.061 224.764 241.376 225.104C240.712 225.432 240.317 226.163 240.317 227.382ZM254.351 239.067L253.479 238.651V229.175L254.351 229.591V239.067ZM241.812 240.078V243.229L254.6 249.329V250.157L240.919 243.632V238.825L253.479 244.815V241.641L240.919 235.651V234.823L254.351 241.229V246.059L241.812 240.078ZM262.321 243.674C262.321 253.495 261.014 254.619 257.817 253.094V252.289C260.474 253.557 261.491 252.363 261.491 243.278C261.491 234.193 260.474 232.029 257.817 230.761V229.956C261.014 231.481 262.321 233.853 262.321 243.674ZM280.337 245.252C279.195 246.823 276.143 246.886 272.697 245.748V244.851C275.998 245.942 279.922 245.974 279.922 243.122V241.949L280.793 242.365V243.538C280.793 246.39 284.489 249.946 288.018 252.158V253.055C284.426 250.813 281.437 247.87 280.337 245.252ZM272.137 249.529V248.655L279.922 252.368V248.435L280.773 248.841V252.774L288.599 256.507V257.381L272.137 249.529ZM286.419 265.472V260.734L273.32 254.486V253.635L287.291 260.299V265.888L286.419 265.472ZM292.48 257.323C292.48 252.7 292.937 250.066 294.141 249.352C294.618 249.051 295.262 249.082 296.072 249.468C296.86 249.844 297.504 250.427 298.002 251.194C299.206 253.056 299.642 256.116 299.642 260.739C299.642 265.339 299.206 267.983 298.002 268.697C297.504 269.011 296.86 268.934 296.072 268.558C295.262 268.172 294.618 267.635 294.141 266.855C292.937 264.993 292.48 261.923 292.48 257.323ZM293.352 257.739C293.352 261.994 293.684 264.797 294.681 266.422C295.034 267.005 295.511 267.463 296.072 267.73C296.611 267.987 297.089 267.985 297.442 267.739C298.438 267.065 298.77 264.578 298.77 260.323C298.77 256.045 298.438 253.265 297.442 251.616C297.089 251.034 296.611 250.576 296.072 250.319C295.511 250.052 295.034 250.054 294.681 250.299C293.684 250.997 293.352 253.461 293.352 257.739ZM300.099 260.934V260.06L302.735 261.317V252.784L303.587 253.19V273.085L302.735 272.679V262.191L300.099 260.934ZM306.68 254.528L307.552 254.944V275.23L306.68 274.814V254.528ZM317.162 271.465C316.685 274.365 314.568 275.954 311.91 275.906V274.963C314.298 274.882 316.726 273.442 316.726 267.945V259.619L317.619 260.045V268.371C317.619 273.868 320.048 277.487 322.435 279.983V280.926C319.84 278.377 317.702 274.85 317.162 271.465ZM327.169 264.323V284.586L326.297 284.17V272.578L321.377 270.232V269.358L326.297 271.704V263.907L327.169 264.323ZM1.09671 147.071L10.1686 151.398V152.249L6.07898 150.298V152.667C6.07898 156.025 8.38328 159.172 10.48 160.77V161.69C8.25872 159.986 6.39037 157.37 5.66379 154.907C5.02024 156.763 3.15189 157.872 0.826833 157.338V156.441C3.00658 156.906 5.20708 155.702 5.20708 152.252V149.883L1.09671 147.922V147.071ZM15.483 153.657V158.648L18.4516 160.064V160.938L15.483 159.522V164.904L14.6111 164.488V153.241L15.483 153.657ZM2.23848 167.787V160.657L15.483 166.974V174.104L2.23848 167.787ZM14.6111 167.409L3.13113 161.933V167.361L14.6111 172.837V167.409ZM25.8204 170.502C25.3429 173.402 23.2255 174.991 20.5683 174.943V174C22.9556 173.919 25.3845 172.479 25.3845 166.982V158.656L26.2771 159.082V167.408C26.2771 172.905 28.706 176.524 31.0933 179.02V179.963C28.4984 177.414 26.3602 173.887 25.8204 170.502ZM34.9546 183.184V162.944L35.8265 163.36V183.6L34.9546 183.184ZM48.6758 188.303L41.2231 184.748V166.21L42.1158 166.636V184.3L48.7588 187.469C51.0216 188.548 53.1598 188.763 54.4677 187.984V172.252L55.3396 172.668V181.523L58.4535 183.008V183.859L55.3396 182.374V192.931L54.4677 192.515V188.835C53.2844 189.65 51.0631 189.442 48.6758 188.303ZM69.7043 198.31L61.1514 194.231V175.831L69.7043 179.91V198.31ZM68.8324 197.066V180.368L62.0233 177.121V193.819L68.8324 197.066ZM75.2678 182.173V191.028L78.3818 192.513V193.364L75.2678 191.879V202.436L74.3959 202.02V181.757L75.2678 182.173ZM87.5579 190.956V190.105L91.7929 192.125V189.411L92.6647 189.827V192.541L96.7959 194.511V195.362L92.6647 193.392V194.519C92.6647 197.417 95.0521 200.349 97.1488 201.833V202.753C94.886 201.121 92.9554 198.613 92.208 196.394C91.5022 197.966 89.5508 198.761 87.3088 198.312V197.392C89.2187 197.82 91.7929 197.024 91.7929 194.103V192.976L87.5579 190.956ZM95.9032 206.137L92.3534 204.444V210.608L91.4815 210.192V204.028L86.6237 201.711V200.86L96.0278 205.346C98.0414 206.306 99.7852 206.609 100.989 206.125V194.418L101.861 194.834V215.12L100.989 214.704V206.999C99.8475 207.49 98.0414 207.157 95.9032 206.137ZM106.178 200.527V199.676L111.015 201.984V198.58L111.866 198.986V202.39L116.724 204.707V205.558L106.178 200.527ZM107.881 210.447C107.881 212.77 108.4 214.559 109.313 215.869C109.894 216.675 110.621 217.32 111.472 217.726C112.323 218.132 113.05 218.18 113.631 217.928C114.544 217.49 115.063 216.196 115.063 213.873C115.063 211.573 114.544 209.762 113.631 208.475C113.05 207.646 112.323 207 111.472 206.594C110.621 206.188 109.894 206.141 109.313 206.416C108.4 206.831 107.881 208.147 107.881 210.447ZM107.009 210.032C107.009 207.387 107.694 205.942 108.815 205.465C109.541 205.168 110.455 205.281 111.472 205.766C112.489 206.252 113.403 207.009 114.15 208.01C115.25 209.547 115.935 211.644 115.935 214.289C115.935 216.957 115.25 218.402 114.15 218.889C113.403 219.176 112.489 219.063 111.472 218.577C110.455 218.092 109.541 217.335 108.815 216.344C107.694 214.797 107.009 212.7 107.009 210.032ZM121.125 204.046V212.901L124.239 214.386V215.237L121.125 213.752V224.309L120.253 223.893V203.63L121.125 204.046ZM128.473 207.712V213.347L141.572 219.595V220.423L127.601 213.759V207.296L128.473 207.712ZM126.293 218.103V217.252L142.756 225.104V225.955L126.293 218.103ZM128.473 221.972V227.009L141.822 233.375V234.249L127.601 227.467V221.556L128.473 221.972ZM168.02 228.162V228.99L152.887 221.771V220.943L160.007 224.34V221.787L160.879 222.202V224.755L168.02 228.162ZM154.257 228.359C154.257 229.072 154.61 229.861 155.253 230.605C156.291 231.836 158.139 233.062 160.464 234.171C162.789 235.28 164.637 235.817 165.675 235.576C166.297 235.436 166.671 234.993 166.671 234.28C166.671 233.544 166.297 232.791 165.675 232.034C164.637 230.78 162.789 229.553 160.464 228.444C158.139 227.335 156.291 226.799 155.253 227.063C154.61 227.216 154.257 227.623 154.257 228.359ZM153.385 227.943C153.385 226.908 153.821 226.334 154.651 226.109C155.876 225.842 157.89 226.389 160.464 227.616C163.017 228.834 165.031 230.209 166.256 231.644C167.086 232.661 167.522 233.651 167.522 234.686C167.522 235.698 167.086 236.318 166.256 236.497C165.031 236.787 163.017 236.263 160.464 235.045C157.89 233.818 155.876 232.42 154.651 230.962C153.821 229.991 153.385 228.955 153.385 227.943ZM152.326 234.614V233.74L168.581 241.493V242.367L164.678 240.505V245.266L163.827 244.86V240.099L157.184 236.931V241.692L156.312 241.276V236.515L152.326 234.614ZM177.631 231.159V234.448C177.631 237.829 179.998 241.235 182.344 243.181V244.101C179.832 242.006 177.88 239.121 177.175 236.691C176.635 238.572 174.683 239.758 172.047 239.443V238.523C174.455 238.798 176.759 237.436 176.759 234.032V230.743L177.631 231.159ZM187.43 247.171L186.558 246.756V235.256L187.43 235.671V247.171ZM186.558 255.841V249.907L173.749 243.797V242.923L187.43 249.448V256.256L186.558 255.841ZM192.494 247.632C192.494 243.009 192.951 240.375 194.155 239.661C194.632 239.36 195.276 239.391 196.086 239.777C196.874 240.153 197.518 240.736 198.016 241.503C199.22 243.365 199.656 246.425 199.656 251.048C199.656 255.648 199.22 258.292 198.016 259.006C197.518 259.32 196.874 259.243 196.086 258.867C195.276 258.481 194.632 257.944 194.155 257.164C192.951 255.302 192.494 252.232 192.494 247.632ZM193.366 248.048C193.366 252.303 193.698 255.106 194.695 256.732C195.048 257.314 195.525 257.772 196.086 258.039C196.625 258.296 197.103 258.294 197.456 258.049C198.452 257.374 198.784 254.887 198.784 250.632C198.784 246.354 198.452 243.574 197.456 241.926C197.103 241.343 196.625 240.885 196.086 240.628C195.525 240.361 195.048 240.363 194.695 240.609C193.698 241.306 193.366 243.77 193.366 248.048ZM200.113 251.243V250.369L202.749 251.626V243.093L203.601 243.499V263.394L202.749 262.988V252.5L200.113 251.243ZM206.694 244.837L207.566 245.253V265.539L206.694 265.123V244.837ZM223.717 271.793L218.755 269.427V251.004L224.963 253.965V254.839L219.627 252.294V268.969L223.8 270.959C225.689 271.86 227.184 272.067 228.18 271.461V255.223L229.052 255.639V264.287L232.623 265.99V257.227L233.495 257.643V277.906L232.623 277.49V266.841L229.052 265.138V275.511L228.18 275.095V272.335C227.267 272.981 225.668 272.724 223.717 271.793ZM247.984 267.36L237.625 262.419V261.591L242.379 263.859V261.214L243.251 261.63V264.275L247.984 266.532V267.36ZM239.12 269.296C239.12 270.078 239.41 270.884 239.929 271.614C240.635 272.618 241.694 273.491 242.794 274.016C243.915 274.551 244.974 274.688 245.659 274.347C246.199 274.122 246.489 273.593 246.489 272.811C246.489 271.983 246.199 271.178 245.659 270.437C244.974 269.444 243.915 268.571 242.794 268.036C241.694 267.511 240.635 267.374 239.929 267.704C239.41 267.94 239.12 268.468 239.12 269.296ZM238.248 268.88C238.248 267.799 238.642 267.09 239.369 266.793C240.178 266.397 241.424 266.577 242.794 267.231C244.185 267.894 245.431 268.902 246.24 270.071C246.946 271.051 247.361 272.146 247.361 273.227C247.361 274.285 246.946 274.984 246.24 275.292C245.431 275.664 244.185 275.507 242.794 274.844C241.424 274.19 240.178 273.159 239.369 272.014C238.642 271.023 238.248 269.938 238.248 268.88ZM252.696 266.802V273.104L255.665 274.52V275.371L252.696 273.955V281.453L251.824 281.037V266.386L252.696 266.802ZM240.344 275.722V280.368L253.049 286.428V287.302L239.452 280.817V275.297L240.344 275.722ZM271.962 294.805L264.509 291.25V272.712L265.402 273.138V290.802L272.045 293.971C274.307 295.05 276.446 295.265 277.754 294.486V278.754L278.625 279.169V288.024L281.739 289.51V290.361L278.625 288.875V299.432L277.754 299.017V295.337C276.57 296.152 274.349 295.944 271.962 294.805ZM284.167 292.531V282.089L292.679 286.149V296.591L284.167 292.531ZM291.807 286.584L285.039 283.356V292.096L291.807 295.324V286.584ZM298.554 288.675V294.701L301.522 296.117V296.991L298.554 295.575V302.705L297.682 302.289V288.259L298.554 288.675ZM286.202 296.859V302.241L298.907 308.301V309.175L285.309 302.689V296.433L286.202 296.859ZM304.594 297.789C304.594 295.719 305.175 294.294 306.234 293.741C307.023 293.312 308.165 293.374 309.493 294.008C310.822 294.641 311.943 295.659 312.732 296.84C313.832 298.423 314.392 300.392 314.392 302.462C314.392 304.555 313.832 305.967 312.732 306.523C311.943 306.952 310.822 306.877 309.493 306.244C308.165 305.61 307.023 304.605 306.234 303.424C305.175 301.838 304.594 299.882 304.594 297.789ZM305.487 298.215C305.487 300.009 305.922 301.689 306.815 303.034C307.459 304.031 308.372 304.858 309.493 305.393C310.614 305.927 311.528 305.972 312.171 305.589C313.043 305.085 313.5 303.831 313.5 302.037C313.5 300.266 313.043 298.553 312.171 297.217C311.528 296.22 310.614 295.416 309.493 294.882C308.372 294.347 307.459 294.279 306.815 294.662C305.922 295.157 305.487 296.444 305.487 298.215ZM318.897 318.641L318.025 318.225V315.373C316.904 315.966 314.974 315.505 312.69 314.415L303.909 310.227V309.399L312.898 313.687C314.828 314.607 316.863 315.072 318.025 314.522V297.962L318.897 298.378V318.641ZM331.665 304.744V314.772L345.158 321.208V322.082L330.814 315.24V304.338L331.665 304.744ZM329.755 322.831V322.003L346.01 329.756V330.584L329.755 322.831ZM364.215 331.217V319.993L365.087 320.409V331.633L364.215 331.217ZM351.406 334.331V327.201L365.087 333.726V340.856L351.406 334.331ZM364.215 334.161L352.299 328.478V333.906L364.215 339.589V334.161ZM359.834 318.18V320.227C359.834 324.896 358.174 327.025 355.205 326.69V325.793C357.53 325.982 358.983 324.053 358.983 319.89V318.625L354.831 316.645V317.312C354.831 321.659 352.548 323.238 349.6 322.752V321.855C351.967 322.201 353.96 320.806 353.96 317.011V316.229L349.974 314.328V313.477L359.834 318.18ZM370.442 325.977C370.442 325.195 370.732 324.735 371.376 324.559C372.455 324.269 374.511 324.881 377.77 326.436C381.029 327.991 383.084 329.339 384.164 330.659C384.787 331.439 385.098 332.185 385.098 332.967C385.098 333.726 384.787 334.199 384.164 334.362C383.084 334.652 381.029 334.063 377.77 332.508C374.511 330.953 372.455 329.582 371.376 328.262C370.732 327.495 370.442 326.736 370.442 325.977ZM371.334 326.402C371.334 326.908 371.521 327.389 371.978 327.951C372.85 329.011 374.677 330.205 377.77 331.68C380.863 333.155 382.711 333.715 383.562 333.477C384.018 333.349 384.205 333.047 384.205 332.541C384.205 332.035 384.018 331.532 383.562 330.993C382.711 329.92 380.863 328.739 377.77 327.264C374.677 325.789 372.85 325.216 371.978 325.467C371.521 325.572 371.334 325.896 371.334 326.402ZM369.508 331.994V331.166L385.97 339.018V339.846L369.508 331.994ZM371.687 340.417V343.177L385.139 349.593V350.421L370.815 343.589V339.196L383.79 345.384V342.555L370.815 336.367V335.539L384.662 342.143V346.605L371.687 340.417ZM404.259 348.823L395.831 344.803V335.35L404.342 339.409V340.26L396.703 336.617V344.345L404.384 348.008C406.439 348.989 408.162 349.419 409.325 348.962V341.51L410.197 341.926V346.917L413.165 348.333V349.207L410.197 347.791V353.173L409.325 352.757V349.836C408.224 350.323 406.418 349.853 404.259 348.823ZM396.952 356.055V348.925L410.197 355.243V362.373L396.952 356.055ZM409.325 355.678L397.845 350.202V355.63L409.325 361.106V355.678ZM415.531 349.438C415.531 347.759 416.029 346.686 416.901 346.205C417.711 345.809 418.853 345.916 420.181 346.55C421.53 347.194 422.672 348.175 423.482 349.343C424.354 350.656 424.873 352.215 424.873 353.894C424.873 355.55 424.354 356.636 423.482 357.094C422.672 357.536 421.53 357.406 420.181 356.762C418.853 356.128 417.711 355.17 416.901 353.956C416.029 352.666 415.531 351.094 415.531 349.438ZM416.382 349.844C416.382 351.178 416.797 352.457 417.482 353.52C418.147 354.55 419.081 355.363 420.181 355.888C421.323 356.433 422.257 356.51 422.901 356.104C423.606 355.705 423.98 354.802 423.98 353.468C423.98 352.111 423.606 350.852 422.901 349.779C422.257 348.759 421.323 347.946 420.181 347.401C419.081 346.876 418.147 346.799 417.482 347.195C416.797 347.604 416.382 348.487 416.382 349.844ZM430.125 351.431V356.422L433.093 357.838V358.712L430.125 357.296V362.678L429.253 362.262V351.015L430.125 351.431ZM423.586 368.805C421.987 367.238 420.555 364.875 420.015 363.054C419.475 364.337 417.835 365.303 415.884 365.131V364.257C417.607 364.389 419.538 363.102 419.538 360.641V359.491L420.43 359.917V361.044C420.43 363.298 421.987 366.203 423.565 367.852C425.143 367.708 426.741 366.308 426.741 364.054V362.927L427.613 363.343V364.493C427.613 366.954 429.502 369.994 431.287 371.605V372.479C429.357 370.799 427.696 368.282 427.136 366.45C426.637 367.777 425.226 368.736 423.586 368.805ZM443.763 376.75L435.937 373.017V354.594L444.303 358.585V359.459L436.829 355.894V372.569L443.846 375.916C446.005 376.945 447.998 377.183 449.181 376.459V360.52L450.053 360.936V369.791L453.167 371.277V372.128L450.053 370.642V381.199L449.181 380.783V377.333C448.123 378.093 446.005 377.819 443.763 376.75ZM457.173 381.214V383.445L456.093 382.93V380.699L457.173 381.214Z" fill="black"/>
</svg>
