<svg width="796" height="92" viewBox="0 0 796 92" fill="none" xmlns="http://www.w3.org/2000/svg">
<rect x="603" y="46" width="193" height="42" fill="#C7C8F3"/>
<path d="M333.52 45.36C333.52 38.34 334.54 31.92 338.08 27.24C341.14 23.16 345.7 20.82 352.66 20.82C363.94 20.82 370.66 27.42 371.26 37.86H361.42C361.06 32.4 358.06 29.1 352.66 29.1C349.54 29.1 347.26 30.24 345.82 32.4C344.14 34.86 343.42 38.4 343.42 45.36C343.42 52.38 344.14 55.92 345.82 58.38C347.26 60.54 349.54 61.68 352.66 61.68C358.06 61.68 361.06 58.38 361.42 52.92H371.26C370.66 63.36 363.94 69.96 352.66 69.96C345.7 69.96 341.14 67.62 338.08 63.54C334.54 58.86 333.52 52.44 333.52 45.36ZM401.498 69.12V48.9H386.978V69.12H377.138V21.66H386.978V40.68H401.498V21.66H411.398V69.12H401.498ZM455.646 45.36C455.646 52.44 454.686 58.86 451.146 63.54C448.086 67.62 443.466 69.96 436.566 69.96C429.606 69.96 425.046 67.62 421.986 63.54C418.446 58.86 417.426 52.44 417.426 45.36C417.426 38.34 418.446 31.92 421.986 27.24C425.046 23.16 429.606 20.82 436.566 20.82C443.466 20.82 448.086 23.16 451.146 27.24C454.686 31.92 455.646 38.34 455.646 45.36ZM427.326 45.36C427.326 52.38 428.046 55.92 429.726 58.38C431.166 60.54 433.446 61.68 436.566 61.68C439.686 61.68 441.966 60.54 443.406 58.38C445.086 55.92 445.746 52.38 445.746 45.36C445.746 38.4 445.086 34.86 443.406 32.4C441.966 30.24 439.686 29.1 436.566 29.1C433.446 29.1 431.166 30.24 429.726 32.4C428.046 34.86 427.326 38.4 427.326 45.36ZM471.528 21.66V69.12H461.688V21.66H471.528ZM513.42 41.94L523.14 21.66H533.4L518.34 50.4V69.12H508.5V50.4L493.5 21.66H503.76L513.42 41.94ZM537.743 69.12V21.66H567.203V29.88H547.583V40.68H564.743V48.9H547.583V60.9H567.503V69.12H537.743ZM590.53 41.94L600.25 21.66H610.51L595.45 50.4V69.12H585.61V50.4L570.61 21.66H580.87L590.53 41.94ZM649.65 45.36C649.65 52.44 648.69 58.86 645.15 63.54C642.09 67.62 637.47 69.96 630.57 69.96C623.61 69.96 619.05 67.62 615.99 63.54C612.45 58.86 611.43 52.44 611.43 45.36C611.43 38.34 612.45 31.92 615.99 27.24C619.05 23.16 623.61 20.82 630.57 20.82C637.47 20.82 642.09 23.16 645.15 27.24C648.69 31.92 649.65 38.34 649.65 45.36ZM621.33 45.36C621.33 52.38 622.05 55.92 623.73 58.38C625.17 60.54 627.45 61.68 630.57 61.68C633.69 61.68 635.97 60.54 637.41 58.38C639.09 55.92 639.75 52.38 639.75 45.36C639.75 38.4 639.09 34.86 637.41 32.4C635.97 30.24 633.69 29.1 630.57 29.1C627.45 29.1 625.17 30.24 623.73 32.4C622.05 34.86 621.33 38.4 621.33 45.36ZM673.572 69.96C661.272 69.96 655.392 62.7 655.392 51.54V21.66H665.292V51.12C665.292 58.2 667.872 61.68 673.572 61.68C679.212 61.68 681.852 58.2 681.852 51.12V21.66H691.692V51.54C691.692 62.7 685.812 69.96 673.572 69.96ZM723.366 69.12L708.306 38.7V69.12H698.466V21.66H708.426L723.486 52.14V21.66H733.386V69.12H723.366ZM739.458 45.36C739.458 38.34 740.478 31.92 744.018 27.24C747.078 23.16 751.638 20.82 758.598 20.82C769.878 20.82 776.598 27.42 777.198 37.86H767.358C766.998 32.4 763.998 29.1 758.598 29.1C755.478 29.1 753.198 30.24 751.758 32.4C750.078 34.86 749.358 38.4 749.358 45.36C749.358 58.2 752.418 61.68 758.718 61.68C764.838 61.68 767.298 57.54 767.718 51.3H758.838V43.98H777.138V69.12H770.058L768.918 63.54C767.237 67.38 763.338 69.96 757.578 69.96C743.838 69.96 739.458 58.62 739.458 45.36Z" fill="black"/>
<path d="M32.4601 21.66V69.12H22.6201V21.66H32.4601ZM69.0751 47.64V69.12H59.7151V47.82C59.7151 43.62 58.0351 41.64 54.9151 41.64C50.9551 41.64 48.3751 44.64 48.3751 49.98V69.12H38.9551V35.22H48.3751V40.86C49.5751 36.96 52.9951 34.38 57.8551 34.38C65.0551 34.38 69.0751 38.94 69.0751 47.64ZM87.0601 42.48V57.6C87.0601 61.5 88.2601 62.4 92.4001 62.4H95.8801V69.42C94.6201 69.54 91.8601 69.6 90.1801 69.6C81.1801 69.6 77.7001 66.84 77.7001 59.04V42.48H72.7801V35.22H77.7001V25.62H87.0601V35.22H95.8801V42.48H87.0601ZM131.079 54.72H108.939C109.179 60.18 111.339 63.12 115.359 63.12C118.419 63.12 120.399 61.56 120.939 58.8H130.419C129.339 65.7 123.939 69.96 115.359 69.96C104.619 69.96 99.5785 63.18 99.5785 52.14C99.5785 41.22 104.619 34.38 115.359 34.38C126.159 34.38 131.139 41.22 131.139 52.14C131.139 53.04 131.139 54 131.079 54.72ZM115.359 41.28C111.339 41.28 109.179 43.92 108.999 48.84H121.659C121.479 43.92 119.319 41.28 115.359 41.28ZM154.279 42.12C148.879 42.12 145.699 45.6 145.699 52.2V69.12H136.279V35.22H145.699V41.52C146.719 36.78 149.479 34.38 154.519 34.38C155.539 34.38 156.499 34.5 157.159 34.68L157.039 42.24C156.499 42.18 155.419 42.12 154.279 42.12ZM180.747 69.12H170.667L158.727 35.22H168.327L175.707 59.28L183.147 35.22H192.747L180.747 69.12ZM196.695 29.82V21.66H206.055V29.82H196.695ZM196.695 69.12V35.22H206.055V69.12H196.695ZM242.875 54.72H220.735C220.975 60.18 223.135 63.12 227.155 63.12C230.215 63.12 232.195 61.56 232.735 58.8H242.215C241.135 65.7 235.735 69.96 227.155 69.96C216.415 69.96 211.375 63.18 211.375 52.14C211.375 41.22 216.415 34.38 227.155 34.38C237.955 34.38 242.935 41.22 242.935 52.14C242.935 53.04 242.935 54 242.875 54.72ZM227.155 41.28C223.135 41.28 220.975 43.92 220.795 48.84H233.455C233.275 43.92 231.115 41.28 227.155 41.28ZM288.345 69.12H278.985L272.265 46.26L265.605 69.12H256.245L245.505 35.22H254.925L261.405 58.92L268.305 35.22H276.285L283.185 58.92L289.665 35.22H299.085L288.345 69.12Z" fill="black"/>
<rect x="7.75" y="5.75" width="300.5" height="79.5" stroke="black" stroke-width="1.5"/>
<rect x="0.75" y="-0.75" width="11.5" height="11.5" transform="matrix(1 0 0 -1 0 11.5)" stroke="black" stroke-width="1.5"/>
<rect x="0.75" y="-0.75" width="11.5" height="11.5" transform="matrix(1 0 0 -1 151 11.5)" stroke="black" stroke-width="1.5"/>
<rect x="0.75" y="-0.75" width="11.5" height="11.5" transform="matrix(1 0 0 -1 302 11.5)" stroke="black" stroke-width="1.5"/>
<rect x="0.75" y="-0.75" width="11.5" height="11.5" transform="matrix(1 0 0 -1 302 90.5)" stroke="black" stroke-width="1.5"/>
<rect x="0.75" y="-0.75" width="11.5" height="11.5" transform="matrix(1 0 0 -1 151 90.5)" stroke="black" stroke-width="1.5"/>
<rect x="0.75" y="-0.75" width="11.5" height="11.5" transform="matrix(1 0 0 -1 0 90.5)" stroke="black" stroke-width="1.5"/>
</svg>
