<svg width="469" height="140" viewBox="0 0 469 140" fill="none" xmlns="http://www.w3.org/2000/svg">
<g filter="url(#filter0_d_2654_85)">
<rect x="54" y="88" width="183" height="38" fill="#C7C8F3"/>
</g>
<path d="M183.259 9.65H183.469C184.403 9.65 185.126 10.3267 185.639 11.68C185.639 12.1933 184.706 13.4067 182.839 15.32C182.233 16.72 181.929 17.98 181.929 19.1V20.57C181.929 21.3167 182.373 22.6467 183.259 24.56C183.259 25.54 182.536 26.2633 181.089 26.73C179.316 26.73 178.196 24.49 177.729 20.01V19.73C177.729 15.2967 179.573 11.9367 183.259 9.65ZM188.929 13.43H189.139C190.119 13.43 190.703 14.1533 190.889 15.6C190.889 16.3 189.956 17.2333 188.089 18.4L187.669 20.15V20.57L188.229 23.23C188.229 24.07 187.506 24.7933 186.059 25.4C184.333 24.84 183.469 23.1833 183.469 20.43C183.469 17.1167 185.289 14.7833 188.929 13.43ZM197.216 13.22C198.336 13.22 199.059 13.8033 199.386 14.97L198.966 19.1V20.43C200.132 30.09 200.856 37.6033 201.136 42.97C201.649 47.9633 202.186 50.46 202.746 50.46C202.746 51.44 201.929 52.07 200.296 52.35C197.962 52.35 196.796 47.6367 196.796 38.21L194.836 20.01V19.38C194.836 15.2733 195.629 13.22 197.216 13.22ZM209.449 10.56C210.895 10.56 211.829 12.31 212.249 15.81V16.23C212.249 17.8167 211.502 18.61 210.009 18.61C208.562 18.61 207.839 17.0933 207.839 14.06C207.512 14.06 207.302 13.5233 207.209 12.45C207.675 11.19 208.422 10.56 209.449 10.56ZM217.468 27.5C217.794 26.3333 218.541 25.75 219.708 25.75C220.874 25.75 221.644 26.9167 222.018 29.25H222.298L225.518 28.55C227.011 28.55 228.458 29.95 229.858 32.75H230.138C232.191 29.53 234.291 27.92 236.438 27.92C241.011 28.76 243.298 31.7467 243.298 36.88L243.438 39.33L242.808 53.47V54.8C242.808 55.9667 242.084 56.6433 240.638 56.83C239.191 56.83 238.468 55.1267 238.468 51.72L239.308 39.05C239.308 34.3833 238.211 32.05 236.018 32.05C234.758 32.05 233.241 35.1067 231.468 41.22C230.581 48.22 229.858 51.72 229.298 51.72C228.504 51.72 228.108 51.8833 228.108 52.21C226.661 52.0233 225.938 51.2767 225.938 49.97L226.848 41.5C226.708 35.6667 226.124 32.75 225.098 32.75H224.888C223.721 33.6367 223.138 35.3867 223.138 38V41.71L222.858 52.42C222.531 53.5867 221.808 54.17 220.688 54.17C219.708 54.17 219.078 53.3533 218.798 51.72L218.518 43.46L218.938 36.67C218.658 33.17 218.168 30.1133 217.468 27.5ZM286.791 24.98C288.844 24.98 289.871 25.7967 289.871 27.43L289.241 28.76L288.821 41.57C288.821 47.3567 289.988 50.95 292.321 52.35L292.461 53.4C292.321 54.7533 291.691 55.43 290.571 55.43H290.151C286.651 53.05 284.901 49.41 284.901 44.51H284.411C282.544 49.7367 280.281 52.35 277.621 52.35C275.148 51.65 273.911 49.8067 273.911 46.82C273.911 40.24 276.548 33.6833 281.821 27.15C283.594 25.7033 285.251 24.98 286.791 24.98ZM278.321 44.02L278.041 45.98V47.31H278.741C282.241 38.5833 283.991 33.2633 283.991 31.35H283.711C281.004 34.3833 279.208 38.6067 278.321 44.02ZM68.5669 67.83L89.5669 66.5C90.1736 66.5 90.7569 67.0833 91.3169 68.25C91.3169 70.0233 89.2636 70.91 85.1569 70.91L72.9069 71.61L72.6269 71.75C73.7936 79.3567 74.3769 93.8 74.3769 115.08C74.1436 117.133 73.3969 118.16 72.1369 118.16C70.9236 118.16 70.2236 117.227 70.0369 115.36V99.12C70.0369 88.2933 69.5469 79.2633 68.5669 72.03C60.2136 72.8233 56.0369 73.7567 56.0369 74.83L55.4069 75.11C53.9602 74.69 53.2369 73.9433 53.2369 72.87C53.2369 70.3033 58.3469 68.6233 68.5669 67.83ZM95.8532 85.61C99.3066 85.61 101.92 88.1767 103.693 93.31L103.973 94.78C103.973 99.7733 101.64 104.883 96.9732 110.11C95.1066 111.837 93.2166 112.7 91.3032 112.7C88.5032 112.7 86.5199 111.09 85.3532 107.87C84.9332 106.377 84.7232 105.07 84.7232 103.95V103.11C84.7232 95.7367 87.4066 90.1367 92.7732 86.31C93.7066 85.8433 94.7332 85.61 95.8532 85.61ZM88.8532 103.81C88.8532 106.983 89.6699 108.57 91.3032 108.57C94.7099 108.57 97.5332 104.207 99.7732 95.48V94.15C98.9799 91.2567 97.5099 89.81 95.3632 89.81C94.5232 89.81 94.1032 90.3933 94.1032 91.56C94.1032 92.3533 93.1699 92.9833 91.3032 93.45C89.6699 96.2033 88.8532 99.6567 88.8532 103.81ZM109.875 90.93L111.135 90.23C112.255 90.23 113.072 90.9067 113.585 92.26C112.838 95.7133 112.465 99.26 112.465 102.9C112.465 104.72 113.002 106.703 114.075 108.85H114.495C115.848 108.85 117.458 103.507 119.325 92.82C119.978 92.26 120.608 91.98 121.215 91.98C122.662 91.98 123.385 94.5467 123.385 99.68C123.992 105.327 124.668 108.15 125.415 108.15L126.465 107.73C127.818 108.243 128.495 108.967 128.495 109.9C127.655 111.673 126.488 112.56 124.995 112.56C123.315 112.56 121.705 110.88 120.165 107.52C118.298 111.44 116.408 113.4 114.495 113.4C111.648 113.4 109.665 110.437 108.545 104.51L108.335 102.27V101.57C108.335 97.8367 108.848 94.29 109.875 90.93ZM137.116 88.27L139.986 87.85C141.152 87.85 141.806 88.5733 141.946 90.02C141.946 91.28 140.429 92.0967 137.396 92.47C135.482 93.9633 134.526 95.8767 134.526 98.21V100.52C135.459 105.653 137.046 108.22 139.286 108.22H139.986C141.292 108.22 143.252 106.983 145.866 104.51H146.286C147.219 104.51 147.966 105.163 148.526 106.47C147.872 108.477 145.772 110.297 142.226 111.93C141.572 112.21 140.756 112.35 139.776 112.35C134.969 112.35 131.842 108.57 130.396 101.01V99.47C130.396 94.01 132.636 90.2767 137.116 88.27ZM154.996 73.36C156.302 73.36 156.956 74.9467 156.956 78.12L157.796 90.16H158.076L161.576 88.83C165.496 88.83 167.876 92.8433 168.716 100.87C169.042 103.157 169.206 106.517 169.206 110.95V116.62C169.206 118.393 168.552 119.28 167.246 119.28H166.966C165.706 119.093 165.076 118.417 165.076 117.25V110.67C165.076 100.123 164.049 94.29 161.996 93.17H161.576C160.176 93.17 159.149 95.3167 158.496 99.61V103.53C158.496 110.53 157.912 114.03 156.746 114.03L155.416 114.17C154.109 114.17 153.456 112.233 153.456 108.36C153.596 104.253 153.876 100.893 154.296 98.28L152.826 75.25C152.826 74.0367 153.549 73.4067 154.996 73.36ZM173.335 75.53C175.108 75.9033 175.995 76.6967 175.995 77.91C175.528 79.2167 174.782 79.87 173.755 79.87C172.028 79.5433 171.165 78.68 171.165 77.28C171.632 76.1133 172.355 75.53 173.335 75.53ZM175.995 85.33C176.742 85.33 177.372 86.0067 177.885 87.36L177.255 92.33V95.62C177.255 99.4467 177.908 104.463 179.215 110.67C178.748 111.557 177.955 112 176.835 112C174.922 112 173.662 106.4 173.055 95.2V92.75C173.055 87.8033 174.035 85.33 175.995 85.33ZM191.917 88.41C195.884 88.7367 197.867 90.6733 197.867 94.22L198.007 95.13L197.867 106.05C197.867 107.31 198.591 109.013 200.037 111.16V111.3C199.664 112.653 198.987 113.33 198.007 113.33C195.114 112.117 193.667 109.55 193.667 105.63V104.72L193.457 104.58L193.667 104.3V104.16L193.877 94.5C193.877 93.1467 193.294 92.47 192.127 92.47H191.287C188.954 93.4033 187.787 98.5133 187.787 107.8C187.787 111.02 186.971 112.63 185.337 112.63C184.077 112.63 183.424 111.837 183.377 110.25V103.25C183.377 94.1967 184.171 89.67 185.757 89.67L186.457 89.46L187.927 89.67C189.187 88.83 190.517 88.41 191.917 88.41ZM213.501 85.12C215.648 85.12 216.721 86.1467 216.721 88.2C217.001 88.2 217.141 88.55 217.141 89.25H217.421L217.141 91.28L217.421 105.42L217.001 116.62C221.201 116.62 224.025 119.7 225.471 125.86C225.471 127.12 224.608 127.843 222.881 128.03C222.088 128.03 221.201 126.28 220.221 122.78C219.288 121.427 218.215 120.75 217.001 120.75H216.721C215.228 130.69 213.921 135.66 212.801 135.66C211.448 138.133 209.488 139.37 206.921 139.37C203.141 138.483 201.251 136.593 201.251 133.7V133.28C201.251 128.893 204.378 124.133 210.631 119L212.801 117.67L213.081 110.11V108.36H212.801C211.215 110.367 209.698 111.37 208.251 111.37H207.831C204.611 111.37 202.768 108.897 202.301 103.95V102.41C202.301 96.4367 204.495 91.2567 208.881 86.87C210.235 85.7033 211.775 85.12 213.501 85.12ZM206.501 101.5V104.86C206.688 106.4 207.038 107.17 207.551 107.17H208.251C209.558 107.17 211.168 102.363 213.081 92.75V89.25C210.281 89.25 208.088 93.3333 206.501 101.5ZM205.381 133.42C205.568 134.587 206.221 135.17 207.341 135.17C209.581 135.17 211.191 131.18 212.171 123.2H211.751C207.505 126.887 205.381 130.293 205.381 133.42ZM262.045 70.42L263.795 69.86C265.382 69.86 266.175 71.96 266.175 76.16L268.345 92.33L268.625 92.61L276.675 89.67C277.749 89.67 278.332 90.4867 278.425 92.12C278.425 93.3333 275.462 94.8033 269.535 96.53L269.255 96.67V96.95C269.255 97.93 270.795 103.04 273.875 112.28V112.42C273.875 113.307 273.152 114.053 271.705 114.66C270.352 114.66 269.465 113.05 269.045 109.83C267.972 107.497 266.665 103.647 265.125 98.28H264.845C258.732 99.54 255.675 100.613 255.675 101.5C252.315 108.78 249.772 112.42 248.045 112.42C247.065 112.42 246.482 111.79 246.295 110.53C246.295 109.41 247.532 107.217 250.005 103.95L251.125 101.5H249.375L248.045 101.78C246.319 101.36 245.455 100.473 245.455 99.12C246.155 97.4867 247.182 96.67 248.535 96.67L250.285 97.37C252.899 97.37 254.205 96.4133 254.205 94.5C256.585 88.9 259.199 80.8733 262.045 70.42ZM262.675 83.16L258.545 95.62C262.372 94.8733 264.285 94.15 264.285 93.45C263.585 86.59 263.049 83.16 262.675 83.16ZM289.743 84.42C292.683 84.42 294.433 86.4733 294.993 90.58V91.21C294.993 95.7367 292.66 99.89 287.993 103.67C290.7 106.33 295.436 107.66 302.203 107.66C303.23 107.987 303.743 108.71 303.743 109.83C303.743 111.09 302.926 111.72 301.293 111.72C296.72 111.72 291.913 110.553 286.873 108.22V110.25C286.873 115.057 285.846 117.46 283.793 117.46C282.346 117.46 281.623 114.683 281.623 109.13V103.67L281.413 101.71L281.903 99.47L281.413 92.75V92.47C281.413 91.21 282.066 90.3467 283.373 89.88C285.193 86.24 287.316 84.42 289.743 84.42ZM286.243 99.75C287.596 99.75 289.113 97.3233 290.793 92.47V89.46L289.953 88.55H289.323C287.27 89.95 286.243 93.6833 286.243 99.75ZM314.329 69.51C315.636 69.79 316.289 70.4433 316.289 71.47L315.869 74.55V75.46C315.869 77.5133 316.103 79.6833 316.569 81.97H316.709C322.123 80.3367 325.483 79.52 326.789 79.52C328.143 79.8933 328.819 80.57 328.819 81.55C328.819 83.1367 327.209 83.93 323.989 83.93L316.709 86.52C316.709 92.82 317.386 101.383 318.739 112.21C318.459 113.47 317.783 114.1 316.709 114.1H316.569C314.936 114.1 314.119 112 314.119 107.8C313.513 104.673 312.999 97.8833 312.579 87.43H311.319C306.933 87.15 304.739 86.1233 304.739 84.35C304.739 83.8367 305.229 83.2067 306.209 82.46H306.909L310.129 83.3H312.369L311.739 74.55C311.739 71.19 312.603 69.51 314.329 69.51ZM331.792 75.53C333.565 75.9033 334.452 76.6967 334.452 77.91C333.985 79.2167 333.239 79.87 332.212 79.87C330.485 79.5433 329.622 78.68 329.622 77.28C330.089 76.1133 330.812 75.53 331.792 75.53ZM334.452 85.33C335.199 85.33 335.829 86.0067 336.342 87.36L335.712 92.33V95.62C335.712 99.4467 336.365 104.463 337.672 110.67C337.205 111.557 336.412 112 335.292 112C333.379 112 332.119 106.4 331.512 95.2V92.75C331.512 87.8033 332.492 85.33 334.452 85.33ZM355.344 83.65C356.604 83.65 357.468 85.7733 357.934 90.02C357.468 91.1867 356.698 91.77 355.624 91.77C354.878 91.63 354.131 90.7667 353.384 89.18L352.124 88.76C349.931 88.76 347.948 90.2067 346.174 93.1V93.73C346.174 94.43 349.464 95.5967 356.044 97.23C358.798 98.8633 360.174 100.847 360.174 103.18C360.174 107.007 357.094 110.273 350.934 112.98L348.344 113.4C344.424 112.98 342.464 111.02 342.464 107.52V107.31C342.464 106.19 343.188 105.537 344.634 105.35C345.754 105.35 346.501 106.517 346.874 108.85L347.434 109.27H348.624C351.284 109.27 353.758 107.45 356.044 103.81V102.9C356.044 101.5 352.988 100.193 346.874 98.98C343.654 97.6733 342.044 95.8533 342.044 93.52C342.044 90.4867 344.588 87.64 349.674 84.98C351.914 84.7 353.804 84.2567 355.344 83.65ZM370.999 69.51C372.306 69.79 372.959 70.4433 372.959 71.47L372.539 74.55V75.46C372.539 77.5133 372.773 79.6833 373.239 81.97H373.379C378.793 80.3367 382.153 79.52 383.459 79.52C384.813 79.8933 385.489 80.57 385.489 81.55C385.489 83.1367 383.879 83.93 380.659 83.93L373.379 86.52C373.379 92.82 374.056 101.383 375.409 112.21C375.129 113.47 374.453 114.1 373.379 114.1H373.239C371.606 114.1 370.789 112 370.789 107.8C370.183 104.673 369.669 97.8833 369.249 87.43H367.989C363.603 87.15 361.409 86.1233 361.409 84.35C361.409 83.8367 361.899 83.2067 362.879 82.46H363.579L366.799 83.3H369.039L368.409 74.55C368.409 71.19 369.273 69.51 370.999 69.51ZM393.292 107.87C394.272 107.87 394.855 108.663 395.042 110.25C394.762 111.883 393.945 112.7 392.592 112.7C391.659 112.7 391.005 111.883 390.632 110.25C391.192 108.663 392.079 107.87 393.292 107.87ZM406.077 69.65H406.287C407.22 69.65 407.944 70.3267 408.457 71.68C408.457 72.1933 407.524 73.4067 405.657 75.32C405.05 76.72 404.747 77.98 404.747 79.1V80.57C404.747 81.3167 405.19 82.6467 406.077 84.56C406.077 85.54 405.354 86.2633 403.907 86.73C402.134 86.73 401.014 84.49 400.547 80.01V79.73C400.547 75.2967 402.39 71.9367 406.077 69.65ZM411.747 73.43H411.957C412.937 73.43 413.52 74.1533 413.707 75.6C413.707 76.3 412.774 77.2333 410.907 78.4L410.487 80.15V80.57L411.047 83.23C411.047 84.07 410.324 84.7933 408.877 85.4C407.15 84.84 406.287 83.1833 406.287 80.43C406.287 77.1167 408.107 74.7833 411.747 73.43Z" fill="black"/>
<defs>
<filter id="filter0_d_2654_85" x="53" y="87" width="191" height="46" filterUnits="userSpaceOnUse" color-interpolation-filters="sRGB">
<feFlood flood-opacity="0" result="BackgroundImageFix"/>
<feColorMatrix in="SourceAlpha" type="matrix" values="0 0 0 0 0 0 0 0 0 0 0 0 0 0 0 0 0 0 127 0" result="hardAlpha"/>
<feOffset dx="3" dy="3"/>
<feGaussianBlur stdDeviation="2"/>
<feComposite in2="hardAlpha" operator="out"/>
<feColorMatrix type="matrix" values="0 0 0 0 0 0 0 0 0 0 0 0 0 0 0 0 0 0 0.25 0"/>
<feBlend mode="normal" in2="BackgroundImageFix" result="effect1_dropShadow_2654_85"/>
<feBlend mode="normal" in="SourceGraphic" in2="effect1_dropShadow_2654_85" result="shape"/>
</filter>
</defs>
</svg>
