<svg width="701" height="92" viewBox="0 0 701 92" fill="none" xmlns="http://www.w3.org/2000/svg">
<rect x="543" y="46" width="158" height="42" fill="#FFADAD"/>
<path d="M353.74 69.12H334.48V21.66H352.72C362.8 21.66 367.9 26.1 367.9 34.62C367.9 39.6 365.38 42.96 361.12 44.4C366.16 45.78 369.28 49.92 369.28 55.44C369.28 64.38 364.06 69.12 353.74 69.12ZM359.38 54.9C359.38 50.4 357.1 48.72 352.24 48.72H344.38V61.14H352.24C357.1 61.14 359.38 59.4 359.38 54.9ZM358.18 35.28C358.18 31.08 355.78 29.7 351.16 29.7H344.38V40.86H351.16C355.78 40.86 358.18 39.54 358.18 35.28ZM412.369 69.12H402.289L399.709 60H383.749L381.169 69.12H371.089L386.269 21.66H397.189L412.369 69.12ZM391.729 31.8L385.969 51.96H397.429L391.729 31.8ZM416.454 69.12V21.66H445.914V29.88H426.294V40.68H443.454V48.9H426.294V60.9H446.214V69.12H416.454ZM502.897 55.5C502.897 63.9 496.717 69.96 485.797 69.96C474.997 69.96 468.697 64.02 468.697 55.68V54.78H478.537V55.8C478.537 59.46 481.237 61.98 485.797 61.98C490.297 61.98 492.997 59.46 492.997 55.8C492.997 52.56 490.957 50.34 486.517 49.44L481.417 48.42C473.437 46.86 468.577 42.54 468.577 34.56C468.577 27 474.277 20.82 484.837 20.82C495.397 20.82 501.097 27.06 501.097 34.32V35.04H491.257V34.32C491.257 31.08 488.977 28.86 484.837 28.86C480.637 28.86 478.417 31.08 478.417 34.32C478.417 37.62 480.457 39.3 485.017 40.26L490.117 41.28C498.397 42.96 502.897 47.64 502.897 55.5ZM508.329 69.12V21.66H537.789V29.88H518.169V40.68H535.329V48.9H518.169V60.9H538.089V69.12H508.329ZM581.095 45.36C581.095 52.44 580.135 58.86 576.595 63.54C573.535 67.62 568.915 69.96 562.015 69.96C555.055 69.96 550.495 67.62 547.435 63.54C543.895 58.86 542.875 52.44 542.875 45.36C542.875 38.34 543.895 31.92 547.435 27.24C550.495 23.16 555.055 20.82 562.015 20.82C568.915 20.82 573.535 23.16 576.595 27.24C580.135 31.92 581.095 38.34 581.095 45.36ZM552.775 45.36C552.775 52.38 553.495 55.92 555.175 58.38C556.615 60.54 558.895 61.68 562.015 61.68C565.135 61.68 567.415 60.54 568.855 58.38C570.535 55.92 571.195 52.38 571.195 45.36C571.195 38.4 570.535 34.86 568.855 32.4C567.415 30.24 565.135 29.1 562.015 29.1C558.895 29.1 556.615 30.24 555.175 32.4C553.495 34.86 552.775 38.4 552.775 45.36ZM599.752 69.96C589.492 69.96 583.972 64.32 583.972 54.36V53.7H593.872C593.992 59.4 595.912 61.68 599.752 61.68C603.712 61.68 605.632 59.34 605.632 53.1V21.66H615.532V54.36C615.532 64.32 610.072 69.96 599.752 69.96ZM632.31 21.66V69.12H622.47V21.66H632.31ZM664.245 69.12L649.185 38.7V69.12H639.345V21.66H649.305L664.365 52.14V21.66H674.265V69.12H664.245Z" fill="black"/>
<path d="M32.4601 21.66V69.12H22.6201V21.66H32.4601ZM69.0751 47.64V69.12H59.7151V47.82C59.7151 43.62 58.0351 41.64 54.9151 41.64C50.9551 41.64 48.3751 44.64 48.3751 49.98V69.12H38.9551V35.22H48.3751V40.86C49.5751 36.96 52.9951 34.38 57.8551 34.38C65.0551 34.38 69.0751 38.94 69.0751 47.64ZM87.0601 42.48V57.6C87.0601 61.5 88.2601 62.4 92.4001 62.4H95.8801V69.42C94.6201 69.54 91.8601 69.6 90.1801 69.6C81.1801 69.6 77.7001 66.84 77.7001 59.04V42.48H72.7801V35.22H77.7001V25.62H87.0601V35.22H95.8801V42.48H87.0601ZM131.079 54.72H108.939C109.179 60.18 111.339 63.12 115.359 63.12C118.419 63.12 120.399 61.56 120.939 58.8H130.419C129.339 65.7 123.939 69.96 115.359 69.96C104.619 69.96 99.5785 63.18 99.5785 52.14C99.5785 41.22 104.619 34.38 115.359 34.38C126.159 34.38 131.139 41.22 131.139 52.14C131.139 53.04 131.139 54 131.079 54.72ZM115.359 41.28C111.339 41.28 109.179 43.92 108.999 48.84H121.659C121.479 43.92 119.319 41.28 115.359 41.28ZM154.279 42.12C148.879 42.12 145.699 45.6 145.699 52.2V69.12H136.279V35.22H145.699V41.52C146.719 36.78 149.479 34.38 154.519 34.38C155.539 34.38 156.499 34.5 157.159 34.68L157.039 42.24C156.499 42.18 155.419 42.12 154.279 42.12ZM180.747 69.12H170.667L158.727 35.22H168.327L175.707 59.28L183.147 35.22H192.747L180.747 69.12ZM196.695 29.82V21.66H206.055V29.82H196.695ZM196.695 69.12V35.22H206.055V69.12H196.695ZM242.875 54.72H220.735C220.975 60.18 223.135 63.12 227.155 63.12C230.215 63.12 232.195 61.56 232.735 58.8H242.215C241.135 65.7 235.735 69.96 227.155 69.96C216.415 69.96 211.375 63.18 211.375 52.14C211.375 41.22 216.415 34.38 227.155 34.38C237.955 34.38 242.935 41.22 242.935 52.14C242.935 53.04 242.935 54 242.875 54.72ZM227.155 41.28C223.135 41.28 220.975 43.92 220.795 48.84H233.455C233.275 43.92 231.115 41.28 227.155 41.28ZM288.345 69.12H278.985L272.265 46.26L265.605 69.12H256.245L245.505 35.22H254.925L261.405 58.92L268.305 35.22H276.285L283.185 58.92L289.665 35.22H299.085L288.345 69.12Z" fill="black"/>
<rect x="7.75" y="5.75" width="300.5" height="79.5" stroke="black" stroke-width="1.5"/>
<rect x="0.75" y="-0.75" width="11.5" height="11.5" transform="matrix(1 0 0 -1 0 11.5)" stroke="black" stroke-width="1.5"/>
<rect x="0.75" y="-0.75" width="11.5" height="11.5" transform="matrix(1 0 0 -1 151 11.5)" stroke="black" stroke-width="1.5"/>
<rect x="0.75" y="-0.75" width="11.5" height="11.5" transform="matrix(1 0 0 -1 302 11.5)" stroke="black" stroke-width="1.5"/>
<rect x="0.75" y="-0.75" width="11.5" height="11.5" transform="matrix(1 0 0 -1 302 90.5)" stroke="black" stroke-width="1.5"/>
<rect x="0.75" y="-0.75" width="11.5" height="11.5" transform="matrix(1 0 0 -1 151 90.5)" stroke="black" stroke-width="1.5"/>
<rect x="0.75" y="-0.75" width="11.5" height="11.5" transform="matrix(1 0 0 -1 0 90.5)" stroke="black" stroke-width="1.5"/>
</svg>
