<svg width="469" height="133" viewBox="0 0 469 133" fill="none" xmlns="http://www.w3.org/2000/svg">
<g filter="url(#filter0_d_2654_62)">
<rect x="16" y="88" width="245" height="38" fill="#FFADAD"/>
</g>
<path d="M173.552 9.65H173.762C174.696 9.65 175.419 10.3267 175.932 11.68C175.932 12.1933 174.999 13.4067 173.132 15.32C172.526 16.72 172.222 17.98 172.222 19.1V20.57C172.222 21.3167 172.666 22.6467 173.552 24.56C173.552 25.54 172.829 26.2633 171.382 26.73C169.609 26.73 168.489 24.49 168.022 20.01V19.73C168.022 15.2967 169.866 11.9367 173.552 9.65ZM179.222 13.43H179.432C180.412 13.43 180.996 14.1533 181.182 15.6C181.182 16.3 180.249 17.2333 178.382 18.4L177.962 20.15V20.57L178.522 23.23C178.522 24.07 177.799 24.7933 176.352 25.4C174.626 24.84 173.762 23.1833 173.762 20.43C173.762 17.1167 175.582 14.7833 179.222 13.43ZM187.509 13.22C188.629 13.22 189.352 13.8033 189.679 14.97L189.259 19.1V20.43C190.425 30.09 191.149 37.6033 191.429 42.97C191.942 47.9633 192.479 50.46 193.039 50.46C193.039 51.44 192.222 52.07 190.589 52.35C188.255 52.35 187.089 47.6367 187.089 38.21L185.129 20.01V19.38C185.129 15.2733 185.922 13.22 187.509 13.22ZM199.742 10.56C201.188 10.56 202.122 12.31 202.542 15.81V16.23C202.542 17.8167 201.795 18.61 200.302 18.61C198.855 18.61 198.132 17.0933 198.132 14.06C197.805 14.06 197.595 13.5233 197.502 12.45C197.968 11.19 198.715 10.56 199.742 10.56ZM207.761 27.5C208.087 26.3333 208.834 25.75 210.001 25.75C211.167 25.75 211.937 26.9167 212.311 29.25H212.591L215.811 28.55C217.304 28.55 218.751 29.95 220.151 32.75H220.431C222.484 29.53 224.584 27.92 226.731 27.92C231.304 28.76 233.591 31.7467 233.591 36.88L233.731 39.33L233.101 53.47V54.8C233.101 55.9667 232.377 56.6433 230.931 56.83C229.484 56.83 228.761 55.1267 228.761 51.72L229.601 39.05C229.601 34.3833 228.504 32.05 226.311 32.05C225.051 32.05 223.534 35.1067 221.761 41.22C220.874 48.22 220.151 51.72 219.591 51.72C218.797 51.72 218.401 51.8833 218.401 52.21C216.954 52.0233 216.231 51.2767 216.231 49.97L217.141 41.5C217.001 35.6667 216.417 32.75 215.391 32.75H215.181C214.014 33.6367 213.431 35.3867 213.431 38V41.71L213.151 52.42C212.824 53.5867 212.101 54.17 210.981 54.17C210.001 54.17 209.371 53.3533 209.091 51.72L208.811 43.46L209.231 36.67C208.951 33.17 208.461 30.1133 207.761 27.5ZM277.084 24.98C279.137 24.98 280.164 25.7967 280.164 27.43L279.534 28.76L279.114 41.57C279.114 47.3567 280.281 50.95 282.614 52.35L282.754 53.4C282.614 54.7533 281.984 55.43 280.864 55.43H280.444C276.944 53.05 275.194 49.41 275.194 44.51H274.704C272.837 49.7367 270.574 52.35 267.914 52.35C265.441 51.65 264.204 49.8067 264.204 46.82C264.204 40.24 266.841 33.6833 272.114 27.15C273.887 25.7033 275.544 24.98 277.084 24.98ZM268.614 44.02L268.334 45.98V47.31H269.034C272.534 38.5833 274.284 33.2633 274.284 31.35H274.004C271.297 34.3833 269.501 38.6067 268.614 44.02ZM293.534 28.41C297.5 28.7367 299.484 30.6733 299.484 34.22L299.624 35.13L299.484 46.05C299.484 47.31 300.207 49.0133 301.654 51.16V51.3C301.28 52.6533 300.604 53.33 299.624 53.33C296.73 52.1167 295.284 49.55 295.284 45.63V44.72L295.074 44.58L295.284 44.3V44.16L295.494 34.5C295.494 33.1467 294.91 32.47 293.744 32.47H292.904C290.57 33.4033 289.404 38.5133 289.404 47.8C289.404 51.02 288.587 52.63 286.954 52.63C285.694 52.63 285.04 51.8367 284.994 50.25V43.25C284.994 34.1967 285.787 29.67 287.374 29.67L288.074 29.46L289.544 29.67C290.804 28.83 292.134 28.41 293.534 28.41ZM53.3783 70.42L55.1283 69.86C56.7149 69.86 57.5083 71.96 57.5083 76.16L59.6783 92.33L59.9583 92.61L68.0083 89.67C69.0816 89.67 69.6649 90.4867 69.7583 92.12C69.7583 93.3333 66.7949 94.8033 60.8683 96.53L60.5883 96.67V96.95C60.5883 97.93 62.1283 103.04 65.2083 112.28V112.42C65.2083 113.307 64.4849 114.053 63.0383 114.66C61.6849 114.66 60.7983 113.05 60.3783 109.83C59.3049 107.497 57.9983 103.647 56.4583 98.28H56.1783C50.0649 99.54 47.0083 100.613 47.0083 101.5C43.6483 108.78 41.1049 112.42 39.3783 112.42C38.3983 112.42 37.8149 111.79 37.6283 110.53C37.6283 109.41 38.8649 107.217 41.3383 103.95L42.4583 101.5H40.7083L39.3783 101.78C37.6516 101.36 36.7883 100.473 36.7883 99.12C37.4883 97.4867 38.5149 96.67 39.8683 96.67L41.6183 97.37C44.2316 97.37 45.5383 96.4133 45.5383 94.5C47.9183 88.9 50.5316 80.8733 53.3783 70.42ZM54.0083 83.16L49.8783 95.62C53.7049 94.8733 55.6183 94.15 55.6183 93.45C54.9183 86.59 54.3816 83.16 54.0083 83.16ZM72.9559 87.5C73.2825 86.3333 74.0292 85.75 75.1959 85.75C76.3625 85.75 77.1325 86.9167 77.5059 89.25H77.7859L81.0059 88.55C82.4992 88.55 83.9459 89.95 85.3459 92.75H85.6259C87.6792 89.53 89.7792 87.92 91.9259 87.92C96.4992 88.76 98.7859 91.7467 98.7859 96.88L98.9259 99.33L98.2959 113.47V114.8C98.2959 115.967 97.5725 116.643 96.1259 116.83C94.6792 116.83 93.9559 115.127 93.9559 111.72L94.7959 99.05C94.7959 94.3833 93.6992 92.05 91.5059 92.05C90.2459 92.05 88.7292 95.1067 86.9559 101.22C86.0692 108.22 85.3459 111.72 84.7859 111.72C83.9925 111.72 83.5959 111.883 83.5959 112.21C82.1492 112.023 81.4259 111.277 81.4259 109.97L82.3359 101.5C82.1959 95.6667 81.6125 92.75 80.5859 92.75H80.3759C79.2092 93.6367 78.6259 95.3867 78.6259 98V101.71L78.3459 112.42C78.0192 113.587 77.2959 114.17 76.1759 114.17C75.1959 114.17 74.5659 113.353 74.2859 111.72L74.0059 103.46L74.4259 96.67C74.1459 93.17 73.6559 90.1133 72.9559 87.5ZM103.363 78.75C105.789 78.75 107.353 83.51 108.053 93.03L108.473 95.2C110.619 90.8133 112.369 88.62 113.723 88.62C113.723 88.4333 114.213 88.2933 115.193 88.2H115.473C118.553 88.2 120.513 90.6033 121.353 95.41V95.62C121.353 99.7267 119.299 104.253 115.193 109.2C113.466 111.067 111.576 112 109.523 112C107.189 111.487 106.023 110.32 106.023 108.5L102.523 83.37L101.473 80.78C101.473 79.94 102.103 79.2633 103.363 78.75ZM110.643 107.17H110.853C113.279 106.19 115.403 102.853 117.223 97.16V94.5C116.803 93.0533 116.266 92.33 115.613 92.33H115.053C112.999 93.5433 111.529 98.49 110.643 107.17ZM125.723 75.53C127.496 75.9033 128.383 76.6967 128.383 77.91C127.916 79.2167 127.169 79.87 126.143 79.87C124.416 79.5433 123.553 78.68 123.553 77.28C124.019 76.1133 124.743 75.53 125.723 75.53ZM128.383 85.33C129.129 85.33 129.759 86.0067 130.273 87.36L129.643 92.33V95.62C129.643 99.4467 130.296 104.463 131.603 110.67C131.136 111.557 130.343 112 129.223 112C127.309 112 126.049 106.4 125.443 95.2V92.75C125.443 87.8033 126.423 85.33 128.383 85.33ZM143.465 69.51C144.772 69.79 145.425 70.4433 145.425 71.47L145.005 74.55V75.46C145.005 77.5133 145.238 79.6833 145.705 81.97H145.845C151.258 80.3367 154.618 79.52 155.925 79.52C157.278 79.8933 157.955 80.57 157.955 81.55C157.955 83.1367 156.345 83.93 153.125 83.93L145.845 86.52C145.845 92.82 146.522 101.383 147.875 112.21C147.595 113.47 146.918 114.1 145.845 114.1H145.705C144.072 114.1 143.255 112 143.255 107.8C142.648 104.673 142.135 97.8833 141.715 87.43H140.455C136.068 87.15 133.875 86.1233 133.875 84.35C133.875 83.8367 134.365 83.2067 135.345 82.46H136.045L139.265 83.3H141.505L140.875 74.55C140.875 71.19 141.738 69.51 143.465 69.51ZM160.928 75.53C162.701 75.9033 163.588 76.6967 163.588 77.91C163.121 79.2167 162.374 79.87 161.348 79.87C159.621 79.5433 158.758 78.68 158.758 77.28C159.224 76.1133 159.948 75.53 160.928 75.53ZM163.588 85.33C164.334 85.33 164.964 86.0067 165.478 87.36L164.848 92.33V95.62C164.848 99.4467 165.501 104.463 166.808 110.67C166.341 111.557 165.548 112 164.428 112C162.514 112 161.254 106.4 160.648 95.2V92.75C160.648 87.8033 161.628 85.33 163.588 85.33ZM181.61 85.61C185.063 85.61 187.677 88.1767 189.45 93.31L189.73 94.78C189.73 99.7733 187.397 104.883 182.73 110.11C180.863 111.837 178.973 112.7 177.06 112.7C174.26 112.7 172.277 111.09 171.11 107.87C170.69 106.377 170.48 105.07 170.48 103.95V103.11C170.48 95.7367 173.163 90.1367 178.53 86.31C179.463 85.8433 180.49 85.61 181.61 85.61ZM174.61 103.81C174.61 106.983 175.427 108.57 177.06 108.57C180.467 108.57 183.29 104.207 185.53 95.48V94.15C184.737 91.2567 183.267 89.81 181.12 89.81C180.28 89.81 179.86 90.3933 179.86 91.56C179.86 92.3533 178.927 92.9833 177.06 93.45C175.427 96.2033 174.61 99.6567 174.61 103.81ZM195.632 90.93L196.892 90.23C198.012 90.23 198.829 90.9067 199.342 92.26C198.595 95.7133 198.222 99.26 198.222 102.9C198.222 104.72 198.759 106.703 199.832 108.85H200.252C201.605 108.85 203.215 103.507 205.082 92.82C205.735 92.26 206.365 91.98 206.972 91.98C208.419 91.98 209.142 94.5467 209.142 99.68C209.749 105.327 210.425 108.15 211.172 108.15L212.222 107.73C213.575 108.243 214.252 108.967 214.252 109.9C213.412 111.673 212.245 112.56 210.752 112.56C209.072 112.56 207.462 110.88 205.922 107.52C204.055 111.44 202.165 113.4 200.252 113.4C197.405 113.4 195.422 110.437 194.302 104.51L194.092 102.27V101.57C194.092 97.8367 194.605 94.29 195.632 90.93ZM229.802 83.65C231.062 83.65 231.926 85.7733 232.392 90.02C231.926 91.1867 231.156 91.77 230.082 91.77C229.336 91.63 228.589 90.7667 227.842 89.18L226.582 88.76C224.389 88.76 222.406 90.2067 220.632 93.1V93.73C220.632 94.43 223.922 95.5967 230.502 97.23C233.256 98.8633 234.632 100.847 234.632 103.18C234.632 107.007 231.552 110.273 225.392 112.98L222.802 113.4C218.882 112.98 216.922 111.02 216.922 107.52V107.31C216.922 106.19 217.646 105.537 219.092 105.35C220.212 105.35 220.959 106.517 221.332 108.85L221.892 109.27H223.082C225.742 109.27 228.216 107.45 230.502 103.81V102.9C230.502 101.5 227.446 100.193 221.332 98.98C218.112 97.6733 216.502 95.8533 216.502 93.52C216.502 90.4867 219.046 87.64 224.132 84.98C226.372 84.7 228.262 84.2567 229.802 83.65ZM278.144 70.42L279.894 69.86C281.481 69.86 282.274 71.96 282.274 76.16L284.444 92.33L284.724 92.61L292.774 89.67C293.847 89.67 294.431 90.4867 294.524 92.12C294.524 93.3333 291.561 94.8033 285.634 96.53L285.354 96.67V96.95C285.354 97.93 286.894 103.04 289.974 112.28V112.42C289.974 113.307 289.251 114.053 287.804 114.66C286.451 114.66 285.564 113.05 285.144 109.83C284.071 107.497 282.764 103.647 281.224 98.28H280.944C274.831 99.54 271.774 100.613 271.774 101.5C268.414 108.78 265.871 112.42 264.144 112.42C263.164 112.42 262.581 111.79 262.394 110.53C262.394 109.41 263.631 107.217 266.104 103.95L267.224 101.5H265.474L264.144 101.78C262.417 101.36 261.554 100.473 261.554 99.12C262.254 97.4867 263.281 96.67 264.634 96.67L266.384 97.37C268.997 97.37 270.304 96.4133 270.304 94.5C272.684 88.9 275.297 80.8733 278.144 70.42ZM278.774 83.16L274.644 95.62C278.471 94.8733 280.384 94.15 280.384 93.45C279.684 86.59 279.147 83.16 278.774 83.16ZM305.841 84.42C308.781 84.42 310.531 86.4733 311.091 90.58V91.21C311.091 95.7367 308.758 99.89 304.091 103.67C306.798 106.33 311.535 107.66 318.301 107.66C319.328 107.987 319.841 108.71 319.841 109.83C319.841 111.09 319.025 111.72 317.391 111.72C312.818 111.72 308.011 110.553 302.971 108.22V110.25C302.971 115.057 301.945 117.46 299.891 117.46C298.445 117.46 297.721 114.683 297.721 109.13V103.67L297.511 101.71L298.001 99.47L297.511 92.75V92.47C297.511 91.21 298.165 90.3467 299.471 89.88C301.291 86.24 303.415 84.42 305.841 84.42ZM302.341 99.75C303.695 99.75 305.211 97.3233 306.891 92.47V89.46L306.051 88.55H305.421C303.368 89.95 302.341 93.6833 302.341 99.75ZM330.428 69.51C331.735 69.79 332.388 70.4433 332.388 71.47L331.968 74.55V75.46C331.968 77.5133 332.201 79.6833 332.668 81.97H332.808C338.221 80.3367 341.581 79.52 342.888 79.52C344.241 79.8933 344.918 80.57 344.918 81.55C344.918 83.1367 343.308 83.93 340.088 83.93L332.808 86.52C332.808 92.82 333.485 101.383 334.838 112.21C334.558 113.47 333.881 114.1 332.808 114.1H332.668C331.035 114.1 330.218 112 330.218 107.8C329.611 104.673 329.098 97.8833 328.678 87.43H327.418C323.031 87.15 320.838 86.1233 320.838 84.35C320.838 83.8367 321.328 83.2067 322.308 82.46H323.008L326.228 83.3H328.468L327.838 74.55C327.838 71.19 328.701 69.51 330.428 69.51ZM347.891 75.53C349.664 75.9033 350.551 76.6967 350.551 77.91C350.084 79.2167 349.337 79.87 348.311 79.87C346.584 79.5433 345.721 78.68 345.721 77.28C346.187 76.1133 346.911 75.53 347.891 75.53ZM350.551 85.33C351.297 85.33 351.927 86.0067 352.441 87.36L351.811 92.33V95.62C351.811 99.4467 352.464 104.463 353.771 110.67C353.304 111.557 352.511 112 351.391 112C349.477 112 348.217 106.4 347.611 95.2V92.75C347.611 87.8033 348.591 85.33 350.551 85.33ZM371.443 83.65C372.703 83.65 373.566 85.7733 374.033 90.02C373.566 91.1867 372.796 91.77 371.723 91.77C370.976 91.63 370.23 90.7667 369.483 89.18L368.223 88.76C366.03 88.76 364.046 90.2067 362.273 93.1V93.73C362.273 94.43 365.563 95.5967 372.143 97.23C374.896 98.8633 376.273 100.847 376.273 103.18C376.273 107.007 373.193 110.273 367.033 112.98L364.443 113.4C360.523 112.98 358.563 111.02 358.563 107.52V107.31C358.563 106.19 359.286 105.537 360.733 105.35C361.853 105.35 362.6 106.517 362.973 108.85L363.533 109.27H364.723C367.383 109.27 369.856 107.45 372.143 103.81V102.9C372.143 101.5 369.086 100.193 362.973 98.98C359.753 97.6733 358.143 95.8533 358.143 93.52C358.143 90.4867 360.686 87.64 365.773 84.98C368.013 84.7 369.903 84.2567 371.443 83.65ZM387.098 69.51C388.404 69.79 389.058 70.4433 389.058 71.47L388.638 74.55V75.46C388.638 77.5133 388.871 79.6833 389.338 81.97H389.478C394.891 80.3367 398.251 79.52 399.558 79.52C400.911 79.8933 401.588 80.57 401.588 81.55C401.588 83.1367 399.978 83.93 396.758 83.93L389.478 86.52C389.478 92.82 390.154 101.383 391.508 112.21C391.228 113.47 390.551 114.1 389.478 114.1H389.338C387.704 114.1 386.888 112 386.888 107.8C386.281 104.673 385.768 97.8833 385.348 87.43H384.088C379.701 87.15 377.508 86.1233 377.508 84.35C377.508 83.8367 377.998 83.2067 378.978 82.46H379.678L382.898 83.3H385.138L384.508 74.55C384.508 71.19 385.371 69.51 387.098 69.51ZM409.391 107.87C410.371 107.87 410.954 108.663 411.141 110.25C410.861 111.883 410.044 112.7 408.691 112.7C407.757 112.7 407.104 111.883 406.731 110.25C407.291 108.663 408.177 107.87 409.391 107.87ZM422.175 69.65H422.385C423.319 69.65 424.042 70.3267 424.555 71.68C424.555 72.1933 423.622 73.4067 421.755 75.32C421.149 76.72 420.845 77.98 420.845 79.1V80.57C420.845 81.3167 421.289 82.6467 422.175 84.56C422.175 85.54 421.452 86.2633 420.005 86.73C418.232 86.73 417.112 84.49 416.645 80.01V79.73C416.645 75.2967 418.489 71.9367 422.175 69.65ZM427.845 73.43H428.055C429.035 73.43 429.619 74.1533 429.805 75.6C429.805 76.3 428.872 77.2333 427.005 78.4L426.585 80.15V80.57L427.145 83.23C427.145 84.07 426.422 84.7933 424.975 85.4C423.249 84.84 422.385 83.1833 422.385 80.43C422.385 77.1167 424.205 74.7833 427.845 73.43Z" fill="black"/>
<defs>
<filter id="filter0_d_2654_62" x="15" y="87" width="253" height="46" filterUnits="userSpaceOnUse" color-interpolation-filters="sRGB">
<feFlood flood-opacity="0" result="BackgroundImageFix"/>
<feColorMatrix in="SourceAlpha" type="matrix" values="0 0 0 0 0 0 0 0 0 0 0 0 0 0 0 0 0 0 127 0" result="hardAlpha"/>
<feOffset dx="3" dy="3"/>
<feGaussianBlur stdDeviation="2"/>
<feComposite in2="hardAlpha" operator="out"/>
<feColorMatrix type="matrix" values="0 0 0 0 0 0 0 0 0 0 0 0 0 0 0 0 0 0 0.25 0"/>
<feBlend mode="normal" in2="BackgroundImageFix" result="effect1_dropShadow_2654_62"/>
<feBlend mode="normal" in="SourceGraphic" in2="effect1_dropShadow_2654_62" result="shape"/>
</filter>
</defs>
</svg>
