<svg width="724" height="92" viewBox="0 0 724 92" fill="none" xmlns="http://www.w3.org/2000/svg">
<rect x="566" y="46" width="158" height="42" fill="#F0C0D8"/>
<path d="M351.76 41.94L361.48 21.66H371.74L356.68 50.4V69.12H346.84V50.4L331.84 21.66H342.1L351.76 41.94ZM409.791 69.12H399.711L397.131 60H381.171L378.591 69.12H368.511L383.691 21.66H394.611L409.791 69.12ZM389.151 31.8L383.391 51.96H394.851L389.151 31.8ZM438.776 69.12L423.716 38.7V69.12H413.876V21.66H423.836L438.896 52.14V21.66H448.796V69.12H438.776ZM454.868 45.36C454.868 38.34 455.888 31.92 459.428 27.24C462.488 23.16 467.048 20.82 474.008 20.82C485.288 20.82 492.008 27.42 492.608 37.86H482.768C482.408 32.4 479.408 29.1 474.008 29.1C470.888 29.1 468.608 30.24 467.168 32.4C465.488 34.86 464.768 38.4 464.768 45.36C464.768 58.2 467.828 61.68 474.128 61.68C480.248 61.68 482.708 57.54 483.128 51.3H474.248V43.98H492.548V69.12H485.468L484.328 63.54C482.648 67.38 478.748 69.96 472.988 69.96C459.248 69.96 454.868 58.62 454.868 45.36ZM550.124 55.5C550.124 63.9 543.944 69.96 533.024 69.96C522.224 69.96 515.924 64.02 515.924 55.68V54.78H525.764V55.8C525.764 59.46 528.464 61.98 533.024 61.98C537.524 61.98 540.224 59.46 540.224 55.8C540.224 52.56 538.184 50.34 533.744 49.44L528.644 48.42C520.664 46.86 515.804 42.54 515.804 34.56C515.804 27 521.504 20.82 532.064 20.82C542.624 20.82 548.324 27.06 548.324 34.32V35.04H538.484V34.32C538.484 31.08 536.204 28.86 532.064 28.86C527.864 28.86 525.644 31.08 525.644 34.32C525.644 37.62 527.684 39.3 532.244 40.26L537.344 41.28C545.624 42.96 550.124 47.64 550.124 55.5ZM573.436 69.96C561.136 69.96 555.256 62.7 555.256 51.54V21.66H565.156V51.12C565.156 58.2 567.736 61.68 573.436 61.68C579.076 61.68 581.716 58.2 581.716 51.12V21.66H591.556V51.54C591.556 62.7 585.676 69.96 573.436 69.96ZM626.649 69.12H618.489L607.929 41.46V69.12H598.329V21.66H608.349L622.569 58.86L636.789 21.66H646.809V69.12H637.209V41.46L626.649 69.12ZM663.716 21.66V69.12H653.876V21.66H663.716ZM695.651 69.12L680.591 38.7V69.12H670.751V21.66H680.711L695.771 52.14V21.66H705.671V69.12H695.651Z" fill="black"/>
<path d="M32.4601 21.66V69.12H22.6201V21.66H32.4601ZM69.0751 47.64V69.12H59.7151V47.82C59.7151 43.62 58.0351 41.64 54.9151 41.64C50.9551 41.64 48.3751 44.64 48.3751 49.98V69.12H38.9551V35.22H48.3751V40.86C49.5751 36.96 52.9951 34.38 57.8551 34.38C65.0551 34.38 69.0751 38.94 69.0751 47.64ZM87.0601 42.48V57.6C87.0601 61.5 88.2601 62.4 92.4001 62.4H95.8801V69.42C94.6201 69.54 91.8601 69.6 90.1801 69.6C81.1801 69.6 77.7001 66.84 77.7001 59.04V42.48H72.7801V35.22H77.7001V25.62H87.0601V35.22H95.8801V42.48H87.0601ZM131.079 54.72H108.939C109.179 60.18 111.339 63.12 115.359 63.12C118.419 63.12 120.399 61.56 120.939 58.8H130.419C129.339 65.7 123.939 69.96 115.359 69.96C104.619 69.96 99.5785 63.18 99.5785 52.14C99.5785 41.22 104.619 34.38 115.359 34.38C126.159 34.38 131.139 41.22 131.139 52.14C131.139 53.04 131.139 54 131.079 54.72ZM115.359 41.28C111.339 41.28 109.179 43.92 108.999 48.84H121.659C121.479 43.92 119.319 41.28 115.359 41.28ZM154.279 42.12C148.879 42.12 145.699 45.6 145.699 52.2V69.12H136.279V35.22H145.699V41.52C146.719 36.78 149.479 34.38 154.519 34.38C155.539 34.38 156.499 34.5 157.159 34.68L157.039 42.24C156.499 42.18 155.419 42.12 154.279 42.12ZM180.747 69.12H170.667L158.727 35.22H168.327L175.707 59.28L183.147 35.22H192.747L180.747 69.12ZM196.695 29.82V21.66H206.055V29.82H196.695ZM196.695 69.12V35.22H206.055V69.12H196.695ZM242.875 54.72H220.735C220.975 60.18 223.135 63.12 227.155 63.12C230.215 63.12 232.195 61.56 232.735 58.8H242.215C241.135 65.7 235.735 69.96 227.155 69.96C216.415 69.96 211.375 63.18 211.375 52.14C211.375 41.22 216.415 34.38 227.155 34.38C237.955 34.38 242.935 41.22 242.935 52.14C242.935 53.04 242.935 54 242.875 54.72ZM227.155 41.28C223.135 41.28 220.975 43.92 220.795 48.84H233.455C233.275 43.92 231.115 41.28 227.155 41.28ZM288.345 69.12H278.985L272.265 46.26L265.605 69.12H256.245L245.505 35.22H254.925L261.405 58.92L268.305 35.22H276.285L283.185 58.92L289.665 35.22H299.085L288.345 69.12Z" fill="black"/>
<rect x="7.75" y="5.75" width="300.5" height="79.5" stroke="black" stroke-width="1.5"/>
<rect x="0.75" y="-0.75" width="11.5" height="11.5" transform="matrix(1 0 0 -1 0 11.5)" stroke="black" stroke-width="1.5"/>
<rect x="0.75" y="-0.75" width="11.5" height="11.5" transform="matrix(1 0 0 -1 151 11.5)" stroke="black" stroke-width="1.5"/>
<rect x="0.75" y="-0.75" width="11.5" height="11.5" transform="matrix(1 0 0 -1 302 11.5)" stroke="black" stroke-width="1.5"/>
<rect x="0.75" y="-0.75" width="11.5" height="11.5" transform="matrix(1 0 0 -1 302 90.5)" stroke="black" stroke-width="1.5"/>
<rect x="0.75" y="-0.75" width="11.5" height="11.5" transform="matrix(1 0 0 -1 151 90.5)" stroke="black" stroke-width="1.5"/>
<rect x="0.75" y="-0.75" width="11.5" height="11.5" transform="matrix(1 0 0 -1 0 90.5)" stroke="black" stroke-width="1.5"/>
</svg>
