<svg width="469" height="133" viewBox="0 0 469 133" fill="none" xmlns="http://www.w3.org/2000/svg">
<g filter="url(#filter0_d_2662_109)">
<rect x="16" y="88" width="245" height="38" fill="#F0C0D8"/>
</g>
<path d="M183.259 9.65H183.469C184.403 9.65 185.126 10.3267 185.639 11.68C185.639 12.1933 184.706 13.4067 182.839 15.32C182.233 16.72 181.929 17.98 181.929 19.1V20.57C181.929 21.3167 182.373 22.6467 183.259 24.56C183.259 25.54 182.536 26.2633 181.089 26.73C179.316 26.73 178.196 24.49 177.729 20.01V19.73C177.729 15.2967 179.573 11.9367 183.259 9.65ZM188.929 13.43H189.139C190.119 13.43 190.703 14.1533 190.889 15.6C190.889 16.3 189.956 17.2333 188.089 18.4L187.669 20.15V20.57L188.229 23.23C188.229 24.07 187.506 24.7933 186.059 25.4C184.333 24.84 183.469 23.1833 183.469 20.43C183.469 17.1167 185.289 14.7833 188.929 13.43ZM197.216 13.22C198.336 13.22 199.059 13.8033 199.386 14.97L198.966 19.1V20.43C200.132 30.09 200.856 37.6033 201.136 42.97C201.649 47.9633 202.186 50.46 202.746 50.46C202.746 51.44 201.929 52.07 200.296 52.35C197.962 52.35 196.796 47.6367 196.796 38.21L194.836 20.01V19.38C194.836 15.2733 195.629 13.22 197.216 13.22ZM209.449 10.56C210.895 10.56 211.829 12.31 212.249 15.81V16.23C212.249 17.8167 211.502 18.61 210.009 18.61C208.562 18.61 207.839 17.0933 207.839 14.06C207.512 14.06 207.302 13.5233 207.209 12.45C207.675 11.19 208.422 10.56 209.449 10.56ZM217.468 27.5C217.794 26.3333 218.541 25.75 219.708 25.75C220.874 25.75 221.644 26.9167 222.018 29.25H222.298L225.518 28.55C227.011 28.55 228.458 29.95 229.858 32.75H230.138C232.191 29.53 234.291 27.92 236.438 27.92C241.011 28.76 243.298 31.7467 243.298 36.88L243.438 39.33L242.808 53.47V54.8C242.808 55.9667 242.084 56.6433 240.638 56.83C239.191 56.83 238.468 55.1267 238.468 51.72L239.308 39.05C239.308 34.3833 238.211 32.05 236.018 32.05C234.758 32.05 233.241 35.1067 231.468 41.22C230.581 48.22 229.858 51.72 229.298 51.72C228.504 51.72 228.108 51.8833 228.108 52.21C226.661 52.0233 225.938 51.2767 225.938 49.97L226.848 41.5C226.708 35.6667 226.124 32.75 225.098 32.75H224.888C223.721 33.6367 223.138 35.3867 223.138 38V41.71L222.858 52.42C222.531 53.5867 221.808 54.17 220.688 54.17C219.708 54.17 219.078 53.3533 218.798 51.72L218.518 43.46L218.938 36.67C218.658 33.17 218.168 30.1133 217.468 27.5ZM286.791 24.98C288.844 24.98 289.871 25.7967 289.871 27.43L289.241 28.76L288.821 41.57C288.821 47.3567 289.988 50.95 292.321 52.35L292.461 53.4C292.321 54.7533 291.691 55.43 290.571 55.43H290.151C286.651 53.05 284.901 49.41 284.901 44.51H284.411C282.544 49.7367 280.281 52.35 277.621 52.35C275.148 51.65 273.911 49.8067 273.911 46.82C273.911 40.24 276.548 33.6833 281.821 27.15C283.594 25.7033 285.251 24.98 286.791 24.98ZM278.321 44.02L278.041 45.98V47.31H278.741C282.241 38.5833 283.991 33.2633 283.991 31.35H283.711C281.004 34.3833 279.208 38.6067 278.321 44.02ZM32.3542 66.01H33.4742C41.0809 66.01 45.9576 68.7633 48.1042 74.27L48.3142 76.51V77.21C48.3142 82.6233 45.0242 87.64 38.4442 92.26C36.8576 92.7267 36.0642 93.24 36.0642 93.8C37.9309 100.94 38.8642 106.773 38.8642 111.3V112.21C38.8642 114.077 38.0942 115.01 36.5542 115.01C35.3876 114.87 34.8042 114.287 34.8042 113.26V111.51C34.8042 106.143 33.8242 100.31 31.8642 94.01C28.0842 93.6833 25.9842 92.6567 25.5642 90.93V90.51C25.5642 89.67 26.2176 89.0167 27.5242 88.55L30.6042 89.6V89.46C29.0176 82.5533 28.2242 77.8867 28.2242 75.46C28.2242 74.1067 29.0176 73.43 30.6042 73.43C32.0509 73.43 32.7742 75.9033 32.7742 80.85L34.8042 89.18C38.1642 88.06 40.7776 85.8667 42.6442 82.6C43.6242 80.7333 44.1142 79.0767 44.1142 77.63V76.72C44.1142 72.8933 40.8476 70.7233 34.3142 70.21H31.4442C25.0509 70.91 21.8542 72.4267 21.8542 74.76V75.18C21.8542 75.88 22.2276 76.9767 22.9742 78.47C22.9742 79.4967 22.1576 80.15 20.5242 80.43C18.6576 79.5433 17.7242 77.7233 17.7242 74.97C17.7242 69.8367 22.6009 66.85 32.3542 66.01ZM64.3497 84.98C66.403 84.98 67.4297 85.7967 67.4297 87.43L66.7997 88.76L66.3797 101.57C66.3797 107.357 67.5464 110.95 69.8797 112.35L70.0197 113.4C69.8797 114.753 69.2497 115.43 68.1297 115.43H67.7097C64.2097 113.05 62.4597 109.41 62.4597 104.51H61.9697C60.103 109.737 57.8397 112.35 55.1797 112.35C52.7064 111.65 51.4697 109.807 51.4697 106.82C51.4697 100.24 54.1064 93.6833 59.3797 87.15C61.153 85.7033 62.8097 84.98 64.3497 84.98ZM55.8797 104.02L55.5997 105.98V107.31H56.2997C59.7997 98.5833 61.5497 93.2633 61.5497 91.35H61.2697C58.563 94.3833 56.7664 98.6067 55.8797 104.02ZM85.7691 83.65C87.0291 83.65 87.8925 85.7733 88.3591 90.02C87.8925 91.1867 87.1225 91.77 86.0491 91.77C85.3025 91.63 84.5558 90.7667 83.8091 89.18L82.5491 88.76C80.3558 88.76 78.3725 90.2067 76.5991 93.1V93.73C76.5991 94.43 79.8891 95.5967 86.4691 97.23C89.2225 98.8633 90.5991 100.847 90.5991 103.18C90.5991 107.007 87.5191 110.273 81.3591 112.98L78.7691 113.4C74.8491 112.98 72.8891 111.02 72.8891 107.52V107.31C72.8891 106.19 73.6125 105.537 75.0591 105.35C76.1791 105.35 76.9258 106.517 77.2991 108.85L77.8591 109.27H79.0491C81.7091 109.27 84.1825 107.45 86.4691 103.81V102.9C86.4691 101.5 83.4125 100.193 77.2991 98.98C74.0791 97.6733 72.4691 95.8533 72.4691 93.52C72.4691 90.4867 75.0125 87.64 80.0991 84.98C82.3391 84.7 84.2291 84.2567 85.7691 83.65ZM107.234 83.65C108.494 83.65 109.357 85.7733 109.824 90.02C109.357 91.1867 108.587 91.77 107.514 91.77C106.767 91.63 106.021 90.7667 105.274 89.18L104.014 88.76C101.821 88.76 99.8373 90.2067 98.064 93.1V93.73C98.064 94.43 101.354 95.5967 107.934 97.23C110.687 98.8633 112.064 100.847 112.064 103.18C112.064 107.007 108.984 110.273 102.824 112.98L100.234 113.4C96.314 112.98 94.354 111.02 94.354 107.52V107.31C94.354 106.19 95.0773 105.537 96.524 105.35C97.644 105.35 98.3907 106.517 98.764 108.85L99.324 109.27H100.514C103.174 109.27 105.647 107.45 107.934 103.81V102.9C107.934 101.5 104.877 100.193 98.764 98.98C95.544 97.6733 93.934 95.8533 93.934 93.52C93.934 90.4867 96.4773 87.64 101.564 84.98C103.804 84.7 105.694 84.2567 107.234 83.65ZM115.469 75.53C117.242 75.9033 118.129 76.6967 118.129 77.91C117.662 79.2167 116.915 79.87 115.889 79.87C114.162 79.5433 113.299 78.68 113.299 77.28C113.765 76.1133 114.489 75.53 115.469 75.53ZM118.129 85.33C118.875 85.33 119.505 86.0067 120.019 87.36L119.389 92.33V95.62C119.389 99.4467 120.042 104.463 121.349 110.67C120.882 111.557 120.089 112 118.969 112C117.055 112 115.795 106.4 115.189 95.2V92.75C115.189 87.8033 116.169 85.33 118.129 85.33ZM136.151 85.61C139.604 85.61 142.218 88.1767 143.991 93.31L144.271 94.78C144.271 99.7733 141.938 104.883 137.271 110.11C135.404 111.837 133.514 112.7 131.601 112.7C128.801 112.7 126.818 111.09 125.651 107.87C125.231 106.377 125.021 105.07 125.021 103.95V103.11C125.021 95.7367 127.704 90.1367 133.071 86.31C134.004 85.8433 135.031 85.61 136.151 85.61ZM129.151 103.81C129.151 106.983 129.968 108.57 131.601 108.57C135.008 108.57 137.831 104.207 140.071 95.48V94.15C139.278 91.2567 137.808 89.81 135.661 89.81C134.821 89.81 134.401 90.3933 134.401 91.56C134.401 92.3533 133.468 92.9833 131.601 93.45C129.968 96.2033 129.151 99.6567 129.151 103.81ZM156.473 88.41C160.44 88.7367 162.423 90.6733 162.423 94.22L162.563 95.13L162.423 106.05C162.423 107.31 163.146 109.013 164.593 111.16V111.3C164.22 112.653 163.543 113.33 162.563 113.33C159.67 112.117 158.223 109.55 158.223 105.63V104.72L158.013 104.58L158.223 104.3V104.16L158.433 94.5C158.433 93.1467 157.85 92.47 156.683 92.47H155.843C153.51 93.4033 152.343 98.5133 152.343 107.8C152.343 111.02 151.526 112.63 149.893 112.63C148.633 112.63 147.98 111.837 147.933 110.25V103.25C147.933 94.1967 148.726 89.67 150.313 89.67L151.013 89.46L152.483 89.67C153.743 88.83 155.073 88.41 156.473 88.41ZM179.877 84.98C181.93 84.98 182.957 85.7967 182.957 87.43L182.327 88.76L181.907 101.57C181.907 107.357 183.074 110.95 185.407 112.35L185.547 113.4C185.407 114.753 184.777 115.43 183.657 115.43H183.237C179.737 113.05 177.987 109.41 177.987 104.51H177.497C175.63 109.737 173.367 112.35 170.707 112.35C168.234 111.65 166.997 109.807 166.997 106.82C166.997 100.24 169.634 93.6833 174.907 87.15C176.68 85.7033 178.337 84.98 179.877 84.98ZM171.407 104.02L171.127 105.98V107.31H171.827C175.327 98.5833 177.077 93.2633 177.077 91.35H176.797C174.09 94.3833 172.294 98.6067 171.407 104.02ZM195.486 69.51C196.793 69.79 197.446 70.4433 197.446 71.47L197.026 74.55V75.46C197.026 77.5133 197.26 79.6833 197.726 81.97H197.866C203.28 80.3367 206.64 79.52 207.946 79.52C209.3 79.8933 209.976 80.57 209.976 81.55C209.976 83.1367 208.366 83.93 205.146 83.93L197.866 86.52C197.866 92.82 198.543 101.383 199.896 112.21C199.616 113.47 198.94 114.1 197.866 114.1H197.726C196.093 114.1 195.276 112 195.276 107.8C194.67 104.673 194.156 97.8833 193.736 87.43H192.476C188.09 87.15 185.896 86.1233 185.896 84.35C185.896 83.8367 186.386 83.2067 187.366 82.46H188.066L191.286 83.3H193.526L192.896 74.55C192.896 71.19 193.76 69.51 195.486 69.51ZM218.409 86.87C220.276 86.9167 223.426 90.1833 227.859 96.67L227.999 97.86C227.999 99.1667 224.803 100.17 218.409 100.87L218.199 101.08V101.36C219.179 105.56 220.206 107.66 221.279 107.66H222.119C223.613 107.66 225.876 106.05 228.909 102.83H229.329C230.263 102.83 230.986 103.507 231.499 104.86C231.499 105.98 229.539 107.917 225.619 110.67C224.593 111.277 223.356 111.72 221.909 112C218.129 112 215.493 108.453 213.999 101.36C211.853 101.033 210.779 100.147 210.779 98.7C210.779 97.6733 211.573 96.9967 213.159 96.67V96.95L213.859 96.67V94.92C213.859 89.5533 215.376 86.87 218.409 86.87ZM218.829 91.91H218.199L217.919 94.5V96.67H218.199C220.813 96.5767 222.119 96.2967 222.119 95.83C220.906 94.01 219.809 92.7033 218.829 91.91ZM250.639 73.57C251.433 73.57 252.156 74.3167 252.809 75.81L249.729 95.27V100.73C249.729 106.423 250.616 109.27 252.389 109.27C253.556 109.83 254.139 110.577 254.139 111.51C254.139 112.583 253.206 113.213 251.339 113.4C249.286 113.4 247.676 111.51 246.509 107.73H245.809C244.083 111.51 241.983 113.4 239.509 113.4C236.616 113.4 234.866 111.207 234.259 106.82C234.259 101.733 237.666 96.3433 244.479 90.65C245.833 90.65 246.509 88.76 246.509 84.98C247.536 77.3733 248.913 73.57 250.639 73.57ZM238.389 106.26V108.15L239.509 109.27H239.929C241.423 109.27 243.173 104.767 245.179 95.76H244.759C240.513 100.007 238.389 103.507 238.389 106.26ZM297.558 70.42L299.308 69.86C300.895 69.86 301.688 71.96 301.688 76.16L303.858 92.33L304.138 92.61L312.188 89.67C313.261 89.67 313.845 90.4867 313.938 92.12C313.938 93.3333 310.975 94.8033 305.048 96.53L304.768 96.67V96.95C304.768 97.93 306.308 103.04 309.388 112.28V112.42C309.388 113.307 308.665 114.053 307.218 114.66C305.865 114.66 304.978 113.05 304.558 109.83C303.485 107.497 302.178 103.647 300.638 98.28H300.358C294.245 99.54 291.188 100.613 291.188 101.5C287.828 108.78 285.285 112.42 283.558 112.42C282.578 112.42 281.995 111.79 281.808 110.53C281.808 109.41 283.045 107.217 285.518 103.95L286.638 101.5H284.888L283.558 101.78C281.831 101.36 280.968 100.473 280.968 99.12C281.668 97.4867 282.695 96.67 284.048 96.67L285.798 97.37C288.411 97.37 289.718 96.4133 289.718 94.5C292.098 88.9 294.711 80.8733 297.558 70.42ZM298.188 83.16L294.058 95.62C297.885 94.8733 299.798 94.15 299.798 93.45C299.098 86.59 298.561 83.16 298.188 83.16ZM325.256 84.42C328.196 84.42 329.946 86.4733 330.506 90.58V91.21C330.506 95.7367 328.172 99.89 323.506 103.67C326.212 106.33 330.949 107.66 337.716 107.66C338.742 107.987 339.256 108.71 339.256 109.83C339.256 111.09 338.439 111.72 336.806 111.72C332.232 111.72 327.426 110.553 322.386 108.22V110.25C322.386 115.057 321.359 117.46 319.306 117.46C317.859 117.46 317.136 114.683 317.136 109.13V103.67L316.926 101.71L317.416 99.47L316.926 92.75V92.47C316.926 91.21 317.579 90.3467 318.886 89.88C320.706 86.24 322.829 84.42 325.256 84.42ZM321.756 99.75C323.109 99.75 324.626 97.3233 326.306 92.47V89.46L325.466 88.55H324.836C322.782 89.95 321.756 93.6833 321.756 99.75ZM349.842 69.51C351.149 69.79 351.802 70.4433 351.802 71.47L351.382 74.55V75.46C351.382 77.5133 351.615 79.6833 352.082 81.97H352.222C357.635 80.3367 360.995 79.52 362.302 79.52C363.655 79.8933 364.332 80.57 364.332 81.55C364.332 83.1367 362.722 83.93 359.502 83.93L352.222 86.52C352.222 92.82 352.899 101.383 354.252 112.21C353.972 113.47 353.295 114.1 352.222 114.1H352.082C350.449 114.1 349.632 112 349.632 107.8C349.025 104.673 348.512 97.8833 348.092 87.43H346.832C342.445 87.15 340.252 86.1233 340.252 84.35C340.252 83.8367 340.742 83.2067 341.722 82.46H342.422L345.642 83.3H347.882L347.252 74.55C347.252 71.19 348.115 69.51 349.842 69.51ZM367.305 75.53C369.078 75.9033 369.965 76.6967 369.965 77.91C369.498 79.2167 368.751 79.87 367.725 79.87C365.998 79.5433 365.135 78.68 365.135 77.28C365.601 76.1133 366.325 75.53 367.305 75.53ZM369.965 85.33C370.711 85.33 371.341 86.0067 371.855 87.36L371.225 92.33V95.62C371.225 99.4467 371.878 104.463 373.185 110.67C372.718 111.557 371.925 112 370.805 112C368.891 112 367.631 106.4 367.025 95.2V92.75C367.025 87.8033 368.005 85.33 369.965 85.33ZM390.857 83.65C392.117 83.65 392.98 85.7733 393.447 90.02C392.98 91.1867 392.21 91.77 391.137 91.77C390.39 91.63 389.644 90.7667 388.897 89.18L387.637 88.76C385.444 88.76 383.46 90.2067 381.687 93.1V93.73C381.687 94.43 384.977 95.5967 391.557 97.23C394.31 98.8633 395.687 100.847 395.687 103.18C395.687 107.007 392.607 110.273 386.447 112.98L383.857 113.4C379.937 112.98 377.977 111.02 377.977 107.52V107.31C377.977 106.19 378.7 105.537 380.147 105.35C381.267 105.35 382.014 106.517 382.387 108.85L382.947 109.27H384.137C386.797 109.27 389.27 107.45 391.557 103.81V102.9C391.557 101.5 388.5 100.193 382.387 98.98C379.167 97.6733 377.557 95.8533 377.557 93.52C377.557 90.4867 380.1 87.64 385.187 84.98C387.427 84.7 389.317 84.2567 390.857 83.65ZM406.512 69.51C407.819 69.79 408.472 70.4433 408.472 71.47L408.052 74.55V75.46C408.052 77.5133 408.285 79.6833 408.752 81.97H408.892C414.305 80.3367 417.665 79.52 418.972 79.52C420.325 79.8933 421.002 80.57 421.002 81.55C421.002 83.1367 419.392 83.93 416.172 83.93L408.892 86.52C408.892 92.82 409.569 101.383 410.922 112.21C410.642 113.47 409.965 114.1 408.892 114.1H408.752C407.119 114.1 406.302 112 406.302 107.8C405.695 104.673 405.182 97.8833 404.762 87.43H403.502C399.115 87.15 396.922 86.1233 396.922 84.35C396.922 83.8367 397.412 83.2067 398.392 82.46H399.092L402.312 83.3H404.552L403.922 74.55C403.922 71.19 404.785 69.51 406.512 69.51ZM428.805 107.87C429.785 107.87 430.368 108.663 430.555 110.25C430.275 111.883 429.458 112.7 428.105 112.7C427.171 112.7 426.518 111.883 426.145 110.25C426.705 108.663 427.591 107.87 428.805 107.87ZM441.59 69.65H441.8C442.733 69.65 443.456 70.3267 443.97 71.68C443.97 72.1933 443.036 73.4067 441.17 75.32C440.563 76.72 440.26 77.98 440.26 79.1V80.57C440.26 81.3167 440.703 82.6467 441.59 84.56C441.59 85.54 440.866 86.2633 439.42 86.73C437.646 86.73 436.526 84.49 436.06 80.01V79.73C436.06 75.2967 437.903 71.9367 441.59 69.65ZM447.26 73.43H447.47C448.45 73.43 449.033 74.1533 449.22 75.6C449.22 76.3 448.286 77.2333 446.42 78.4L446 80.15V80.57L446.56 83.23C446.56 84.07 445.836 84.7933 444.39 85.4C442.663 84.84 441.8 83.1833 441.8 80.43C441.8 77.1167 443.62 74.7833 447.26 73.43Z" fill="black"/>
<defs>
<filter id="filter0_d_2662_109" x="15" y="87" width="253" height="46" filterUnits="userSpaceOnUse" color-interpolation-filters="sRGB">
<feFlood flood-opacity="0" result="BackgroundImageFix"/>
<feColorMatrix in="SourceAlpha" type="matrix" values="0 0 0 0 0 0 0 0 0 0 0 0 0 0 0 0 0 0 127 0" result="hardAlpha"/>
<feOffset dx="3" dy="3"/>
<feGaussianBlur stdDeviation="2"/>
<feComposite in2="hardAlpha" operator="out"/>
<feColorMatrix type="matrix" values="0 0 0 0 0 0 0 0 0 0 0 0 0 0 0 0 0 0 0.25 0"/>
<feBlend mode="normal" in2="BackgroundImageFix" result="effect1_dropShadow_2662_109"/>
<feBlend mode="normal" in="SourceGraphic" in2="effect1_dropShadow_2662_109" result="shape"/>
</filter>
</defs>
</svg>
