<svg width="17" height="12" viewBox="0 0 17 12" fill="none" xmlns="http://www.w3.org/2000/svg">
<path d="M16.1143 6C16.1143 6.1364 16.0601 6.26721 15.9637 6.36366C15.8672 6.4601 15.7364 6.51429 15.6 6.51429H0.514286C0.377889 6.51429 0.247078 6.4601 0.150631 6.36366C0.0541835 6.26721 0 6.1364 0 6C0 5.8636 0.0541835 5.73279 0.150631 5.63635C0.247078 5.5399 0.377889 5.48571 0.514286 5.48571H15.6C15.7364 5.48571 15.8672 5.5399 15.9637 5.63635C16.0601 5.73279 16.1143 5.8636 16.1143 6ZM0.514286 1.02857H15.6C15.7364 1.02857 15.8672 0.974388 15.9637 0.87794C16.0601 0.781493 16.1143 0.650683 16.1143 0.514286C16.1143 0.377889 16.0601 0.247078 15.9637 0.150631C15.8672 0.0541835 15.7364 0 15.6 0H0.514286C0.377889 0 0.247078 0.0541835 0.150631 0.150631C0.0541835 0.247078 0 0.377889 0 0.514286C0 0.650683 0.0541835 0.781493 0.150631 0.87794C0.247078 0.974388 0.377889 1.02857 0.514286 1.02857ZM15.6 10.9714H0.514286C0.377889 10.9714 0.247078 11.0256 0.150631 11.1221C0.0541835 11.2185 0 11.3493 0 11.4857C0 11.6221 0.0541835 11.7529 0.150631 11.8494C0.247078 11.9458 0.377889 12 0.514286 12H15.6C15.7364 12 15.8672 11.9458 15.9637 11.8494C16.0601 11.7529 16.1143 11.6221 16.1143 11.4857C16.1143 11.3493 16.0601 11.2185 15.9637 11.1221C15.8672 11.0256 15.7364 10.9714 15.6 10.9714Z" fill="#53524D"/>
</svg>
