<svg width="1213" height="161" viewBox="0 0 1213 161" fill="none" xmlns="http://www.w3.org/2000/svg">
<path d="M81.0206 138L62.1205 34.5L43.4005 138H0.380547V12H21.6205L23.0605 130.44L44.4806 11.82H80.4805L102.081 130.08V12H123.321L124.761 138H81.0206ZM224.523 5.51999L225.243 5.33999C228.303 10.2 231.363 21.36 231.363 33.42C231.363 41.52 229.383 52.14 221.823 52.14C208.323 52.14 200.583 14.7 175.563 14.7C169.443 14.7 150.363 17.4 156.123 40.26C165.483 77.7 212.283 52.5 212.283 67.44C212.283 76.98 193.923 70.68 184.743 70.5C166.203 70.14 156.483 91.02 167.103 107.76C186.723 138.54 221.103 141.24 229.383 123.06C238.743 102.54 198.783 97.68 196.083 107.22C195.363 110.1 195.543 111.72 198.963 115.68L198.063 116.22C188.523 106.5 178.983 89.04 184.023 82.74C196.263 67.26 243.063 91.92 231.543 123.42C220.203 154.2 129.843 149.52 129.843 101.82C129.843 63.84 185.283 67.44 195.543 67.44V66.36C186.183 66 131.823 63.84 131.823 30.72C131.823 21.54 135.963 3.89999 155.943 3.89999C181.143 3.71999 195.183 26.58 213.003 26.58C221.283 26.58 229.023 14.88 224.523 5.51999ZM267.627 11.46C266.547 15.66 265.167 20.22 263.487 25.14C261.807 30.06 259.947 34.98 257.907 39.9C255.987 44.7 254.067 49.26 252.147 53.58H240.447C241.287 50.22 242.127 46.62 242.967 42.78C243.927 38.94 244.767 35.1 245.487 31.26C246.327 27.3 247.047 23.46 247.647 19.74C248.367 16.02 248.967 12.6 249.447 9.47999H266.367L267.627 11.46ZM300.532 78.78L300.352 138H278.392V12H314.752C337.072 12 357.592 18.84 357.592 44.22C357.592 63.12 346.072 74.28 327.892 77.7L357.412 138H334.912L305.932 78.78H300.532ZM300.532 61.68H314.752C326.812 61.68 335.452 58.98 335.452 45.3C335.452 31.8 326.812 28.92 314.752 29.1H300.532V61.68ZM390.611 83.1L390.431 121.8H466.391V138H368.471V12H465.851V28.2H390.611V66.9H465.851V83.1H390.611ZM581.624 138L577.484 111.9H548.144L544.004 138H522.224L541.844 12H584.504L604.124 138H581.624ZM550.664 94.8H574.964L562.904 17.22L550.664 94.8ZM607.076 43.5L605.636 42.42L634.256 12.18L737.396 12C743.336 14.52 747.836 20.82 747.836 25.5C747.836 35.22 740.096 41.7 731.816 48.72C710.576 63.84 689.696 74.1 684.116 74.1L669.356 74.28C672.236 97.68 711.656 133.5 731.816 119.82C740.096 114.24 744.596 106.68 748.376 100.56L749.636 101.28C744.776 109.38 739.556 116.58 733.436 121.8C724.616 129.36 702.656 142.14 698.516 142.14C682.856 142.14 654.596 106.86 654.596 89.94C654.596 85.62 674.036 63.3 684.476 54.3C689.156 54.3 691.136 54.48 695.636 54.3C715.796 54.3 717.236 56.28 724.436 50.7C735.416 42.24 719.576 31.98 710.216 32.52L652.616 32.88L646.496 38.28C646.856 62.94 661.976 133.5 625.976 138H595.196L595.556 136.38L611.216 136.02C632.816 136.02 628.496 67.26 627.236 52.86L650.276 32.88L631.196 33.06C614.996 33.24 613.916 35.58 607.076 43.5ZM754.971 28.38V12.18H837.771V28.38H807.531L807.711 138H785.391V28.38H754.971ZM877.757 143.94L846.257 124.5L866.237 99.84V30C863.897 29.46 861.377 29.1 858.857 29.1C852.377 29.1 846.977 34.68 842.117 41.34L840.317 39.9L876.317 2.81999L907.817 22.26L894.677 38.46V79.68L872.537 104.34L894.677 117.66C901.877 117.66 907.997 110.82 911.957 105.42L913.757 106.86L877.757 143.94ZM984.571 107.04C984.571 79.32 924.451 86.52 924.451 45.12C924.451 22.62 942.091 10.56 965.131 10.56C992.131 10.56 1006.17 26.94 1006.17 50.88H984.031C984.031 40.44 980.791 31.62 964.951 31.44C955.771 31.26 946.591 34.14 946.591 44.22C946.591 70.14 1006.17 66.9 1006.17 107.04C1006.17 127.2 991.231 139.44 964.231 139.44C931.471 139.44 917.251 120.36 917.251 98.94H939.391C939.571 110.28 950.551 120 964.771 120C975.751 120 984.571 117.66 984.571 107.04ZM1011.08 28.38V12.18H1093.88V28.38H1063.64L1063.82 138H1041.5V28.38H1011.08ZM1148.45 38.82C1142.51 30 1139.45 14.88 1145.39 1.73999L1130.63 11.64C1124.51 16.68 1124.33 22.44 1124.33 26.58C1124.33 63.48 1212.53 75.18 1212.53 112.44C1212.53 140.16 1162.85 156.18 1140.53 156.18C1113.17 156.18 1086.17 129.18 1106.69 104.16L1144.85 84L1146.11 85.44C1131.71 92.28 1125.41 101.46 1125.41 113.88C1125.41 148.08 1193.45 160.32 1193.45 126.66C1193.45 80.4 1106.69 88.32 1106.69 38.64C1106.69 22.44 1134.41 7.85999 1146.11 0.119994C1162.85 37.2 1189.13 39.54 1194.17 6.95999H1195.43L1188.41 53.76C1173.65 53.76 1157.09 51.42 1148.45 38.82Z" fill="black"/>
</svg>
