<svg width="443" height="74" viewBox="0 0 443 74" fill="none" xmlns="http://www.w3.org/2000/svg">
<path d="M0.272969 34.628C0.272969 17.244 11.343 5.6 28.153 5.6C44.799 5.6 55.869 17.244 55.869 34.628C55.869 52.012 44.799 63.656 28.153 63.656C11.343 63.656 0.272969 52.012 0.272969 34.628ZM8.63697 34.628C8.63697 46.764 16.345 54.964 28.153 54.964C39.797 54.964 47.505 46.764 47.505 34.628C47.505 22.492 39.797 14.292 28.153 14.292C16.345 14.292 8.63697 22.492 8.63697 34.628ZM63.6577 2.484L64.1497 2.64799C63.0837 6.666 65.3797 12.242 69.2337 12.242C77.2697 12.242 83.7477 1.828 95.2277 1.90999C104.248 1.90999 106.216 9.946 106.216 13.8V19.622H93.7517L93.6697 14.62C93.6697 8.88 90.6357 7.568 87.1917 7.568C75.7117 7.568 71.3657 23.804 65.2157 23.804C61.7717 23.804 60.8697 19.048 60.8697 15.358C60.8697 9.864 62.2637 4.78 63.6577 2.484ZM72.3497 31.758L80.1397 14.538H90.8817C87.7657 20.524 85.1417 26.346 82.7637 31.758H83.6657C93.2597 31.758 100.886 34.136 100.886 46.682L88.5857 46.518C88.6677 35.038 88.3397 33.07 83.7477 33.07H82.1077C74.3177 50.536 68.7417 63.41 57.7537 63.41L57.8357 49.962V31.758H72.3497ZM58.4917 39.712V49.962C62.7557 49.716 66.5277 44.796 68.9057 39.384L71.6937 33.152C61.1157 33.562 58.4917 34.874 58.4917 39.712ZM140.545 34.628C140.545 46.764 148.253 54.964 160.061 54.964C168.753 54.964 175.887 50.782 177.937 43.074H187.531C184.497 55.702 173.837 63.656 160.061 63.656C143.251 63.656 132.181 52.012 132.181 34.628C132.181 17.244 143.251 5.6 160.061 5.6C175.723 5.6 185.317 16.178 185.317 31.512H176.871C176.297 19.95 170.639 14.292 160.061 14.292C148.253 14.292 140.545 22.492 140.545 34.628ZM247.393 30.036C247.393 30.774 247.475 32.66 247.393 34.71C246.737 52.422 230.091 67.018 218.529 67.018C206.803 67.018 201.391 57.998 199.997 45.78C184.991 41.024 179.743 22.984 186.467 14.456C192.289 6.912 200.489 15.44 203.523 21.918H203.277C200.899 16.998 194.257 16.916 189.911 22.328C182.941 30.938 189.255 43.894 204.097 45.862C201.801 45.288 199.833 44.468 199.833 43.648C199.833 20.934 220.825 1.254 238.783 1.254C244.359 1.254 252.231 5.436 252.231 15.44C252.231 32.578 229.189 46.026 210.575 46.928C210.329 56.03 211.559 66.116 218.529 66.116C230.173 66.116 234.191 49.88 235.011 46.764C236.077 42.418 236.487 39.63 236.651 38.728C240.997 36.022 243.375 34.054 247.393 30.036ZM215.577 36.924L215.003 36.76C214.839 27.576 219.267 10.11 232.223 10.848C242.801 11.422 247.229 20.114 247.311 27.822C250.017 24.05 251.657 19.95 251.657 15.604C251.657 6.42 244.441 2.238 237.635 2.238C226.155 2.238 216.643 14.374 212.379 30.118C210.165 38.482 210.575 43.566 210.575 46.108C219.677 45.78 229.353 42.5 236.979 37.416C240.669 21.918 240.751 13.882 232.305 12.898C219.595 11.34 215.167 28.56 215.577 36.924ZM264.581 5.764V40.45C264.581 58.982 289.017 59.556 289.017 40.45V5.764H299.021V41.434C299.021 70.134 254.577 70.544 254.577 41.434V5.764H264.581ZM314.559 36.022L314.477 63H304.473V5.6H321.037C331.205 5.6 340.553 8.716 340.553 20.278C340.553 28.888 335.305 33.972 327.023 35.53L340.471 63H330.221L317.019 36.022H314.559ZM314.559 28.232H321.037C326.531 28.232 330.467 27.002 330.467 20.77C330.467 14.62 326.531 13.308 321.037 13.39H314.559V28.232ZM366.747 17.818C364.041 13.8 362.647 6.912 365.353 0.925998L358.629 5.436C355.841 7.732 355.759 10.356 355.759 12.242C355.759 29.052 395.939 34.382 395.939 51.356C395.939 63.984 373.307 71.282 363.139 71.282C350.675 71.282 338.375 58.982 347.723 47.584L365.107 38.4L365.681 39.056C359.121 42.172 356.251 46.354 356.251 52.012C356.251 67.592 387.247 73.168 387.247 57.834C387.247 36.76 347.723 40.368 347.723 17.736C347.723 10.356 360.351 3.714 365.681 0.187997C373.307 17.08 385.279 18.146 387.575 3.304H388.149L384.951 24.624C378.227 24.624 370.683 23.558 366.747 17.818ZM407.806 37.99L407.724 55.62H442.328V63H397.72V5.6H442.082V12.98H407.806V30.61H442.082V37.99H407.806Z" fill="black"/>
</svg>
