<svg width="1177" height="158" viewBox="0 0 1177 158" fill="none" xmlns="http://www.w3.org/2000/svg">
<path d="M114.562 93C99.6218 112.62 116.542 121.62 122.842 121.98C206.902 126.3 197.542 64.2 181.882 50.7C173.602 43.5 160.282 47.28 152.542 58.44L151.642 58.08L180.802 13.08C227.782 31.62 183.682 146.82 139.222 146.46C116.722 146.28 99.2618 116.58 109.162 84.9L113.302 71.76C103.402 98.22 85.2218 134.04 49.5818 143.04L29.7818 148.08C28.3418 150.42 32.1218 155.28 29.0618 156.36C26.5418 157.08 24.5618 153.66 26.3618 150.42L45.9818 116.22L56.0618 114.96C68.3018 96.78 78.7418 79.14 78.7418 55.38C78.7418 24.24 51.7418 15.96 27.8018 31.62C3.6818 47.28 5.1218 85.62 38.0618 84.54C51.2018 84.18 66.8618 67.26 74.0618 54.48L75.1418 55.56C68.4818 66.54 52.2818 85.26 41.3018 94.26C26.9018 105.96 0.981797 102.18 2.2418 72.12C3.1418 51.78 14.3018 38.82 31.5818 26.58C51.9218 12 102.142 0.479998 102.142 37.92C102.142 67.44 77.8418 91.02 58.7618 114.6C88.4618 110.1 107.722 95.16 120.682 44.04L123.022 43.86V44.04L152.362 43.32L114.562 93ZM231.185 92.1L231.005 130.8H306.965V147H209.045V21H306.425V37.2H231.185V75.9H306.425V92.1H231.185ZM339.881 20.46C338.801 24.66 337.421 29.22 335.741 34.14C334.061 39.06 332.201 43.98 330.161 48.9C328.241 53.7 326.321 58.26 324.401 62.58H312.701C313.541 59.22 314.381 55.62 315.221 51.78C316.181 47.94 317.021 44.1 317.741 40.26C318.581 36.3 319.301 32.46 319.901 28.74C320.621 25.02 321.221 21.6 321.701 18.48H338.621L339.881 20.46ZM372.786 87.78L372.606 147H350.646V21H387.006C409.326 21 429.846 27.84 429.846 53.22C429.846 72.12 418.326 83.28 400.146 86.7L429.666 147H407.166L378.186 87.78H372.786ZM372.786 70.68H387.006C399.066 70.68 407.706 67.98 407.706 54.3C407.706 40.8 399.066 37.92 387.006 38.1H372.786V70.68ZM462.865 92.1L462.685 130.8H538.645V147H440.725V21H538.105V37.2H462.865V75.9H538.105V92.1H462.865ZM678.718 21L657.838 104.16H647.578V147H625.438V104.16H615.178L594.658 21H617.338L636.598 99.48L656.038 21H678.718ZM708.255 92.1L708.075 130.8H784.035V147H686.115V21H783.495V37.2H708.255V75.9H783.495V92.1H708.255ZM872.571 147L853.671 43.5L834.951 147H791.931V21H813.171L814.611 139.44L836.031 20.82H872.031L893.631 139.08V21H914.871L916.311 147H872.571ZM1050.99 74.64C1050.99 76.26 1051.17 80.4 1050.99 84.9C1049.55 123.78 1013.01 155.82 987.634 155.82C961.894 155.82 950.014 136.02 946.954 109.2C914.014 98.76 902.494 59.16 917.254 40.44C930.034 23.88 948.034 42.6 954.694 56.82H954.154C948.934 46.02 934.354 45.84 924.814 57.72C909.514 76.62 923.374 105.06 955.954 109.38C950.914 108.12 946.594 106.32 946.594 104.52C946.594 54.66 992.674 11.46 1032.09 11.46C1044.33 11.46 1061.61 20.64 1061.61 42.6C1061.61 80.22 1011.03 109.74 970.174 111.72C969.634 131.7 972.334 153.84 987.634 153.84C1013.19 153.84 1022.01 118.2 1023.81 111.36C1026.15 101.82 1027.05 95.7 1027.41 93.72C1036.95 87.78 1042.17 83.46 1050.99 74.64ZM981.154 89.76L979.894 89.4C979.534 69.24 989.254 30.9 1017.69 32.52C1040.91 33.78 1050.63 52.86 1050.81 69.78C1056.75 61.5 1060.35 52.5 1060.35 42.96C1060.35 22.8 1044.51 13.62 1029.57 13.62C1004.37 13.62 983.494 40.26 974.134 74.82C969.274 93.18 970.174 104.34 970.174 109.92C990.154 109.2 1011.39 102 1028.13 90.84C1036.23 56.82 1036.41 39.18 1017.87 37.02C989.974 33.6 980.254 71.4 981.154 89.76ZM1104.92 21L1153.7 141.6V21H1176.92L1175.48 147H1134.08L1086.38 29.28L1085.12 147H1063.34V21H1104.92Z" fill="black"/>
</svg>
