<svg width="174" height="181" viewBox="0 0 174 181" fill="none" xmlns="http://www.w3.org/2000/svg">
<g filter="url(#filter0_d_2775_156)">
<rect y="7" width="166" height="166" fill="#F8F7F4"/>
</g>
<path d="M21.045 25.46H18.45C18.6 27.38 19.68 28.355 21.27 28.925V30.92C19.635 30.515 18.06 29.6 17.325 28.61C16.635 29.615 15.06 30.635 13.305 31.1V29.12C14.925 28.49 16.005 27.41 16.14 25.46H13.47V23.525H16.155V21.755H18.435V23.525H21.045V25.46ZM19.68 35.285H13.065V33.365H16.23V30.44H18.51V33.365H20.04C21.165 33.365 21.93 33.185 22.38 32.78V22.16H24.66V36.005H22.38V34.61C21.915 35.045 20.985 35.285 19.68 35.285ZM29.6844 28.745C29.6844 31.565 29.7444 32.75 30.0294 33.2C30.1344 33.35 30.2844 33.425 30.4344 33.425C30.6144 33.425 30.7494 33.35 30.8544 33.2C31.1244 32.75 31.1994 31.565 31.1994 28.745C31.1994 25.925 31.1244 24.74 30.8544 24.305C30.7494 24.14 30.6144 24.08 30.4344 24.08C30.2844 24.08 30.1344 24.14 30.0294 24.305C29.7444 24.74 29.6844 25.925 29.6844 28.745ZM27.5994 28.745C27.5994 25.37 27.8694 23.675 28.7094 22.82C29.0994 22.4 29.6844 22.175 30.4344 22.175C31.1994 22.175 31.7694 22.4 32.1894 22.82C32.6244 23.27 32.8944 23.96 33.0744 25.01H34.2894V22.235H36.3894V35.885H34.2894V32.15H33.1194C32.9544 33.395 32.6694 34.175 32.1894 34.67C31.7694 35.105 31.1994 35.3 30.4344 35.3C29.6844 35.3 29.0994 35.105 28.7094 34.67C27.8694 33.83 27.5994 32.135 27.5994 28.745ZM33.2544 26.93C33.2694 27.47 33.2844 28.07 33.2844 28.745C33.2844 29.285 33.2844 29.78 33.2544 30.245H34.2894V26.93H33.2544ZM39.2694 22.16V36.005H37.1244V22.16H39.2694ZM41.9838 25.835C41.9838 24.545 42.4338 23.54 43.1838 22.88C43.8138 22.355 44.6538 22.07 45.6738 22.07C46.6788 22.07 47.5188 22.355 48.1488 22.88C48.3138 23.03 48.4638 23.18 48.5988 23.36H51.1938V22.16H53.4738V30.185H51.1938V28.355H48.5688C48.4488 28.52 48.2988 28.655 48.1488 28.79C47.5188 29.315 46.6788 29.6 45.6738 29.6C44.6538 29.6 43.8138 29.315 43.1838 28.79C42.4338 28.145 41.9838 27.125 41.9838 25.835ZM49.3188 25.22C49.3338 25.415 49.3488 25.625 49.3488 25.835C49.3488 26.06 49.3338 26.285 49.3038 26.495H51.1938V25.22H49.3188ZM44.1738 25.835C44.1738 26.495 44.3538 27.005 44.6838 27.32C44.9238 27.575 45.2538 27.71 45.6738 27.71C46.0788 27.71 46.4088 27.575 46.6488 27.32C46.9788 27.005 47.1438 26.495 47.1438 25.835C47.1438 25.175 46.9788 24.68 46.6488 24.35C46.4088 24.095 46.0788 23.975 45.6738 23.975C45.2538 23.975 44.9238 24.095 44.6838 24.35C44.3538 24.68 44.1738 25.175 44.1738 25.835ZM42.7938 33.275C42.7938 32.315 43.2738 31.625 44.0238 31.145C45.0738 30.455 46.6788 30.215 48.2988 30.215C49.9038 30.215 51.5238 30.455 52.5738 31.145C53.3088 31.625 53.7888 32.315 53.7888 33.275C53.7888 34.235 53.3088 34.925 52.5738 35.42C51.5238 36.11 49.9038 36.335 48.2988 36.335C46.6788 36.335 45.0738 36.11 44.0238 35.42C43.2738 34.925 42.7938 34.235 42.7938 33.275ZM45.0738 33.275C45.0738 33.59 45.2388 33.785 45.5238 33.965C46.1088 34.325 47.1588 34.43 48.2988 34.43C49.4238 34.43 50.4888 34.325 51.0588 33.965C51.3588 33.785 51.5088 33.59 51.5088 33.275C51.5088 32.975 51.3588 32.765 51.0588 32.585C50.4888 32.24 49.4238 32.12 48.2988 32.12C47.1588 32.12 46.1088 32.24 45.5238 32.585C45.2388 32.765 45.0738 32.975 45.0738 33.275ZM12.63 47.09C12.63 45.335 12.885 43.73 13.77 42.56C14.535 41.54 15.675 40.955 17.415 40.955C20.235 40.955 21.915 42.605 22.065 45.215H19.605C19.515 43.85 18.765 43.025 17.415 43.025C16.635 43.025 16.065 43.31 15.705 43.85C15.285 44.465 15.105 45.35 15.105 47.09C15.105 48.845 15.285 49.73 15.705 50.345C16.065 50.885 16.635 51.17 17.415 51.17C18.765 51.17 19.515 50.345 19.605 48.98H22.065C21.915 51.59 20.235 53.24 17.415 53.24C15.675 53.24 14.535 52.655 13.77 51.635C12.885 50.465 12.63 48.86 12.63 47.09ZM29.6244 53.03V47.975H25.9944V53.03H23.5344V41.165H25.9944V45.92H29.6244V41.165H32.0994V53.03H29.6244ZM43.1616 47.09C43.1616 48.86 42.9216 50.465 42.0366 51.635C41.2716 52.655 40.1166 53.24 38.3916 53.24C36.6516 53.24 35.5116 52.655 34.7466 51.635C33.8616 50.465 33.6066 48.86 33.6066 47.09C33.6066 45.335 33.8616 43.73 34.7466 42.56C35.5116 41.54 36.6516 40.955 38.3916 40.955C40.1166 40.955 41.2716 41.54 42.0366 42.56C42.9216 43.73 43.1616 45.335 43.1616 47.09ZM36.0816 47.09C36.0816 48.845 36.2616 49.73 36.6816 50.345C37.0416 50.885 37.6116 51.17 38.3916 51.17C39.1716 51.17 39.7416 50.885 40.1016 50.345C40.5216 49.73 40.6866 48.845 40.6866 47.09C40.6866 45.35 40.5216 44.465 40.1016 43.85C39.7416 43.31 39.1716 43.025 38.3916 43.025C37.6116 43.025 37.0416 43.31 36.6816 43.85C36.2616 44.465 36.0816 45.35 36.0816 47.09ZM47.1321 41.165V53.03H44.6721V41.165H47.1321ZM57.605 46.235L60.035 41.165H62.6L58.835 48.35V53.03H56.375V48.35L52.625 41.165H55.19L57.605 46.235ZM63.6858 53.03V41.165H71.0508V43.22H66.1458V45.92H70.4358V47.975H66.1458V50.975H71.1258V53.03H63.6858ZM76.8824 46.235L79.3124 41.165H81.8774L78.1124 48.35V53.03H75.6524V48.35L71.9024 41.165H74.4674L76.8824 46.235ZM91.6625 47.09C91.6625 48.86 91.4225 50.465 90.5375 51.635C89.7725 52.655 88.6175 53.24 86.8925 53.24C85.1525 53.24 84.0125 52.655 83.2475 51.635C82.3625 50.465 82.1075 48.86 82.1075 47.09C82.1075 45.335 82.3625 43.73 83.2475 42.56C84.0125 41.54 85.1525 40.955 86.8925 40.955C88.6175 40.955 89.7725 41.54 90.5375 42.56C91.4225 43.73 91.6625 45.335 91.6625 47.09ZM84.5825 47.09C84.5825 48.845 84.7625 49.73 85.1825 50.345C85.5425 50.885 86.1125 51.17 86.8925 51.17C87.6725 51.17 88.2425 50.885 88.6025 50.345C89.0225 49.73 89.1875 48.845 89.1875 47.09C89.1875 45.35 89.0225 44.465 88.6025 43.85C88.2425 43.31 87.6725 43.025 86.8925 43.025C86.1125 43.025 85.5425 43.31 85.1825 43.85C84.7625 44.465 84.5825 45.35 84.5825 47.09ZM97.6431 53.24C94.5681 53.24 93.0981 51.425 93.0981 48.635V41.165H95.5731V48.53C95.5731 50.3 96.2181 51.17 97.6431 51.17C99.0531 51.17 99.7131 50.3 99.7131 48.53V41.165H102.173V48.635C102.173 51.425 100.703 53.24 97.6431 53.24ZM110.091 53.03L106.326 45.425V53.03H103.866V41.165H106.356L110.121 48.785V41.165H112.596V53.03H110.091ZM114.114 47.09C114.114 45.335 114.369 43.73 115.254 42.56C116.019 41.54 117.159 40.955 118.899 40.955C121.719 40.955 123.399 42.605 123.549 45.215H121.089C120.999 43.85 120.249 43.025 118.899 43.025C118.119 43.025 117.549 43.31 117.189 43.85C116.769 44.465 116.589 45.35 116.589 47.09C116.589 50.3 117.354 51.17 118.929 51.17C120.459 51.17 121.074 50.135 121.179 48.575H118.959V46.745H123.534V53.03H121.764L121.479 51.635C121.059 52.595 120.084 53.24 118.644 53.24C115.209 53.24 114.114 50.405 114.114 47.09Z" fill="black"/>
<path d="M14.717 95.357H17.629V91.184H19.033V101.974H13.313V91.184H14.717V95.357ZM17.629 100.752V96.579H14.717V100.752H17.629ZM22.53 90.976V95.786H24.376V97.021H22.53V102.767H21.113V90.976H22.53ZM30.9275 97.541H25.6365V93.719H29.9655V92.302H25.6365V91.119H31.3695V94.902H27.0535V96.371H31.2915C32.3575 96.371 33.0855 96.228 33.5925 95.851V90.976H35.0095V93.758H36.7255V95.006H35.0095V97.996H33.5925V96.956C33.0985 97.359 32.2535 97.541 30.9275 97.541ZM26.3125 102.884V98.724H35.0095V102.884H26.3125ZM33.5925 99.933H27.7165V101.688H33.5925V99.933ZM38.441 92.848C38.441 92.354 38.636 91.977 39.013 91.691C39.741 91.158 41.145 90.963 43.212 90.963C45.292 90.963 46.683 91.158 47.398 91.691C47.775 91.977 47.97 92.354 47.97 92.848C47.97 93.329 47.775 93.706 47.398 93.992C46.683 94.525 45.292 94.72 43.212 94.72C41.145 94.72 39.741 94.525 39.013 93.992C38.636 93.706 38.441 93.329 38.441 92.848ZM39.858 92.848C39.858 92.991 39.936 93.121 40.092 93.238C40.508 93.485 41.548 93.576 43.212 93.576C44.876 93.576 45.916 93.485 46.332 93.238C46.488 93.121 46.566 92.991 46.566 92.848C46.566 92.692 46.488 92.562 46.332 92.458C45.916 92.198 44.876 92.107 43.212 92.107C41.548 92.107 40.508 92.198 40.092 92.458C39.936 92.562 39.858 92.692 39.858 92.848ZM37.882 96.774V95.604H48.503V96.774H37.882ZM40.066 100.882V101.74H47.996V102.884H38.662V99.751H46.319V98.88H38.662V97.736H47.736V100.882H40.066ZM56.2507 91.119V96.501H64.1677V97.736H54.8337V91.119H56.2507ZM54.2227 102.247V101.025H64.6877V102.247H54.2227ZM75.2432 102.767V90.976H76.6602V102.767H75.2432ZM73.3972 91.184V96.748C73.3972 99.894 72.4222 101.532 70.0822 102.429V101.129C71.3692 100.492 72.0062 99.257 72.0062 96.67V92.432H70.2382V96.111C70.2382 99.27 69.1852 100.895 66.8322 101.766V100.466C68.1452 99.842 68.8472 98.633 68.8472 96.02V92.432H66.9102V91.184H73.3972ZM85.2787 91.184V93.576H87.5797V90.976H88.9967V102.767H87.5797V99.244H85.2787V101.974H79.5847V91.184H85.2787ZM85.2787 94.811V98.022H87.5797V94.811H85.2787ZM80.9887 100.752H83.8747V92.432H80.9887V100.752ZM12.91 119.987V109.795H18.864V111.108H14.418V114.254H18.422V115.567H14.418V119.987H12.91ZM26.2297 116.789H21.2507C21.3027 118.154 21.8357 118.96 23.0577 118.96C23.9677 118.96 24.5137 118.518 24.6177 117.803H26.0867C25.8527 119.272 24.7997 120.156 23.0577 120.156C20.8737 120.156 19.8077 118.778 19.8077 116.347C19.8077 113.929 20.8737 112.538 23.0317 112.538C25.1767 112.538 26.2427 113.929 26.2427 116.347C26.2427 116.503 26.2427 116.646 26.2297 116.789ZM23.0317 113.734C21.8617 113.734 21.3677 114.475 21.2637 115.697H24.7867C24.6827 114.475 24.1757 113.734 23.0317 113.734ZM33.758 116.789H28.779C28.831 118.154 29.364 118.96 30.586 118.96C31.496 118.96 32.042 118.518 32.146 117.803H33.615C33.381 119.272 32.328 120.156 30.586 120.156C28.402 120.156 27.336 118.778 27.336 116.347C27.336 113.929 28.402 112.538 30.56 112.538C32.705 112.538 33.771 113.929 33.771 116.347C33.771 116.503 33.771 116.646 33.758 116.789ZM30.56 113.734C29.39 113.734 28.896 114.475 28.792 115.697H32.315C32.211 114.475 31.704 113.734 30.56 113.734ZM36.5934 119.987H35.1634V109.795H36.5934V119.987ZM39.7164 119.987H38.2734V112.707H39.7164V119.987ZM39.7164 111.329H38.2734V109.795H39.7164V111.329ZM47.4935 115.437V119.987H46.0505V115.541C46.0505 114.28 45.5435 113.721 44.6075 113.721C43.5675 113.721 42.7745 114.54 42.7745 116.048V119.987H41.3575V112.707H42.7745V113.929C43.1125 113.084 43.8535 112.538 44.9585 112.538C46.5835 112.538 47.4935 113.578 47.4935 115.437ZM53.7831 112.707H55.2261V120.26C55.2261 122.015 54.3291 123.367 52.1451 123.367C50.4031 123.367 49.3371 122.522 49.1421 121.131H50.6111C50.7151 121.846 51.2611 122.223 52.1451 122.223C53.2761 122.223 53.7831 121.56 53.7831 120.377V118.856C53.5101 119.649 52.7431 120.156 51.7031 120.156C49.9091 120.156 48.7911 118.96 48.7911 116.347C48.7911 113.734 49.9091 112.538 51.7031 112.538C52.7431 112.538 53.5101 113.045 53.7831 113.838V112.707ZM53.7831 116.347C53.7831 114.748 53.3541 113.734 52.0151 113.734C50.6631 113.734 50.2211 114.748 50.2211 116.347C50.2211 117.959 50.6631 118.96 52.0151 118.96C53.3541 118.96 53.7831 117.959 53.7831 116.347ZM63.5552 118.973C64.8942 118.973 65.3362 117.959 65.3362 116.347C65.3362 114.735 64.8942 113.721 63.5552 113.721C62.2162 113.721 61.7742 114.735 61.7742 116.347C61.7742 117.959 62.2162 118.973 63.5552 118.973ZM63.5552 112.538C65.7002 112.538 66.7662 113.916 66.7662 116.347C66.7662 118.778 65.7002 120.156 63.5552 120.156C61.3972 120.156 60.3312 118.778 60.3312 116.347C60.3312 113.916 61.3972 112.538 63.5552 112.538ZM71.842 110.874H71.153C70.256 110.874 69.996 111.147 69.996 111.914V112.707H71.842V113.89H69.996V119.987H68.566V113.89H67.526V112.707H68.566V111.849C68.566 110.263 69.255 109.691 70.958 109.691C71.257 109.691 71.543 109.704 71.842 109.756V110.874ZM78.6908 113.89V117.777C78.6908 118.687 79.0288 118.908 79.9388 118.908H80.6668V120.052C80.4328 120.091 80.0038 120.091 79.6918 120.091C77.9888 120.091 77.2608 119.597 77.2608 118.037V113.89H76.2078V112.707H77.2608V110.64H78.6908V112.707H80.6668V113.89H78.6908ZM88.0423 115.437V119.987H86.5993V115.541C86.5993 114.28 86.0923 113.721 85.1563 113.721C84.1163 113.721 83.3233 114.54 83.3233 116.048V119.987H81.9063V109.795H83.3233V113.929C83.6613 113.084 84.4023 112.538 85.5073 112.538C87.1323 112.538 88.0423 113.578 88.0423 115.437ZM95.7619 116.789H90.7829C90.8349 118.154 91.3679 118.96 92.5899 118.96C93.4999 118.96 94.0459 118.518 94.1499 117.803H95.6189C95.3849 119.272 94.3319 120.156 92.5899 120.156C90.4059 120.156 89.3399 118.778 89.3399 116.347C89.3399 113.929 90.4059 112.538 92.5639 112.538C94.7089 112.538 95.7749 113.929 95.7749 116.347C95.7749 116.503 95.7749 116.646 95.7619 116.789ZM92.5639 113.734C91.3939 113.734 90.8999 114.475 90.7959 115.697H94.3189C94.2149 114.475 93.7079 113.734 92.5639 113.734ZM105.188 112.707H106.644L108.373 118.31L110.05 112.707H111.532L109.166 119.987H107.632L105.916 114.332L104.2 119.987H102.653L100.3 112.707H101.782L103.446 118.31L105.188 112.707ZM113.997 119.987H112.554V112.707H113.997V119.987ZM113.997 111.329H112.554V109.795H113.997V111.329ZM121.774 115.437V119.987H120.331V115.541C120.331 114.28 119.824 113.721 118.888 113.721C117.848 113.721 117.055 114.54 117.055 116.048V119.987H115.638V112.707H117.055V113.929C117.393 113.084 118.134 112.538 119.239 112.538C120.864 112.538 121.774 113.578 121.774 115.437ZM128.063 113.838V109.795H129.506V119.987H128.063V118.856C127.79 119.649 127.023 120.156 125.983 120.156C124.189 120.156 123.071 118.96 123.071 116.347C123.071 113.734 124.189 112.538 125.983 112.538C127.023 112.538 127.79 113.045 128.063 113.838ZM128.063 116.347C128.063 114.748 127.621 113.734 126.295 113.734C124.943 113.734 124.501 114.748 124.501 116.347C124.501 117.959 124.943 118.96 126.295 118.96C127.621 118.96 128.063 117.959 128.063 116.347ZM19.098 130.681C19.085 131.669 18.877 132.241 18.123 133.099L14.938 136.726H19.241V137.987H12.988V136.843L16.94 132.332C17.447 131.76 17.642 131.292 17.642 130.694C17.642 129.641 16.953 128.9 15.978 128.9C14.938 128.9 14.314 129.615 14.314 130.694V130.967H12.845V130.681C12.845 128.991 13.976 127.626 15.978 127.626C17.98 127.626 19.098 128.991 19.098 130.681ZM27.3817 132.891C27.3817 135.218 27.0697 136.44 26.3417 137.246C25.7827 137.844 24.9897 138.156 24.0147 138.156C23.0397 138.156 22.2207 137.844 21.6747 137.246C20.9467 136.44 20.6347 135.218 20.6347 132.891C20.6347 130.564 20.9467 129.342 21.6747 128.536C22.2207 127.938 23.0397 127.626 24.0147 127.626C24.9897 127.626 25.7827 127.938 26.3417 128.536C27.0697 129.342 27.3817 130.564 27.3817 132.891ZM25.9127 132.891C25.9127 130.954 25.7567 130.018 25.3277 129.485C25.0027 129.095 24.5867 128.887 24.0147 128.887C23.4427 128.887 23.0137 129.095 22.6887 129.485C22.2597 130.018 22.0907 130.954 22.0907 132.891C22.0907 134.828 22.2597 135.764 22.6887 136.297C23.0137 136.687 23.4427 136.895 24.0147 136.895C24.5867 136.895 25.0027 136.687 25.3277 136.297C25.7567 135.764 25.9127 134.828 25.9127 132.891ZM35.1195 130.681C35.1065 131.669 34.8985 132.241 34.1445 133.099L30.9595 136.726H35.2625V137.987H29.0095V136.843L32.9615 132.332C33.4685 131.76 33.6635 131.292 33.6635 130.694C33.6635 129.641 32.9745 128.9 31.9995 128.9C30.9595 128.9 30.3355 129.615 30.3355 130.694V130.967H28.8665V130.681C28.8665 128.991 29.9975 127.626 31.9995 127.626C34.0015 127.626 35.1195 128.991 35.1195 130.681ZM43.1302 130.681C43.1172 131.669 42.9092 132.241 42.1552 133.099L38.9702 136.726H43.2732V137.987H37.0202V136.843L40.9722 132.332C41.4792 131.76 41.6742 131.292 41.6742 130.694C41.6742 129.641 40.9852 128.9 40.0102 128.9C38.9702 128.9 38.3462 129.615 38.3462 130.694V130.967H36.8772V130.681C36.8772 128.991 38.0082 127.626 40.0102 127.626C42.0122 127.626 43.1302 128.991 43.1302 130.681ZM45.083 132.943C45.083 127.405 46.136 126.352 48.307 126.352V127.6C47.085 127.6 46.513 128.276 46.513 132.943C46.513 137.623 47.085 138.286 48.307 138.286V139.547C46.136 139.547 45.083 138.494 45.083 132.943ZM54.1132 137.987H52.6442V129.342L50.2522 130.408V128.978L52.8652 127.795H54.1132V137.987ZM63.6839 130.681C63.6709 131.669 63.4629 132.241 62.7089 133.099L59.5239 136.726H63.8269V137.987H57.5739V136.843L61.5259 132.332C62.0329 131.76 62.2279 131.292 62.2279 130.694C62.2279 129.641 61.5389 128.9 60.5639 128.9C59.5239 128.9 58.8999 129.615 58.8999 130.694V130.967H57.4309V130.681C57.4309 128.991 58.5619 127.626 60.5639 127.626C62.5659 127.626 63.6839 128.991 63.6839 130.681ZM70.9669 139.157L71.3829 138.013L68.5879 130.707H70.0829L72.1109 136.219L74.0869 130.707H75.5819L72.2669 139.599C71.7859 140.886 71.1359 141.159 70.0569 141.159C69.8619 141.159 69.6279 141.159 69.4589 141.146V139.976H69.9399C70.4079 139.976 70.7329 139.82 70.9669 139.157ZM82.6096 134.789H77.6306C77.6826 136.154 78.2156 136.96 79.4376 136.96C80.3476 136.96 80.8936 136.518 80.9976 135.803H82.4666C82.2326 137.272 81.1796 138.156 79.4376 138.156C77.2536 138.156 76.1876 136.778 76.1876 134.347C76.1876 131.929 77.2536 130.538 79.4116 130.538C81.5566 130.538 82.6226 131.929 82.6226 134.347C82.6226 134.503 82.6226 134.646 82.6096 134.789ZM79.4116 131.734C78.2416 131.734 77.7476 132.475 77.6436 133.697H81.1666C81.0626 132.475 80.5556 131.734 79.4116 131.734ZM88.4739 137.207C88.2399 137.779 87.4989 138.156 86.4199 138.156C84.7299 138.156 83.6639 137.324 83.6639 135.842C83.6639 134.373 84.7299 133.528 86.4199 133.528C87.4209 133.528 88.2139 133.866 88.4739 134.464V133.281C88.4739 132.293 87.9539 131.721 86.9009 131.721C85.9649 131.721 85.4839 132.124 85.3799 132.865H83.9369C84.0409 131.422 85.0419 130.538 86.9009 130.538C88.9289 130.538 89.9169 131.617 89.9169 133.281V136.986C89.9169 137.35 89.9819 137.74 90.0859 137.987H88.6169C88.5259 137.792 88.4739 137.519 88.4739 137.207ZM86.7839 136.999C87.9019 136.999 88.4869 136.609 88.4869 135.842C88.4869 135.088 87.9019 134.685 86.7839 134.685C85.6789 134.685 85.0939 135.088 85.0939 135.842C85.0939 136.609 85.6789 136.999 86.7839 136.999ZM94.8715 131.734C93.6495 131.734 92.8955 132.592 92.8955 134.256V137.987H91.4785V130.707H92.8955V131.929C93.2075 131.006 93.7925 130.538 94.9105 130.538C95.1315 130.538 95.3785 130.551 95.5085 130.59L95.4825 131.76C95.3655 131.747 95.1315 131.734 94.8715 131.734ZM99.0282 130.538C100.731 130.538 101.745 131.396 101.745 132.67V132.839H100.315V132.657C100.315 132.124 99.8732 131.682 99.0282 131.682C98.1702 131.682 97.7282 132.124 97.7282 132.644C97.7282 133.437 98.3782 133.45 99.7302 133.736C101.303 134.022 102.018 134.698 102.018 135.959C102.018 137.207 100.9 138.156 99.1452 138.156C97.4032 138.156 96.2592 137.233 96.2592 135.959V135.751H97.6892V135.959C97.6892 136.622 98.2742 137.012 99.1452 137.012C100.003 137.012 100.588 136.609 100.588 135.998C100.588 135.153 99.9122 135.062 98.5992 134.789C97.0262 134.516 96.3112 133.879 96.3112 132.67C96.3112 131.422 97.3122 130.538 99.0282 130.538ZM110.083 136.973C111.422 136.973 111.864 135.959 111.864 134.347C111.864 132.735 111.422 131.721 110.083 131.721C108.744 131.721 108.302 132.735 108.302 134.347C108.302 135.959 108.744 136.973 110.083 136.973ZM110.083 130.538C112.228 130.538 113.294 131.916 113.294 134.347C113.294 136.778 112.228 138.156 110.083 138.156C107.925 138.156 106.859 136.778 106.859 134.347C106.859 131.916 107.925 130.538 110.083 130.538ZM116.117 137.987H114.687V127.795H116.117V137.987ZM122.503 131.838V127.795H123.946V137.987H122.503V136.856C122.23 137.649 121.463 138.156 120.423 138.156C118.629 138.156 117.511 136.96 117.511 134.347C117.511 131.734 118.629 130.538 120.423 130.538C121.463 130.538 122.23 131.045 122.503 131.838ZM122.503 134.347C122.503 132.748 122.061 131.734 120.735 131.734C119.383 131.734 118.941 132.748 118.941 134.347C118.941 135.959 119.383 136.96 120.735 136.96C122.061 136.96 122.503 135.959 122.503 134.347ZM128.232 132.943C128.232 138.494 127.166 139.547 124.982 139.547V138.286C126.217 138.286 126.789 137.623 126.789 132.943C126.789 128.276 126.217 127.6 124.982 127.6V126.352C127.166 126.352 128.232 127.405 128.232 132.943ZM18.058 145.795H19.592L21.776 153.985L23.895 145.795H25.455L22.738 155.987H20.905L18.825 148.226L16.732 155.987H14.899L12.195 145.795H13.755L15.874 153.985L18.058 145.795ZM30.5071 155.207C30.2731 155.779 29.5321 156.156 28.4531 156.156C26.7631 156.156 25.6971 155.324 25.6971 153.842C25.6971 152.373 26.7631 151.528 28.4531 151.528C29.4541 151.528 30.2471 151.866 30.5071 152.464V151.281C30.5071 150.293 29.9871 149.721 28.9341 149.721C27.9981 149.721 27.5171 150.124 27.4131 150.865H25.9701C26.0741 149.422 27.0751 148.538 28.9341 148.538C30.9621 148.538 31.9501 149.617 31.9501 151.281V154.986C31.9501 155.35 32.0151 155.74 32.1191 155.987H30.6501C30.5591 155.792 30.5071 155.519 30.5071 155.207ZM28.8171 154.999C29.9351 154.999 30.5201 154.609 30.5201 153.842C30.5201 153.088 29.9351 152.685 28.8171 152.685C27.7121 152.685 27.1271 153.088 27.1271 153.842C27.1271 154.609 27.7121 154.999 28.8171 154.999ZM35.3998 149.89V153.777C35.3998 154.687 35.7378 154.908 36.6478 154.908H37.3758V156.052C37.1418 156.091 36.7128 156.091 36.4008 156.091C34.6978 156.091 33.9698 155.597 33.9698 154.037V149.89H32.9168V148.707H33.9698V146.64H35.3998V148.707H37.3758V149.89H35.3998ZM44.7649 152.789H39.7859C39.8379 154.154 40.3709 154.96 41.5929 154.96C42.5029 154.96 43.0489 154.518 43.1529 153.803H44.6219C44.3879 155.272 43.3349 156.156 41.5929 156.156C39.4089 156.156 38.3429 154.778 38.3429 152.347C38.3429 149.929 39.4089 148.538 41.5669 148.538C43.7119 148.538 44.7779 149.929 44.7779 152.347C44.7779 152.503 44.7779 152.646 44.7649 152.789ZM41.5669 149.734C40.3969 149.734 39.9029 150.475 39.7989 151.697H43.3219C43.2179 150.475 42.7109 149.734 41.5669 149.734ZM49.5112 149.734C48.2892 149.734 47.5352 150.592 47.5352 152.256V155.987H46.1182V148.707H47.5352V149.929C47.8472 149.006 48.4322 148.538 49.5502 148.538C49.7712 148.538 50.0182 148.551 50.1482 148.59L50.1222 149.76C50.0052 149.747 49.7712 149.734 49.5112 149.734ZM56.281 150.891C56.281 153.348 56.814 154.843 58.738 154.843C60.181 154.843 60.987 153.985 61.078 152.607H62.586C62.469 154.713 61.091 156.156 58.738 156.156C55.514 156.156 54.773 153.621 54.773 150.891C54.773 148.174 55.527 145.626 58.738 145.626C61.091 145.626 62.469 147.082 62.586 149.188H61.078C60.987 147.81 60.181 146.952 58.738 146.952C56.801 146.952 56.281 148.473 56.281 150.891ZM66.9448 154.973C68.2838 154.973 68.7258 153.959 68.7258 152.347C68.7258 150.735 68.2838 149.721 66.9448 149.721C65.6058 149.721 65.1638 150.735 65.1638 152.347C65.1638 153.959 65.6058 154.973 66.9448 154.973ZM66.9448 148.538C69.0898 148.538 70.1558 149.916 70.1558 152.347C70.1558 154.778 69.0898 156.156 66.9448 156.156C64.7868 156.156 63.7208 154.778 63.7208 152.347C63.7208 149.916 64.7868 148.538 66.9448 148.538ZM72.9781 155.987H71.5481V145.795H72.9781V155.987ZM77.5962 154.973C78.9352 154.973 79.3772 153.959 79.3772 152.347C79.3772 150.735 78.9352 149.721 77.5962 149.721C76.2572 149.721 75.8152 150.735 75.8152 152.347C75.8152 153.959 76.2572 154.973 77.5962 154.973ZM77.5962 148.538C79.7412 148.538 80.8072 149.916 80.8072 152.347C80.8072 154.778 79.7412 156.156 77.5962 156.156C75.4382 156.156 74.3722 154.778 74.3722 152.347C74.3722 149.916 75.4382 148.538 77.5962 148.538ZM85.5405 149.734C84.3185 149.734 83.5645 150.592 83.5645 152.256V155.987H82.1475V148.707H83.5645V149.929C83.8765 149.006 84.4615 148.538 85.5795 148.538C85.8005 148.538 86.0475 148.551 86.1775 148.59L86.1515 149.76C86.0345 149.747 85.8005 149.734 85.5405 149.734Z" fill="black"/>
<defs>
<filter id="filter0_d_2775_156" x="0" y="7" width="174" height="174" filterUnits="userSpaceOnUse" color-interpolation-filters="sRGB">
<feFlood flood-opacity="0" result="BackgroundImageFix"/>
<feColorMatrix in="SourceAlpha" type="matrix" values="0 0 0 0 0 0 0 0 0 0 0 0 0 0 0 0 0 0 127 0" result="hardAlpha"/>
<feOffset dx="4" dy="4"/>
<feGaussianBlur stdDeviation="2"/>
<feComposite in2="hardAlpha" operator="out"/>
<feColorMatrix type="matrix" values="0 0 0 0 0 0 0 0 0 0 0 0 0 0 0 0 0 0 0.25 0"/>
<feBlend mode="normal" in2="BackgroundImageFix" result="effect1_dropShadow_2775_156"/>
<feBlend mode="normal" in="SourceGraphic" in2="effect1_dropShadow_2775_156" result="shape"/>
</filter>
</defs>
</svg>
