<svg width="174" height="181" viewBox="0 0 174 181" fill="none" xmlns="http://www.w3.org/2000/svg">
<g filter="url(#filter0_d_2775_187)">
<rect y="7" width="166" height="166" fill="#F8F7F4"/>
</g>
<path d="M13.035 25.835C13.035 24.5 13.47 23.495 14.25 22.85C14.895 22.325 15.75 22.07 16.77 22.07C17.79 22.07 18.66 22.325 19.275 22.85C20.07 23.495 20.505 24.5 20.505 25.835C20.505 27.17 20.07 28.175 19.275 28.805C18.66 29.315 17.79 29.585 16.77 29.585C15.75 29.585 14.895 29.315 14.25 28.805C13.47 28.175 13.035 27.17 13.035 25.835ZM15.24 25.835C15.24 26.495 15.435 27.005 15.75 27.32C16.005 27.56 16.365 27.695 16.77 27.695C17.19 27.695 17.535 27.56 17.79 27.32C18.12 27.005 18.3 26.495 18.3 25.835C18.3 25.175 18.12 24.65 17.79 24.335C17.535 24.095 17.19 23.975 16.77 23.975C16.365 23.975 16.005 24.095 15.75 24.335C15.435 24.65 15.24 25.175 15.24 25.835ZM24.315 22.16V23.495H26.145V25.43H24.315V26.615H26.145V28.58H24.315V30.05H22.035V22.16H24.315ZM13.77 33.275C13.77 32.405 14.145 31.76 14.76 31.295C15.735 30.515 17.37 30.215 19.215 30.215C21.045 30.215 22.68 30.515 23.655 31.295C24.27 31.76 24.645 32.405 24.645 33.275C24.645 34.145 24.27 34.805 23.655 35.27C22.68 36.035 21.045 36.335 19.215 36.335C17.37 36.335 15.735 36.035 14.76 35.27C14.145 34.805 13.77 34.145 13.77 33.275ZM16.05 33.275C16.05 33.56 16.185 33.785 16.44 33.965C16.95 34.325 17.925 34.43 19.215 34.43C20.49 34.43 21.465 34.325 21.975 33.965C22.23 33.785 22.38 33.56 22.38 33.275C22.38 32.99 22.23 32.765 21.975 32.585C21.465 32.24 20.49 32.12 19.215 32.12C17.925 32.12 16.95 32.24 16.44 32.585C16.185 32.765 16.05 32.99 16.05 33.275ZM33.5844 26.45C32.5344 27.86 30.3144 28.94 27.6594 29.255V27.29C30.6444 26.78 32.4444 25.34 32.4444 22.7V22.235H34.7244V22.7C34.7244 25.355 36.5244 26.765 39.5094 27.29V29.255C36.8544 28.94 34.6194 27.86 33.5844 26.45ZM32.4444 32.72H27.4194V30.77H39.7794V32.72H34.7244V36.23H32.4444V32.72ZM49.1688 30.02H42.1788V22.31H49.1688V30.02ZM46.9938 28.145V24.215H44.3688V28.145H46.9938ZM53.4738 22.16V31.88H51.1938V22.16H53.4738ZM53.6988 34.175V36.08H42.9588V31.145H45.2388V34.175H53.6988ZM17.19 46.235L19.62 41.165H22.185L18.42 48.35V53.03H15.96V48.35L12.21 41.165H14.775L17.19 46.235ZM31.6978 53.03H29.1778L28.5328 50.75H24.5428L23.8978 53.03H21.3778L25.1728 41.165H27.9028L31.6978 53.03ZM26.5378 43.7L25.0978 48.74H27.9628L26.5378 43.7ZM38.944 53.03L35.179 45.425V53.03H32.719V41.165H35.209L38.974 48.785V41.165H41.449V53.03H38.944ZM42.9669 47.09C42.9669 45.335 43.2219 43.73 44.1069 42.56C44.8719 41.54 46.0119 40.955 47.7519 40.955C50.5719 40.955 52.2519 42.605 52.4019 45.215H49.9419C49.8519 43.85 49.1019 43.025 47.7519 43.025C46.9719 43.025 46.4019 43.31 46.0419 43.85C45.6219 44.465 45.4419 45.35 45.4419 47.09C45.4419 50.3 46.2069 51.17 47.7819 51.17C49.3119 51.17 49.9269 50.135 50.0319 48.575H47.8119V46.745H52.3869V53.03H50.6169L50.3319 51.635C49.9119 52.595 48.9369 53.24 47.4969 53.24C44.0619 53.24 42.9669 50.405 42.9669 47.09ZM66.7809 49.625C66.7809 51.725 65.2359 53.24 62.5059 53.24C59.8059 53.24 58.2309 51.755 58.2309 49.67V49.445H60.6909V49.7C60.6909 50.615 61.3659 51.245 62.5059 51.245C63.6309 51.245 64.3059 50.615 64.3059 49.7C64.3059 48.89 63.7959 48.335 62.6859 48.11L61.4109 47.855C59.4159 47.465 58.2009 46.385 58.2009 44.39C58.2009 42.5 59.6259 40.955 62.2659 40.955C64.9059 40.955 66.3309 42.515 66.3309 44.33V44.51H63.8709V44.33C63.8709 43.52 63.3009 42.965 62.2659 42.965C61.2159 42.965 60.6609 43.52 60.6609 44.33C60.6609 45.155 61.1709 45.575 62.3109 45.815L63.5859 46.07C65.6559 46.49 66.7809 47.66 66.7809 49.625ZM72.6089 53.24C69.5339 53.24 68.0639 51.425 68.0639 48.635V41.165H70.5389V48.53C70.5389 50.3 71.1839 51.17 72.6089 51.17C74.0189 51.17 74.6789 50.3 74.6789 48.53V41.165H77.1389V48.635C77.1389 51.425 75.6689 53.24 72.6089 53.24ZM85.9123 53.03H83.8723L81.2323 46.115V53.03H78.8323V41.165H81.3373L84.8923 50.465L88.4473 41.165H90.9523V53.03H88.5523V46.115L85.9123 53.03ZM95.179 41.165V53.03H92.719V41.165H95.179ZM103.163 53.03L99.3977 45.425V53.03H96.9377V41.165H99.4277L103.193 48.785V41.165H105.668V53.03H103.163Z" fill="black"/>
<path d="M20.71 128.987H19.15L18.435 126.725H14.405L13.69 128.987H12.13L15.523 118.795H17.304L20.71 128.987ZM18.019 125.412L16.42 120.29L14.808 125.412H18.019ZM23.0586 121.707V122.838C23.3446 122.045 24.1116 121.538 25.1516 121.538C26.9456 121.538 28.0636 122.734 28.0636 125.347C28.0636 127.96 26.9456 129.156 25.1516 129.156C24.1116 129.156 23.3446 128.649 23.0586 127.856V132.159H21.6416V121.707H23.0586ZM24.8526 127.973C26.1786 127.973 26.6206 126.959 26.6206 125.347C26.6206 123.735 26.1786 122.721 24.8526 122.721C23.5006 122.721 23.0586 123.735 23.0586 125.347C23.0586 126.959 23.5006 127.973 24.8526 127.973ZM32.7915 122.734C31.5695 122.734 30.8155 123.592 30.8155 125.256V128.987H29.3985V121.707H30.8155V122.929C31.1275 122.006 31.7125 121.538 32.8305 121.538C33.0515 121.538 33.2985 121.551 33.4285 121.59L33.4025 122.76C33.2855 122.747 33.0515 122.734 32.7915 122.734ZM35.9076 127.258V128.987H34.2956V127.258H35.9076ZM47.9798 121.681C47.9668 122.669 47.7588 123.241 47.0048 124.099L43.8198 127.726H48.1228V128.987H41.8698V127.843L45.8218 123.332C46.3288 122.76 46.5238 122.292 46.5238 121.694C46.5238 120.641 45.8348 119.9 44.8598 119.9C43.8198 119.9 43.1958 120.615 43.1958 121.694V121.967H41.7268V121.681C41.7268 119.991 42.8578 118.626 44.8598 118.626C46.8618 118.626 47.9798 119.991 47.9798 121.681ZM56.2636 123.891C56.2636 126.218 55.9516 127.44 55.2236 128.246C54.6646 128.844 53.8716 129.156 52.8966 129.156C51.9216 129.156 51.1026 128.844 50.5566 128.246C49.8286 127.44 49.5166 126.218 49.5166 123.891C49.5166 121.564 49.8286 120.342 50.5566 119.536C51.1026 118.938 51.9216 118.626 52.8966 118.626C53.8716 118.626 54.6646 118.938 55.2236 119.536C55.9516 120.342 56.2636 121.564 56.2636 123.891ZM54.7946 123.891C54.7946 121.954 54.6386 121.018 54.2096 120.485C53.8846 120.095 53.4686 119.887 52.8966 119.887C52.3246 119.887 51.8956 120.095 51.5706 120.485C51.1416 121.018 50.9726 121.954 50.9726 123.891C50.9726 125.828 51.1416 126.764 51.5706 127.297C51.8956 127.687 52.3246 127.895 52.8966 127.895C53.4686 127.895 53.8846 127.687 54.2096 127.297C54.6386 126.764 54.7946 125.828 54.7946 123.891ZM64.0013 121.681C63.9883 122.669 63.7803 123.241 63.0263 124.099L59.8413 127.726H64.1443V128.987H57.8913V127.843L61.8433 123.332C62.3503 122.76 62.5453 122.292 62.5453 121.694C62.5453 120.641 61.8563 119.9 60.8813 119.9C59.8413 119.9 59.2173 120.615 59.2173 121.694V121.967H57.7483V121.681C57.7483 119.991 58.8793 118.626 60.8813 118.626C62.8833 118.626 64.0013 119.991 64.0013 121.681ZM70.6991 126.049C70.6991 124.892 69.9581 124.203 68.9181 124.203H67.8651V122.955H68.9181C69.8281 122.955 70.4131 122.331 70.4131 121.434C70.4131 120.498 69.7761 119.9 68.8921 119.9C67.9691 119.9 67.3711 120.498 67.3711 121.434V121.538H65.9021V121.317C65.9021 119.783 67.0071 118.626 68.8921 118.626C70.7771 118.626 71.8691 119.783 71.8691 121.317C71.8691 122.37 71.2711 123.267 70.3221 123.566C71.4401 123.891 72.1681 124.775 72.1681 126.14C72.1681 127.986 70.8031 129.156 68.8921 129.156C66.9811 129.156 65.5901 127.986 65.5901 126.101V125.945H67.0721V126.023C67.0721 127.219 67.8391 127.882 68.8921 127.882C69.9191 127.882 70.6991 127.232 70.6991 126.049Z" fill="black"/>
<defs>
<filter id="filter0_d_2775_187" x="0" y="7" width="174" height="174" filterUnits="userSpaceOnUse" color-interpolation-filters="sRGB">
<feFlood flood-opacity="0" result="BackgroundImageFix"/>
<feColorMatrix in="SourceAlpha" type="matrix" values="0 0 0 0 0 0 0 0 0 0 0 0 0 0 0 0 0 0 127 0" result="hardAlpha"/>
<feOffset dx="4" dy="4"/>
<feGaussianBlur stdDeviation="2"/>
<feComposite in2="hardAlpha" operator="out"/>
<feColorMatrix type="matrix" values="0 0 0 0 0 0 0 0 0 0 0 0 0 0 0 0 0 0 0.25 0"/>
<feBlend mode="normal" in2="BackgroundImageFix" result="effect1_dropShadow_2775_187"/>
<feBlend mode="normal" in="SourceGraphic" in2="effect1_dropShadow_2775_187" result="shape"/>
</filter>
</defs>
</svg>
