<svg width="761" height="92" viewBox="0 0 761 92" fill="none" xmlns="http://www.w3.org/2000/svg">
<rect x="603" y="46" width="158" height="42" fill="#BEE4B4"/>
<path d="M334.54 69.12V21.66H344.38V60.9H364.3V69.12H334.54ZM368.7 69.12V21.66H398.16V29.88H378.54V40.68H395.7V48.9H378.54V60.9H398.46V69.12H368.7ZM404.267 69.12V21.66H433.727V29.88H414.107V40.68H431.267V48.9H414.107V60.9H434.027V69.12H404.267ZM481.83 69.12V48.9H467.31V69.12H457.47V21.66H467.31V40.68H481.83V21.66H491.73V69.12H481.83ZM515.998 41.94L525.718 21.66H535.978L520.918 50.4V69.12H511.078V50.4L496.078 21.66H506.338L515.998 41.94ZM540.321 69.12V21.66H569.781V29.88H550.161V40.68H567.321V48.9H550.161V60.9H570.081V69.12H540.321ZM613.088 45.36C613.088 52.44 612.128 58.86 608.588 63.54C605.528 67.62 600.908 69.96 594.008 69.96C587.048 69.96 582.488 67.62 579.428 63.54C575.888 58.86 574.868 52.44 574.868 45.36C574.868 38.34 575.888 31.92 579.428 27.24C582.488 23.16 587.048 20.82 594.008 20.82C600.908 20.82 605.528 23.16 608.588 27.24C612.128 31.92 613.088 38.34 613.088 45.36ZM584.768 45.36C584.768 52.38 585.488 55.92 587.168 58.38C588.608 60.54 590.888 61.68 594.008 61.68C597.128 61.68 599.408 60.54 600.848 58.38C602.528 55.92 603.188 52.38 603.188 45.36C603.188 38.4 602.528 34.86 600.848 32.4C599.408 30.24 597.128 29.1 594.008 29.1C590.888 29.1 588.608 30.24 587.168 32.4C585.488 34.86 584.768 38.4 584.768 45.36ZM644.03 69.12L628.97 38.7V69.12H619.13V21.66H629.09L644.15 52.14V21.66H654.05V69.12H644.03ZM674.342 69.96C664.082 69.96 658.562 64.32 658.562 54.36V53.7H668.462C668.582 59.4 670.502 61.68 674.342 61.68C678.302 61.68 680.222 59.34 680.222 53.1V21.66H690.122V54.36C690.122 64.32 684.662 69.96 674.342 69.96ZM706.9 21.66V69.12H697.06V21.66H706.9Z" fill="black"/>
<path d="M32.4601 21.66V69.12H22.6201V21.66H32.4601ZM69.0751 47.64V69.12H59.7151V47.82C59.7151 43.62 58.0351 41.64 54.9151 41.64C50.9551 41.64 48.3751 44.64 48.3751 49.98V69.12H38.9551V35.22H48.3751V40.86C49.5751 36.96 52.9951 34.38 57.8551 34.38C65.0551 34.38 69.0751 38.94 69.0751 47.64ZM87.0601 42.48V57.6C87.0601 61.5 88.2601 62.4 92.4001 62.4H95.8801V69.42C94.6201 69.54 91.8601 69.6 90.1801 69.6C81.1801 69.6 77.7001 66.84 77.7001 59.04V42.48H72.7801V35.22H77.7001V25.62H87.0601V35.22H95.8801V42.48H87.0601ZM131.079 54.72H108.939C109.179 60.18 111.339 63.12 115.359 63.12C118.419 63.12 120.399 61.56 120.939 58.8H130.419C129.339 65.7 123.939 69.96 115.359 69.96C104.619 69.96 99.5785 63.18 99.5785 52.14C99.5785 41.22 104.619 34.38 115.359 34.38C126.159 34.38 131.139 41.22 131.139 52.14C131.139 53.04 131.139 54 131.079 54.72ZM115.359 41.28C111.339 41.28 109.179 43.92 108.999 48.84H121.659C121.479 43.92 119.319 41.28 115.359 41.28ZM154.279 42.12C148.879 42.12 145.699 45.6 145.699 52.2V69.12H136.279V35.22H145.699V41.52C146.719 36.78 149.479 34.38 154.519 34.38C155.539 34.38 156.499 34.5 157.159 34.68L157.039 42.24C156.499 42.18 155.419 42.12 154.279 42.12ZM180.747 69.12H170.667L158.727 35.22H168.327L175.707 59.28L183.147 35.22H192.747L180.747 69.12ZM196.695 29.82V21.66H206.055V29.82H196.695ZM196.695 69.12V35.22H206.055V69.12H196.695ZM242.875 54.72H220.735C220.975 60.18 223.135 63.12 227.155 63.12C230.215 63.12 232.195 61.56 232.735 58.8H242.215C241.135 65.7 235.735 69.96 227.155 69.96C216.415 69.96 211.375 63.18 211.375 52.14C211.375 41.22 216.415 34.38 227.155 34.38C237.955 34.38 242.935 41.22 242.935 52.14C242.935 53.04 242.935 54 242.875 54.72ZM227.155 41.28C223.135 41.28 220.975 43.92 220.795 48.84H233.455C233.275 43.92 231.115 41.28 227.155 41.28ZM288.345 69.12H278.985L272.265 46.26L265.605 69.12H256.245L245.505 35.22H254.925L261.405 58.92L268.305 35.22H276.285L283.185 58.92L289.665 35.22H299.085L288.345 69.12Z" fill="black"/>
<rect x="7.75" y="5.75" width="300.5" height="79.5" stroke="black" stroke-width="1.5"/>
<rect x="0.75" y="-0.75" width="11.5" height="11.5" transform="matrix(1 0 0 -1 0 11.5)" stroke="black" stroke-width="1.5"/>
<rect x="0.75" y="-0.75" width="11.5" height="11.5" transform="matrix(1 0 0 -1 151 11.5)" stroke="black" stroke-width="1.5"/>
<rect x="0.75" y="-0.75" width="11.5" height="11.5" transform="matrix(1 0 0 -1 302 11.5)" stroke="black" stroke-width="1.5"/>
<rect x="0.75" y="-0.75" width="11.5" height="11.5" transform="matrix(1 0 0 -1 302 90.5)" stroke="black" stroke-width="1.5"/>
<rect x="0.75" y="-0.75" width="11.5" height="11.5" transform="matrix(1 0 0 -1 151 90.5)" stroke="black" stroke-width="1.5"/>
<rect x="0.75" y="-0.75" width="11.5" height="11.5" transform="matrix(1 0 0 -1 0 90.5)" stroke="black" stroke-width="1.5"/>
</svg>
