<svg width="469" height="133" viewBox="0 0 469 133" fill="none" xmlns="http://www.w3.org/2000/svg">
<g filter="url(#filter0_d_2651_14)">
<rect x="40" y="88" width="190" height="38" fill="#BEE4B4"/>
</g>
<path d="M183.259 9.65H183.469C184.403 9.65 185.126 10.3267 185.639 11.68C185.639 12.1933 184.706 13.4067 182.839 15.32C182.233 16.72 181.929 17.98 181.929 19.1V20.57C181.929 21.3167 182.373 22.6467 183.259 24.56C183.259 25.54 182.536 26.2633 181.089 26.73C179.316 26.73 178.196 24.49 177.729 20.01V19.73C177.729 15.2967 179.573 11.9367 183.259 9.65ZM188.929 13.43H189.139C190.119 13.43 190.703 14.1533 190.889 15.6C190.889 16.3 189.956 17.2333 188.089 18.4L187.669 20.15V20.57L188.229 23.23C188.229 24.07 187.506 24.7933 186.059 25.4C184.333 24.84 183.469 23.1833 183.469 20.43C183.469 17.1167 185.289 14.7833 188.929 13.43ZM197.216 13.22C198.336 13.22 199.059 13.8033 199.386 14.97L198.966 19.1V20.43C200.132 30.09 200.856 37.6033 201.136 42.97C201.649 47.9633 202.186 50.46 202.746 50.46C202.746 51.44 201.929 52.07 200.296 52.35C197.962 52.35 196.796 47.6367 196.796 38.21L194.836 20.01V19.38C194.836 15.2733 195.629 13.22 197.216 13.22ZM209.449 10.56C210.895 10.56 211.829 12.31 212.249 15.81V16.23C212.249 17.8167 211.502 18.61 210.009 18.61C208.562 18.61 207.839 17.0933 207.839 14.06C207.512 14.06 207.302 13.5233 207.209 12.45C207.675 11.19 208.422 10.56 209.449 10.56ZM217.468 27.5C217.794 26.3333 218.541 25.75 219.708 25.75C220.874 25.75 221.644 26.9167 222.018 29.25H222.298L225.518 28.55C227.011 28.55 228.458 29.95 229.858 32.75H230.138C232.191 29.53 234.291 27.92 236.438 27.92C241.011 28.76 243.298 31.7467 243.298 36.88L243.438 39.33L242.808 53.47V54.8C242.808 55.9667 242.084 56.6433 240.638 56.83C239.191 56.83 238.468 55.1267 238.468 51.72L239.308 39.05C239.308 34.3833 238.211 32.05 236.018 32.05C234.758 32.05 233.241 35.1067 231.468 41.22C230.581 48.22 229.858 51.72 229.298 51.72C228.504 51.72 228.108 51.8833 228.108 52.21C226.661 52.0233 225.938 51.2767 225.938 49.97L226.848 41.5C226.708 35.6667 226.124 32.75 225.098 32.75H224.888C223.721 33.6367 223.138 35.3867 223.138 38V41.71L222.858 52.42C222.531 53.5867 221.808 54.17 220.688 54.17C219.708 54.17 219.078 53.3533 218.798 51.72L218.518 43.46L218.938 36.67C218.658 33.17 218.168 30.1133 217.468 27.5ZM286.791 24.98C288.844 24.98 289.871 25.7967 289.871 27.43L289.241 28.76L288.821 41.57C288.821 47.3567 289.988 50.95 292.321 52.35L292.461 53.4C292.321 54.7533 291.691 55.43 290.571 55.43H290.151C286.651 53.05 284.901 49.41 284.901 44.51H284.411C282.544 49.7367 280.281 52.35 277.621 52.35C275.148 51.65 273.911 49.8067 273.911 46.82C273.911 40.24 276.548 33.6833 281.821 27.15C283.594 25.7033 285.251 24.98 286.791 24.98ZM278.321 44.02L278.041 45.98V47.31H278.741C282.241 38.5833 283.991 33.2633 283.991 31.35H283.711C281.004 34.3833 279.208 38.6067 278.321 44.02ZM61.6194 75.67C64.7927 75.67 66.6361 77.9567 67.1494 82.53C67.1494 86.31 66.2627 88.69 64.4894 89.67H64.0694C62.7161 89.5767 62.0394 89.0867 62.0394 88.2L62.3194 82.95V80.36L61.8994 79.87H61.1994C59.7061 79.87 57.9561 84.0233 55.9494 92.33L55.5294 97.58V99.12C55.5294 103.973 57.6994 106.82 62.0394 107.66H64.9794C69.8327 107.66 75.7127 104.533 82.6194 98.28H82.8994C84.1594 98.28 84.8827 99.0733 85.0694 100.66C83.9961 103.46 82.7361 104.86 81.2894 104.86C74.6161 109.62 68.6194 112 63.2994 112C57.9794 112 54.2227 109.083 52.0294 103.25L51.3994 98.28V97.37C51.3994 90.1367 53.4294 83.4867 57.4894 77.42C58.7961 76.2533 60.1727 75.67 61.6194 75.67ZM98.9294 85.61C102.383 85.61 104.996 88.1767 106.769 93.31L107.049 94.78C107.049 99.7733 104.716 104.883 100.049 110.11C98.1827 111.837 96.2927 112.7 94.3794 112.7C91.5794 112.7 89.5961 111.09 88.4294 107.87C88.0094 106.377 87.7994 105.07 87.7994 103.95V103.11C87.7994 95.7367 90.4827 90.1367 95.8494 86.31C96.7827 85.8433 97.8094 85.61 98.9294 85.61ZM91.9294 103.81C91.9294 106.983 92.7461 108.57 94.3794 108.57C97.7861 108.57 100.609 104.207 102.849 95.48V94.15C102.056 91.2567 100.586 89.81 98.4394 89.81C97.5994 89.81 97.1794 90.3933 97.1794 91.56C97.1794 92.3533 96.2461 92.9833 94.3794 93.45C92.7461 96.2033 91.9294 99.6567 91.9294 103.81ZM114.141 73.43C115.448 73.8967 116.101 74.62 116.101 75.6L116.801 102.27V110.88C116.801 112.467 116.125 113.26 114.771 113.26H113.861C113.021 112.7 112.601 112.047 112.601 111.3V103.18L111.971 75.46C111.971 74.2933 112.695 73.6167 114.141 73.43ZM133.041 85.61C136.494 85.61 139.107 88.1767 140.881 93.31L141.161 94.78C141.161 99.7733 138.827 104.883 134.161 110.11C132.294 111.837 130.404 112.7 128.491 112.7C125.691 112.7 123.707 111.09 122.541 107.87C122.121 106.377 121.911 105.07 121.911 103.95V103.11C121.911 95.7367 124.594 90.1367 129.961 86.31C130.894 85.8433 131.921 85.61 133.041 85.61ZM126.041 103.81C126.041 106.983 126.857 108.57 128.491 108.57C131.897 108.57 134.721 104.207 136.961 95.48V94.15C136.167 91.2567 134.697 89.81 132.551 89.81C131.711 89.81 131.291 90.3933 131.291 91.56C131.291 92.3533 130.357 92.9833 128.491 93.45C126.857 96.2033 126.041 99.6567 126.041 103.81ZM153.503 84.42C156.443 84.42 158.193 86.4733 158.753 90.58V91.21C158.753 95.7367 156.419 99.89 151.753 103.67C154.459 106.33 159.196 107.66 165.963 107.66C166.989 107.987 167.503 108.71 167.503 109.83C167.503 111.09 166.686 111.72 165.053 111.72C160.479 111.72 155.673 110.553 150.633 108.22V110.25C150.633 115.057 149.606 117.46 147.553 117.46C146.106 117.46 145.383 114.683 145.383 109.13V103.67L145.173 101.71L145.663 99.47L145.173 92.75V92.47C145.173 91.21 145.826 90.3467 147.133 89.88C148.953 86.24 151.076 84.42 153.503 84.42ZM150.003 99.75C151.356 99.75 152.873 97.3233 154.553 92.47V89.46L153.713 88.55H153.083C151.029 89.95 150.003 93.6833 150.003 99.75ZM180.749 80.5C182.942 80.5 184.459 82.8333 185.299 87.5V87.78C185.299 88.8533 184.576 89.4833 183.129 89.67C181.962 89.67 181.169 88.2233 180.749 85.33L180.469 85.12H179.629C178.602 86.6133 178.089 88.5733 178.089 91L178.299 94.5C180.166 94.5 182.196 94.01 184.389 93.03C185.276 93.03 186.092 93.66 186.839 94.92C186.839 96.8333 184.226 98.0933 178.999 98.7L180.749 110.11C180.749 111.09 179.932 111.72 178.299 112C176.852 112 176.129 109.76 176.129 105.28L174.799 99.33L170.249 100.03C169.269 100.03 168.686 99.3067 168.499 97.86C168.499 96.46 170.389 95.5733 174.169 95.2L173.889 90.86C174.636 83.9533 176.922 80.5 180.749 80.5ZM191.496 90.93L192.756 90.23C193.876 90.23 194.693 90.9067 195.206 92.26C194.46 95.7133 194.086 99.26 194.086 102.9C194.086 104.72 194.623 106.703 195.696 108.85H196.116C197.47 108.85 199.08 103.507 200.946 92.82C201.6 92.26 202.23 91.98 202.836 91.98C204.283 91.98 205.006 94.5467 205.006 99.68C205.613 105.327 206.29 108.15 207.036 108.15L208.086 107.73C209.44 108.243 210.116 108.967 210.116 109.9C209.276 111.673 208.11 112.56 206.616 112.56C204.936 112.56 203.326 110.88 201.786 107.52C199.92 111.44 198.03 113.4 196.116 113.4C193.27 113.4 191.286 110.437 190.166 104.51L189.956 102.27V101.57C189.956 97.8367 190.47 94.29 191.496 90.93ZM215.587 73.43C216.893 73.8967 217.547 74.62 217.547 75.6L218.247 102.27V110.88C218.247 112.467 217.57 113.26 216.217 113.26H215.307C214.467 112.7 214.047 112.047 214.047 111.3V103.18L213.417 75.46C213.417 74.2933 214.14 73.6167 215.587 73.43ZM264.233 70.42L265.983 69.86C267.569 69.86 268.363 71.96 268.363 76.16L270.533 92.33L270.813 92.61L278.863 89.67C279.936 89.67 280.519 90.4867 280.613 92.12C280.613 93.3333 277.649 94.8033 271.723 96.53L271.443 96.67V96.95C271.443 97.93 272.983 103.04 276.063 112.28V112.42C276.063 113.307 275.339 114.053 273.893 114.66C272.539 114.66 271.653 113.05 271.233 109.83C270.159 107.497 268.853 103.647 267.313 98.28H267.033C260.919 99.54 257.863 100.613 257.863 101.5C254.503 108.78 251.959 112.42 250.233 112.42C249.253 112.42 248.669 111.79 248.483 110.53C248.483 109.41 249.719 107.217 252.193 103.95L253.313 101.5H251.563L250.233 101.78C248.506 101.36 247.643 100.473 247.643 99.12C248.343 97.4867 249.369 96.67 250.723 96.67L252.473 97.37C255.086 97.37 256.393 96.4133 256.393 94.5C258.773 88.9 261.386 80.8733 264.233 70.42ZM264.863 83.16L260.733 95.62C264.559 94.8733 266.473 94.15 266.473 93.45C265.773 86.59 265.236 83.16 264.863 83.16ZM291.93 84.42C294.87 84.42 296.62 86.4733 297.18 90.58V91.21C297.18 95.7367 294.847 99.89 290.18 103.67C292.887 106.33 297.624 107.66 304.39 107.66C305.417 107.987 305.93 108.71 305.93 109.83C305.93 111.09 305.114 111.72 303.48 111.72C298.907 111.72 294.1 110.553 289.06 108.22V110.25C289.06 115.057 288.034 117.46 285.98 117.46C284.534 117.46 283.81 114.683 283.81 109.13V103.67L283.6 101.71L284.09 99.47L283.6 92.75V92.47C283.6 91.21 284.254 90.3467 285.56 89.88C287.38 86.24 289.504 84.42 291.93 84.42ZM288.43 99.75C289.784 99.75 291.3 97.3233 292.98 92.47V89.46L292.14 88.55H291.51C289.457 89.95 288.43 93.6833 288.43 99.75ZM316.517 69.51C317.823 69.79 318.477 70.4433 318.477 71.47L318.057 74.55V75.46C318.057 77.5133 318.29 79.6833 318.757 81.97H318.897C324.31 80.3367 327.67 79.52 328.977 79.52C330.33 79.8933 331.007 80.57 331.007 81.55C331.007 83.1367 329.397 83.93 326.177 83.93L318.897 86.52C318.897 92.82 319.573 101.383 320.927 112.21C320.647 113.47 319.97 114.1 318.897 114.1H318.757C317.123 114.1 316.307 112 316.307 107.8C315.7 104.673 315.187 97.8833 314.767 87.43H313.507C309.12 87.15 306.927 86.1233 306.927 84.35C306.927 83.8367 307.417 83.2067 308.397 82.46H309.097L312.317 83.3H314.557L313.927 74.55C313.927 71.19 314.79 69.51 316.517 69.51ZM333.98 75.53C335.753 75.9033 336.64 76.6967 336.64 77.91C336.173 79.2167 335.426 79.87 334.4 79.87C332.673 79.5433 331.81 78.68 331.81 77.28C332.276 76.1133 333 75.53 333.98 75.53ZM336.64 85.33C337.386 85.33 338.016 86.0067 338.53 87.36L337.9 92.33V95.62C337.9 99.4467 338.553 104.463 339.86 110.67C339.393 111.557 338.6 112 337.48 112C335.566 112 334.306 106.4 333.7 95.2V92.75C333.7 87.8033 334.68 85.33 336.64 85.33ZM357.532 83.65C358.792 83.65 359.655 85.7733 360.122 90.02C359.655 91.1867 358.885 91.77 357.812 91.77C357.065 91.63 356.319 90.7667 355.572 89.18L354.312 88.76C352.119 88.76 350.135 90.2067 348.362 93.1V93.73C348.362 94.43 351.652 95.5967 358.232 97.23C360.985 98.8633 362.362 100.847 362.362 103.18C362.362 107.007 359.282 110.273 353.122 112.98L350.532 113.4C346.612 112.98 344.652 111.02 344.652 107.52V107.31C344.652 106.19 345.375 105.537 346.822 105.35C347.942 105.35 348.689 106.517 349.062 108.85L349.622 109.27H350.812C353.472 109.27 355.945 107.45 358.232 103.81V102.9C358.232 101.5 355.175 100.193 349.062 98.98C345.842 97.6733 344.232 95.8533 344.232 93.52C344.232 90.4867 346.775 87.64 351.862 84.98C354.102 84.7 355.992 84.2567 357.532 83.65ZM373.187 69.51C374.493 69.79 375.147 70.4433 375.147 71.47L374.727 74.55V75.46C374.727 77.5133 374.96 79.6833 375.427 81.97H375.567C380.98 80.3367 384.34 79.52 385.647 79.52C387 79.8933 387.677 80.57 387.677 81.55C387.677 83.1367 386.067 83.93 382.847 83.93L375.567 86.52C375.567 92.82 376.243 101.383 377.597 112.21C377.317 113.47 376.64 114.1 375.567 114.1H375.427C373.793 114.1 372.977 112 372.977 107.8C372.37 104.673 371.857 97.8833 371.437 87.43H370.177C365.79 87.15 363.597 86.1233 363.597 84.35C363.597 83.8367 364.087 83.2067 365.067 82.46H365.767L368.987 83.3H371.227L370.597 74.55C370.597 71.19 371.46 69.51 373.187 69.51ZM395.479 107.87C396.459 107.87 397.043 108.663 397.229 110.25C396.949 111.883 396.133 112.7 394.779 112.7C393.846 112.7 393.193 111.883 392.819 110.25C393.379 108.663 394.266 107.87 395.479 107.87ZM408.264 69.65H408.474C409.408 69.65 410.131 70.3267 410.644 71.68C410.644 72.1933 409.711 73.4067 407.844 75.32C407.238 76.72 406.934 77.98 406.934 79.1V80.57C406.934 81.3167 407.378 82.6467 408.264 84.56C408.264 85.54 407.541 86.2633 406.094 86.73C404.321 86.73 403.201 84.49 402.734 80.01V79.73C402.734 75.2967 404.578 71.9367 408.264 69.65ZM413.934 73.43H414.144C415.124 73.43 415.708 74.1533 415.894 75.6C415.894 76.3 414.961 77.2333 413.094 78.4L412.674 80.15V80.57L413.234 83.23C413.234 84.07 412.511 84.7933 411.064 85.4C409.338 84.84 408.474 83.1833 408.474 80.43C408.474 77.1167 410.294 74.7833 413.934 73.43Z" fill="black"/>
<defs>
<filter id="filter0_d_2651_14" x="39" y="87" width="198" height="46" filterUnits="userSpaceOnUse" color-interpolation-filters="sRGB">
<feFlood flood-opacity="0" result="BackgroundImageFix"/>
<feColorMatrix in="SourceAlpha" type="matrix" values="0 0 0 0 0 0 0 0 0 0 0 0 0 0 0 0 0 0 127 0" result="hardAlpha"/>
<feOffset dx="3" dy="3"/>
<feGaussianBlur stdDeviation="2"/>
<feComposite in2="hardAlpha" operator="out"/>
<feColorMatrix type="matrix" values="0 0 0 0 0 0 0 0 0 0 0 0 0 0 0 0 0 0 0.25 0"/>
<feBlend mode="normal" in2="BackgroundImageFix" result="effect1_dropShadow_2651_14"/>
<feBlend mode="normal" in="SourceGraphic" in2="effect1_dropShadow_2651_14" result="shape"/>
</filter>
</defs>
</svg>
