<svg width="174" height="181" viewBox="0 0 174 181" fill="none" xmlns="http://www.w3.org/2000/svg">
<g filter="url(#filter0_d_2775_179)">
<rect y="7" width="166" height="166" fill="#F8F7F4"/>
</g>
<path d="M15.465 22.4V27.005H16.74V22.4H18.81V35.105H13.38V22.4H15.465ZM15.465 33.245H16.74V28.895H15.465V33.245ZM24.87 22.16V36.005H22.725V29.36H21.78V35.885H19.665V22.235H21.78V27.425H22.725V22.16H24.87ZM31.3194 32.36C30.6144 33.665 28.9944 34.745 27.3144 35.135V33.125C28.9194 32.405 30.1794 31.205 30.1794 27.32V22.31H32.4594V27.32C32.4594 31.205 33.7044 32.39 35.3394 33.125V35.135C33.6444 34.745 32.0544 33.65 31.3194 32.36ZM36.7794 22.16H39.0594V36.005H36.7794V28.85H33.8844V26.9H36.7794V22.16ZM42.1788 24.23V22.31H49.4988V24.23H46.9488V24.845C46.9488 27.215 47.9688 28.175 49.7538 28.535V30.485C48.1338 30.26 46.6638 29.555 45.8688 28.505C45.0288 29.57 43.4988 30.455 41.9088 30.635V28.685C43.6788 28.325 44.6988 27.26 44.6988 24.845V24.23H42.1788ZM53.4738 22.16V31.88H51.1938V22.16H53.4738ZM53.6988 34.175V36.08H42.9588V31.145H45.2388V34.175H53.6988ZM17.685 53.03H12.87V41.165H17.43C19.95 41.165 21.225 42.275 21.225 44.405C21.225 45.65 20.595 46.49 19.53 46.85C20.79 47.195 21.57 48.23 21.57 49.61C21.57 51.845 20.265 53.03 17.685 53.03ZM19.095 49.475C19.095 48.35 18.525 47.93 17.31 47.93H15.345V51.035H17.31C18.525 51.035 19.095 50.6 19.095 49.475ZM18.795 44.57C18.795 43.52 18.195 43.175 17.04 43.175H15.345V45.965H17.04C18.195 45.965 18.795 45.635 18.795 44.57ZM32.3423 53.03H29.8223L29.1773 50.75H25.1873L24.5423 53.03H22.0223L25.8173 41.165H28.5473L32.3423 53.03ZM27.1823 43.7L25.7423 48.74H28.6073L27.1823 43.7ZM33.3635 53.03V41.165H40.7285V43.22H35.8235V45.92H40.1135V47.975H35.8235V50.975H40.8035V53.03H33.3635ZM54.9743 49.625C54.9743 51.725 53.4293 53.24 50.6993 53.24C47.9993 53.24 46.4243 51.755 46.4243 49.67V49.445H48.8843V49.7C48.8843 50.615 49.5593 51.245 50.6993 51.245C51.8243 51.245 52.4993 50.615 52.4993 49.7C52.4993 48.89 51.9893 48.335 50.8793 48.11L49.6043 47.855C47.6093 47.465 46.3943 46.385 46.3943 44.39C46.3943 42.5 47.8193 40.955 50.4593 40.955C53.0993 40.955 54.5243 42.515 54.5243 44.33V44.51H52.0643V44.33C52.0643 43.52 51.4943 42.965 50.4593 42.965C49.4093 42.965 48.8543 43.52 48.8543 44.33C48.8543 45.155 49.3643 45.575 50.5043 45.815L51.7793 46.07C53.8493 46.49 54.9743 47.66 54.9743 49.625ZM56.3323 53.03V41.165H63.6973V43.22H58.7923V45.92H63.0823V47.975H58.7923V50.975H63.7723V53.03H56.3323ZM74.5239 47.09C74.5239 48.86 74.2839 50.465 73.3989 51.635C72.6339 52.655 71.4789 53.24 69.7539 53.24C68.0139 53.24 66.8739 52.655 66.1089 51.635C65.2239 50.465 64.9689 48.86 64.9689 47.09C64.9689 45.335 65.2239 43.73 66.1089 42.56C66.8739 41.54 68.0139 40.955 69.7539 40.955C71.4789 40.955 72.6339 41.54 73.3989 42.56C74.2839 43.73 74.5239 45.335 74.5239 47.09ZM67.4439 47.09C67.4439 48.845 67.6239 49.73 68.0439 50.345C68.4039 50.885 68.9739 51.17 69.7539 51.17C70.5339 51.17 71.1039 50.885 71.4639 50.345C71.8839 49.73 72.0489 48.845 72.0489 47.09C72.0489 45.35 71.8839 44.465 71.4639 43.85C71.1039 43.31 70.5339 43.025 69.7539 43.025C68.9739 43.025 68.4039 43.31 68.0439 43.85C67.6239 44.465 67.4439 45.35 67.4439 47.09ZM79.1879 53.24C76.6229 53.24 75.2429 51.83 75.2429 49.34V49.175H77.7179C77.7479 50.6 78.2279 51.17 79.1879 51.17C80.1779 51.17 80.6579 50.585 80.6579 49.025V41.165H83.1329V49.34C83.1329 51.83 81.7679 53.24 79.1879 53.24ZM87.3274 41.165V53.03H84.8674V41.165H87.3274ZM95.3112 53.03L91.5462 45.425V53.03H89.0862V41.165H91.5762L95.3412 48.785V41.165H97.8162V53.03H95.3112Z" fill="black"/>
<path d="M21.36 93.42V92.354H13.625V91.119H22.777V93.355C22.777 94.031 22.699 94.759 22.582 95.279H21.191C21.308 94.759 21.36 94.044 21.36 93.42ZM12.923 97.32V96.098H16.511V93.693H17.928V96.098H23.544V97.32H12.923ZM13.482 100.804C13.482 100.024 13.885 99.491 14.548 99.127C15.419 98.659 16.732 98.477 18.253 98.477C19.761 98.477 21.087 98.659 21.958 99.127C22.621 99.491 23.011 100.024 23.011 100.804C23.011 101.584 22.621 102.117 21.958 102.468C21.087 102.936 19.761 103.105 18.253 103.105C16.732 103.105 15.419 102.936 14.548 102.468C13.885 102.117 13.482 101.584 13.482 100.804ZM14.899 100.804C14.899 101.09 15.055 101.311 15.341 101.48C15.887 101.805 16.888 101.922 18.253 101.922C19.605 101.922 20.606 101.805 21.152 101.48C21.438 101.311 21.607 101.09 21.607 100.804C21.607 100.505 21.438 100.284 21.152 100.115C20.606 99.803 19.605 99.673 18.253 99.673C16.888 99.673 15.887 99.803 15.341 100.115C15.055 100.284 14.899 100.505 14.899 100.804ZM25.6365 92.341V91.119H31.7335V92.341H29.3935V92.926C29.3935 94.928 30.4725 95.877 31.9415 96.202V97.45C30.5375 97.203 29.3285 96.462 28.7175 95.461C28.0935 96.475 26.8715 97.359 25.4285 97.606V96.332C26.9365 96.02 27.9765 94.954 27.9765 92.926V92.341H25.6365ZM35.0095 90.976V93.745H36.7255V94.98H35.0095V97.788H33.5925V90.976H35.0095ZM26.1565 98.555H35.0095V102.962H33.5925V99.79H26.1565V98.555ZM40.352 99.439C39.884 100.479 38.896 101.428 37.7 101.974V100.661C38.883 99.946 39.65 98.75 39.65 96.137V91.119H41.041V96.137C41.041 98.763 41.808 99.933 43.004 100.674V101.974C41.808 101.441 40.833 100.466 40.352 99.439ZM47.957 102.767H46.579V96.904H45.123V102.624H43.758V91.054H45.123V95.669H46.579V90.976H47.957V102.767ZM14.418 114.852H16.68C17.941 114.852 18.578 114.163 18.578 112.98C18.578 111.797 17.941 111.108 16.68 111.108H14.418V114.852ZM16.875 116.165H14.418V119.987H12.91V109.795H16.875C18.903 109.795 20.086 110.978 20.086 112.98C20.086 115.008 18.903 116.165 16.875 116.165ZM27.4485 116.789H22.4695C22.5215 118.154 23.0545 118.96 24.2765 118.96C25.1865 118.96 25.7325 118.518 25.8365 117.803H27.3055C27.0715 119.272 26.0185 120.156 24.2765 120.156C22.0925 120.156 21.0265 118.778 21.0265 116.347C21.0265 113.929 22.0925 112.538 24.2505 112.538C26.3955 112.538 27.4615 113.929 27.4615 116.347C27.4615 116.503 27.4615 116.646 27.4485 116.789ZM24.2505 113.734C23.0805 113.734 22.5865 114.475 22.4825 115.697H26.0055C25.9015 114.475 25.3945 113.734 24.2505 113.734ZM33.3128 119.207C33.0788 119.779 32.3378 120.156 31.2588 120.156C29.5688 120.156 28.5028 119.324 28.5028 117.842C28.5028 116.373 29.5688 115.528 31.2588 115.528C32.2598 115.528 33.0528 115.866 33.3128 116.464V115.281C33.3128 114.293 32.7928 113.721 31.7398 113.721C30.8038 113.721 30.3228 114.124 30.2188 114.865H28.7758C28.8798 113.422 29.8808 112.538 31.7398 112.538C33.7678 112.538 34.7558 113.617 34.7558 115.281V118.986C34.7558 119.35 34.8208 119.74 34.9248 119.987H33.4558C33.3648 119.792 33.3128 119.519 33.3128 119.207ZM31.6228 118.999C32.7408 118.999 33.3258 118.609 33.3258 117.842C33.3258 117.088 32.7408 116.685 31.6228 116.685C30.5178 116.685 29.9328 117.088 29.9328 117.842C29.9328 118.609 30.5178 118.999 31.6228 118.999ZM36.0704 116.347C36.0704 113.916 37.1364 112.538 39.2944 112.538C41.0884 112.538 42.2194 113.448 42.4014 115.099H40.9454C40.8544 114.241 40.2694 113.721 39.2944 113.721C37.9554 113.721 37.5134 114.735 37.5134 116.347C37.5134 117.959 37.9554 118.973 39.2944 118.973C40.2694 118.973 40.8544 118.453 40.9454 117.595H42.4014C42.2194 119.246 41.0884 120.156 39.2944 120.156C37.1364 120.156 36.0704 118.778 36.0704 116.347ZM46.5942 118.973C47.9332 118.973 48.3752 117.959 48.3752 116.347C48.3752 114.735 47.9332 113.721 46.5942 113.721C45.2552 113.721 44.8132 114.735 44.8132 116.347C44.8132 117.959 45.2552 118.973 46.5942 118.973ZM46.5942 112.538C48.7392 112.538 49.8052 113.916 49.8052 116.347C49.8052 118.778 48.7392 120.156 46.5942 120.156C44.4362 120.156 43.3702 118.778 43.3702 116.347C43.3702 113.916 44.4362 112.538 46.5942 112.538ZM50.8985 116.347C50.8985 113.916 51.9645 112.538 54.1225 112.538C55.9165 112.538 57.0475 113.448 57.2295 115.099H55.7735C55.6825 114.241 55.0975 113.721 54.1225 113.721C52.7835 113.721 52.3415 114.735 52.3415 116.347C52.3415 117.959 52.7835 118.973 54.1225 118.973C55.0975 118.973 55.6825 118.453 55.7735 117.595H57.2295C57.0475 119.246 55.9165 120.156 54.1225 120.156C51.9645 120.156 50.8985 118.778 50.8985 116.347ZM59.9258 119.987H58.4958V109.795H59.9258V115.619H60.6668L62.6558 112.707H64.2548L61.8368 116.204L64.5928 119.987H62.9418L60.6408 116.763H59.9258V119.987ZM19.098 130.681C19.085 131.669 18.877 132.241 18.123 133.099L14.938 136.726H19.241V137.987H12.988V136.843L16.94 132.332C17.447 131.76 17.642 131.292 17.642 130.694C17.642 129.641 16.953 128.9 15.978 128.9C14.938 128.9 14.314 129.615 14.314 130.694V130.967H12.845V130.681C12.845 128.991 13.976 127.626 15.978 127.626C17.98 127.626 19.098 128.991 19.098 130.681ZM27.3817 132.891C27.3817 135.218 27.0697 136.44 26.3417 137.246C25.7827 137.844 24.9897 138.156 24.0147 138.156C23.0397 138.156 22.2207 137.844 21.6747 137.246C20.9467 136.44 20.6347 135.218 20.6347 132.891C20.6347 130.564 20.9467 129.342 21.6747 128.536C22.2207 127.938 23.0397 127.626 24.0147 127.626C24.9897 127.626 25.7827 127.938 26.3417 128.536C27.0697 129.342 27.3817 130.564 27.3817 132.891ZM25.9127 132.891C25.9127 130.954 25.7567 130.018 25.3277 129.485C25.0027 129.095 24.5867 128.887 24.0147 128.887C23.4427 128.887 23.0137 129.095 22.6887 129.485C22.2597 130.018 22.0907 130.954 22.0907 132.891C22.0907 134.828 22.2597 135.764 22.6887 136.297C23.0137 136.687 23.4427 136.895 24.0147 136.895C24.5867 136.895 25.0027 136.687 25.3277 136.297C25.7567 135.764 25.9127 134.828 25.9127 132.891ZM35.1195 130.681C35.1065 131.669 34.8985 132.241 34.1445 133.099L30.9595 136.726H35.2625V137.987H29.0095V136.843L32.9615 132.332C33.4685 131.76 33.6635 131.292 33.6635 130.694C33.6635 129.641 32.9745 128.9 31.9995 128.9C30.9595 128.9 30.3355 129.615 30.3355 130.694V130.967H28.8665V130.681C28.8665 128.991 29.9975 127.626 31.9995 127.626C34.0015 127.626 35.1195 128.991 35.1195 130.681ZM41.8172 135.049C41.8172 133.892 41.0762 133.203 40.0362 133.203H38.9832V131.955H40.0362C40.9462 131.955 41.5312 131.331 41.5312 130.434C41.5312 129.498 40.8942 128.9 40.0102 128.9C39.0872 128.9 38.4892 129.498 38.4892 130.434V130.538H37.0202V130.317C37.0202 128.783 38.1252 127.626 40.0102 127.626C41.8952 127.626 42.9872 128.783 42.9872 130.317C42.9872 131.37 42.3892 132.267 41.4402 132.566C42.5582 132.891 43.2862 133.775 43.2862 135.14C43.2862 136.986 41.9212 138.156 40.0102 138.156C38.0992 138.156 36.7082 136.986 36.7082 135.101V134.945H38.1902V135.023C38.1902 136.219 38.9572 136.882 40.0102 136.882C41.0372 136.882 41.8172 136.232 41.8172 135.049ZM14.046 151.644H15.96C17.027 151.644 17.566 151.061 17.566 150.06C17.566 149.059 17.027 148.476 15.96 148.476H14.046V151.644ZM16.125 152.755H14.046V155.989H12.77V147.365H16.125C17.841 147.365 18.842 148.366 18.842 150.06C18.842 151.776 17.841 152.755 16.125 152.755ZM21.1008 155.989H19.8908V147.365H21.1008V155.989ZM26.3064 155.329C26.1084 155.813 25.4814 156.132 24.5684 156.132C23.1384 156.132 22.2364 155.428 22.2364 154.174C22.2364 152.931 23.1384 152.216 24.5684 152.216C25.4154 152.216 26.0864 152.502 26.3064 153.008V152.007C26.3064 151.171 25.8664 150.687 24.9754 150.687C24.1834 150.687 23.7764 151.028 23.6884 151.655H22.4674C22.5554 150.434 23.4024 149.686 24.9754 149.686C26.6914 149.686 27.5274 150.599 27.5274 152.007V155.142C27.5274 155.45 27.5824 155.78 27.6704 155.989H26.4274C26.3504 155.824 26.3064 155.593 26.3064 155.329ZM24.8764 155.153C25.8224 155.153 26.3174 154.823 26.3174 154.174C26.3174 153.536 25.8224 153.195 24.8764 153.195C23.9414 153.195 23.4464 153.536 23.4464 154.174C23.4464 154.823 23.9414 155.153 24.8764 155.153ZM30.9937 149.686C32.4347 149.686 33.2927 150.412 33.2927 151.49V151.633H32.0827V151.479C32.0827 151.028 31.7087 150.654 30.9937 150.654C30.2677 150.654 29.8937 151.028 29.8937 151.468C29.8937 152.139 30.4437 152.15 31.5877 152.392C32.9187 152.634 33.5237 153.206 33.5237 154.273C33.5237 155.329 32.5777 156.132 31.0927 156.132C29.6187 156.132 28.6507 155.351 28.6507 154.273V154.097H29.8607V154.273C29.8607 154.834 30.3557 155.164 31.0927 155.164C31.8187 155.164 32.3137 154.823 32.3137 154.306C32.3137 153.591 31.7417 153.514 30.6307 153.283C29.2997 153.052 28.6947 152.513 28.6947 151.49C28.6947 150.434 29.5417 149.686 30.9937 149.686ZM36.1182 150.83V154.119C36.1182 154.889 36.4042 155.076 37.1742 155.076H37.7902V156.044C37.5922 156.077 37.2292 156.077 36.9652 156.077C35.5242 156.077 34.9082 155.659 34.9082 154.339V150.83H34.0172V149.829H34.9082V148.08H36.1182V149.829H37.7902V150.83H36.1182ZM40.093 155.989H38.872V149.829H40.093V155.989ZM40.093 148.663H38.872V147.365H40.093V148.663ZM41.2725 152.909C41.2725 150.852 42.1745 149.686 44.0005 149.686C45.5185 149.686 46.4755 150.456 46.6295 151.853H45.3975C45.3205 151.127 44.8255 150.687 44.0005 150.687C42.8675 150.687 42.4935 151.545 42.4935 152.909C42.4935 154.273 42.8675 155.131 44.0005 155.131C44.8255 155.131 45.3205 154.691 45.3975 153.965H46.6295C46.4755 155.362 45.5185 156.132 44.0005 156.132C42.1745 156.132 41.2725 154.966 41.2725 152.909ZM54.7302 155.329C54.5322 155.813 53.9052 156.132 52.9922 156.132C51.5622 156.132 50.6602 155.428 50.6602 154.174C50.6602 152.931 51.5622 152.216 52.9922 152.216C53.8392 152.216 54.5102 152.502 54.7302 153.008V152.007C54.7302 151.171 54.2902 150.687 53.3992 150.687C52.6072 150.687 52.2002 151.028 52.1122 151.655H50.8912C50.9792 150.434 51.8262 149.686 53.3992 149.686C55.1152 149.686 55.9512 150.599 55.9512 152.007V155.142C55.9512 155.45 56.0062 155.78 56.0942 155.989H54.8512C54.7742 155.824 54.7302 155.593 54.7302 155.329ZM53.3002 155.153C54.2462 155.153 54.7412 154.823 54.7412 154.174C54.7412 153.536 54.2462 153.195 53.3002 153.195C52.3652 153.195 51.8702 153.536 51.8702 154.174C51.8702 154.823 52.3652 155.153 53.3002 155.153ZM60.1436 150.698C59.1096 150.698 58.4716 151.424 58.4716 152.832V155.989H57.2726V149.829H58.4716V150.863C58.7356 150.082 59.2306 149.686 60.1766 149.686C60.3636 149.686 60.5726 149.697 60.6826 149.73L60.6606 150.72C60.5616 150.709 60.3636 150.698 60.1436 150.698ZM63.2207 150.83V154.119C63.2207 154.889 63.5067 155.076 64.2767 155.076H64.8927V156.044C64.6947 156.077 64.3317 156.077 64.0677 156.077C62.6267 156.077 62.0107 155.659 62.0107 154.339V150.83H61.1197V149.829H62.0107V148.08H63.2207V149.829H64.8927V150.83H63.2207ZM66.2385 157.408V156.803C66.7225 156.781 66.9535 156.517 66.9535 155.989H66.2825V154.537H67.6355V156.099C67.6355 156.891 67.1295 157.342 66.2385 157.408ZM77.5205 155.989H76.2995L73.8905 149.961V155.989H72.6255V147.365H74.0335L76.9045 154.537L79.7755 147.365H81.1945V155.989H79.9185V149.961L77.5205 155.989ZM83.8781 155.989H82.6571V149.829H83.8781V155.989ZM83.8781 148.663H82.6571V147.365H83.8781V148.663ZM90.3157 155.989H89.0067L87.4997 153.679L86.0037 155.989H84.6837L86.7737 152.832L84.8047 149.829H86.1467L87.4997 151.996L88.8747 149.829H90.1947L88.2367 152.832L90.3157 155.989ZM96.1636 153.283H91.9506C91.9946 154.438 92.4456 155.12 93.4796 155.12C94.2496 155.12 94.7116 154.746 94.7996 154.141H96.0426C95.8446 155.384 94.9536 156.132 93.4796 156.132C91.6316 156.132 90.7296 154.966 90.7296 152.909C90.7296 150.863 91.6316 149.686 93.4576 149.686C95.2726 149.686 96.1746 150.863 96.1746 152.909C96.1746 153.041 96.1746 153.162 96.1636 153.283ZM93.4576 150.698C92.4676 150.698 92.0496 151.325 91.9616 152.359H94.9426C94.8546 151.325 94.4256 150.698 93.4576 150.698ZM101.324 150.786V147.365H102.545V155.989H101.324V155.032C101.093 155.703 100.444 156.132 99.5637 156.132C98.0457 156.132 97.0997 155.12 97.0997 152.909C97.0997 150.698 98.0457 149.686 99.5637 149.686C100.444 149.686 101.093 150.115 101.324 150.786ZM101.324 152.909C101.324 151.556 100.95 150.698 99.8277 150.698C98.6837 150.698 98.3097 151.556 98.3097 152.909C98.3097 154.273 98.6837 155.12 99.8277 155.12C100.95 155.12 101.324 154.273 101.324 152.909ZM112.078 152.656V155.989H110.857V152.007C110.857 151.116 110.483 150.687 109.746 150.687C108.888 150.687 108.272 151.347 108.272 152.645V155.989H107.073V149.829H108.272V150.841C108.547 150.137 109.119 149.686 110.032 149.686C110.945 149.686 111.616 150.137 111.88 150.918C112.221 150.082 112.881 149.686 113.816 149.686C115.136 149.686 115.873 150.555 115.873 152.051V155.989H114.652V152.007C114.652 151.116 114.267 150.687 113.541 150.687C112.683 150.687 112.078 151.369 112.078 152.656ZM120.988 155.329C120.79 155.813 120.163 156.132 119.25 156.132C117.82 156.132 116.918 155.428 116.918 154.174C116.918 152.931 117.82 152.216 119.25 152.216C120.097 152.216 120.768 152.502 120.988 153.008V152.007C120.988 151.171 120.548 150.687 119.657 150.687C118.865 150.687 118.458 151.028 118.37 151.655H117.149C117.237 150.434 118.084 149.686 119.657 149.686C121.373 149.686 122.209 150.599 122.209 152.007V155.142C122.209 155.45 122.264 155.78 122.352 155.989H121.109C121.032 155.824 120.988 155.593 120.988 155.329ZM119.558 155.153C120.504 155.153 120.999 154.823 120.999 154.174C120.999 153.536 120.504 153.195 119.558 153.195C118.623 153.195 118.128 153.536 118.128 154.174C118.128 154.823 118.623 155.153 119.558 155.153ZM125.128 150.83V154.119C125.128 154.889 125.414 155.076 126.184 155.076H126.8V156.044C126.602 156.077 126.239 156.077 125.975 156.077C124.534 156.077 123.918 155.659 123.918 154.339V150.83H123.027V149.829H123.918V148.08H125.128V149.829H126.8V150.83H125.128ZM133.052 153.283H128.839C128.883 154.438 129.334 155.12 130.368 155.12C131.138 155.12 131.6 154.746 131.688 154.141H132.931C132.733 155.384 131.842 156.132 130.368 156.132C128.52 156.132 127.618 154.966 127.618 152.909C127.618 150.863 128.52 149.686 130.346 149.686C132.161 149.686 133.063 150.863 133.063 152.909C133.063 153.041 133.063 153.162 133.052 153.283ZM130.346 150.698C129.356 150.698 128.938 151.325 128.85 152.359H131.831C131.743 151.325 131.314 150.698 130.346 150.698ZM137.068 150.698C136.034 150.698 135.396 151.424 135.396 152.832V155.989H134.197V149.829H135.396V150.863C135.66 150.082 136.155 149.686 137.101 149.686C137.288 149.686 137.497 149.697 137.607 149.73L137.585 150.72C137.486 150.709 137.288 150.698 137.068 150.698ZM139.695 155.989H138.474V149.829H139.695V155.989ZM139.695 148.663H138.474V147.365H139.695V148.663ZM144.9 155.329C144.702 155.813 144.075 156.132 143.162 156.132C141.732 156.132 140.83 155.428 140.83 154.174C140.83 152.931 141.732 152.216 143.162 152.216C144.009 152.216 144.68 152.502 144.9 153.008V152.007C144.9 151.171 144.46 150.687 143.569 150.687C142.777 150.687 142.37 151.028 142.282 151.655H141.061C141.149 150.434 141.996 149.686 143.569 149.686C145.285 149.686 146.121 150.599 146.121 152.007V155.142C146.121 155.45 146.176 155.78 146.264 155.989H145.021C144.944 155.824 144.9 155.593 144.9 155.329ZM143.47 155.153C144.416 155.153 144.911 154.823 144.911 154.174C144.911 153.536 144.416 153.195 143.47 153.195C142.535 153.195 142.04 153.536 142.04 154.174C142.04 154.823 142.535 155.153 143.47 155.153ZM148.696 155.989H147.486V147.365H148.696V155.989Z" fill="black"/>
<defs>
<filter id="filter0_d_2775_179" x="0" y="7" width="174" height="174" filterUnits="userSpaceOnUse" color-interpolation-filters="sRGB">
<feFlood flood-opacity="0" result="BackgroundImageFix"/>
<feColorMatrix in="SourceAlpha" type="matrix" values="0 0 0 0 0 0 0 0 0 0 0 0 0 0 0 0 0 0 127 0" result="hardAlpha"/>
<feOffset dx="4" dy="4"/>
<feGaussianBlur stdDeviation="2"/>
<feComposite in2="hardAlpha" operator="out"/>
<feColorMatrix type="matrix" values="0 0 0 0 0 0 0 0 0 0 0 0 0 0 0 0 0 0 0.25 0"/>
<feBlend mode="normal" in2="BackgroundImageFix" result="effect1_dropShadow_2775_179"/>
<feBlend mode="normal" in="SourceGraphic" in2="effect1_dropShadow_2775_179" result="shape"/>
</filter>
</defs>
</svg>
